M48
METRIC,LZ,000.000
;FILE_FORMAT=3:3
;TYPE=PLATED
;Layer: PTH_Through
;EasyEDA v6.5.54, 2026-09-20 16:52:37
;1881cc260c894a1eaf7964b822311bd9,c281fde3dfeb4d3eaf03207ac62d62b3,10
;Gerber Generator version 0.2
;Holesize 1 = 0.310 mm
T01C0.310
;Holesize 2 = 0.900 mm
T02C0.900
;Holesize 3 = 0.915 mm
T03C0.915
;Holesize 4 = 0.966 mm
T04C0.966
;Holesize 5 = 1.016 mm
T05C1.016
;Holesize 6 = 1.101 mm
T06C1.101
;Holesize 7 = 1.982 mm
T07C1.982
%
G05
G90
T01
X096520Y-001270
X052324Y015621
X052324Y013843
X064770Y017653
X062738Y011557
X068199Y019304
X058420Y010541
X055626Y010922
X049276Y013589
T02
X057658Y018669
X057658Y008509
X054991Y018669
X054991Y008509
X052324Y018669
X052324Y008509
X049657Y018669
X049657Y008509
X046990Y018669
X046990Y008509
X035814Y013081
X035814Y002921
X060325Y018669
X060325Y008509
X087376Y007620
X097536Y007620
X086360Y001778
X096520Y001778
X072644Y004699
X072644Y-005461
X062992Y018669
X062992Y008509
T03
X062487Y-006350G85X062481Y-006350
X092967Y-006350G85X092961Y-006350
X027432Y-016637
X029972Y-016637
X032512Y-016637
X035052Y-016637
X037592Y-016637
X040132Y-016637
X042672Y-016637
X045212Y-016637
X047752Y-016637
X050292Y-016637
X052832Y-016637
X055372Y-016637
X057912Y-016637
X060452Y-016637
X062992Y-016637
X065532Y-016637
X022098Y-016637
X097028Y-016637
X096774Y-047752
X021717Y-047625
T04
X082169Y007620
X084709Y007620
X079629Y001778
X082169Y001778
T05
X025657Y-006350G85X025651Y-006350
X028197Y-006350G85X028191Y-006350
X030737Y-006350G85X030731Y-006350
X033277Y-006350G85X033271Y-006350
X035817Y-006350G85X035811Y-006350
X038357Y-006350G85X038351Y-006350
X040897Y-006350G85X040891Y-006350
X043437Y-006350G85X043431Y-006350
X045977Y-006350G85X045971Y-006350
X048517Y-006350G85X048511Y-006350
X052327Y-006350G85X052321Y-006350
X054867Y-006350G85X054861Y-006350
X057407Y-006350G85X057401Y-006350
X059947Y-006350G85X059941Y-006350
X065027Y-006350G85X065021Y-006350
X067567Y-006350G85X067561Y-006350
X070107Y-006350G85X070101Y-006350
X075187Y-006350G85X075181Y-006350
X077727Y-006350G85X077721Y-006350
X080267Y-006350G85X080261Y-006350
X082807Y-006350G85X082801Y-006350
X085347Y-006350G85X085341Y-006350
X087887Y-006350G85X087881Y-006350
X090427Y-006350G85X090421Y-006350
X092967Y-006350G85X092961Y-006350
X103127Y-006350G85X103121Y-006350
X100587Y-006350G85X100581Y-006350
X103127Y-003810G85X103121Y-003810
X103127Y-001270G85X103121Y-001270
X100587Y-003810G85X100581Y-003810
X100587Y-001270G85X100581Y-001270
X103127Y003810G85X103121Y003810
X100587Y003810G85X100581Y003810
X100587Y006350G85X100581Y006350
X103127Y006350G85X103121Y006350
X100587Y011430G85X100581Y011430
X103127Y011430G85X103121Y011430
X100587Y013970G85X100581Y013970
X103127Y013970G85X103121Y013970
X100587Y016510G85X100581Y016510
X103127Y016510G85X103121Y016510
X100587Y019050G85X100581Y019050
X103127Y019050G85X103121Y019050
X103127Y021590G85X103121Y021590
X100587Y021590G85X100581Y021590
X100587Y024130G85X100581Y024130
X103127Y024130G85X103121Y024130
X103127Y026670G85X103121Y026670
X100587Y026670G85X100581Y026670
X100587Y029210G85X100581Y029210
X103127Y029210G85X103121Y029210
X103127Y031750G85X103121Y031750
X100587Y031750G85X100581Y031750
X100587Y034290G85X100581Y034290
X103127Y034290G85X103121Y034290
X103127Y036830G85X103121Y036830
X100587Y036830G85X100581Y036830
X098047Y041910G85X098041Y041910
X095507Y041910G85X095501Y041910
X092967Y041910G85X092961Y041910
X090427Y041910G85X090421Y041910
X087887Y041910G85X087881Y041910
X085347Y041910G85X085341Y041910
X082807Y041910G85X082801Y041910
X080267Y041910G85X080261Y041910
X075187Y041910G85X075181Y041910
X072647Y041910G85X072641Y041910
X070107Y041910G85X070101Y041910
X067567Y041910G85X067561Y041910
X065027Y041910G85X065021Y041910
X062487Y041910G85X062481Y041910
X059947Y041910G85X059941Y041910
X057407Y041910G85X057401Y041910
X052327Y041910G85X052321Y041910
X049787Y041910G85X049781Y041910
X047247Y041910G85X047241Y041910
X044707Y041910G85X044701Y041910
X042167Y041910G85X042161Y041910
X039627Y041910G85X039621Y041910
X037087Y041910G85X037081Y041910
X034547Y041910G85X034541Y041910
T06
X077942Y029413
X073442Y029413
X077942Y022911
X073442Y022911
X084419Y029413
X079919Y029413
X084419Y022911
X079919Y022911
X090896Y029413
X086396Y029413
X090896Y022911
X086396Y022911
X071465Y029413
X066965Y029413
X071465Y022911
X066965Y022911
X064988Y029413
X060488Y029413
X064988Y022911
X060488Y022911
X011862Y009870
X011862Y005370
X018364Y009870
X018364Y005370
X058384Y030937
X053884Y030937
X058384Y024435
X053884Y024435
X051526Y030937
X047026Y030937
X051526Y024435
X047026Y024435
T07
X019177Y045517
X019177Y035509
M30
