G04 Layer: TopSolderMaskLayer*
G04 EasyEDA v6.5.54, 2026-09-20 16:52:37*
G04 1881cc260c894a1eaf7964b822311bd9,c281fde3dfeb4d3eaf03207ac62d62b3,10*
G04 Gerber Generator version 0.2*
G04 Scale: 100 percent, Rotated: No, Reflected: No *
G04 Dimensions in millimeters *
G04 leading zeros omitted , absolute positions ,4 integer and 5 decimal *
%FSLAX45Y45*%
%MOMM*%

%ADD10C,1.7526*%
%ADD11C,2.8956*%
%ADD12C,1.9812*%
%ADD13C,1.8796*%
%ADD14C,1.6256*%
%ADD15C,0.0131*%
%ADD16C,1.9016*%
%ADD17C,2.6016*%

%LPD*%
D10*
G01*
X8216900Y762000D03*
G01*
X8470900Y762000D03*
G01*
X7962900Y177800D03*
G01*
X8216900Y177800D03*
D11*
G01*
X1917700Y4551679D03*
G01*
X1917700Y3550920D03*
D12*
G01*
X5765800Y1866900D03*
G01*
X5765800Y850900D03*
G01*
X5499100Y1866900D03*
G01*
X5499100Y850900D03*
G01*
X5232400Y1866900D03*
G01*
X5232400Y850900D03*
G01*
X4965700Y1866900D03*
G01*
X4965700Y850900D03*
G01*
X4699000Y1866900D03*
G01*
X4699000Y850900D03*
G01*
X3581400Y1308100D03*
G01*
X3581400Y292100D03*
G01*
X6032500Y1866900D03*
G01*
X6032500Y850900D03*
G01*
X8737600Y762000D03*
G01*
X9753600Y762000D03*
G01*
X8636000Y177800D03*
G01*
X9652000Y177800D03*
G01*
X7264400Y469900D03*
G01*
X7264400Y-546100D03*
G01*
X6299200Y1866900D03*
G01*
X6299200Y850900D03*
D13*
G01*
X2565400Y-635000D03*
G01*
X2819400Y-635000D03*
G01*
X3073400Y-635000D03*
G01*
X3327400Y-635000D03*
G01*
X3581400Y-635000D03*
G01*
X3835400Y-635000D03*
G01*
X4089400Y-635000D03*
G01*
X4343400Y-635000D03*
G01*
X4597400Y-635000D03*
G01*
X4851400Y-635000D03*
G01*
X5232400Y-635000D03*
G01*
X5486400Y-635000D03*
G01*
X5740400Y-635000D03*
G01*
X5994400Y-635000D03*
G01*
X6248400Y-635000D03*
G01*
X6502400Y-635000D03*
G01*
X6756400Y-635000D03*
G01*
X7010400Y-635000D03*
G01*
X7518400Y-635000D03*
G01*
X7772400Y-635000D03*
G01*
X8026400Y-635000D03*
G01*
X8280400Y-635000D03*
G01*
X8534400Y-635000D03*
G01*
X8788400Y-635000D03*
G01*
X9042400Y-635000D03*
G01*
X9296400Y-635000D03*
G01*
X10312400Y-635000D03*
G01*
X10058400Y-635000D03*
G01*
X10312400Y-381000D03*
G01*
X10312400Y-127000D03*
G01*
X10058400Y-381000D03*
G01*
X10058400Y-127000D03*
G01*
X10312400Y381000D03*
G01*
X10058400Y381000D03*
G01*
X10058400Y635000D03*
G01*
X10312400Y635000D03*
G01*
X10058400Y1143000D03*
G01*
X10312400Y1143000D03*
G01*
X10058400Y1397000D03*
G01*
X10312400Y1397000D03*
G01*
X10058400Y1651000D03*
G01*
X10312400Y1651000D03*
G01*
X10058400Y1905000D03*
G01*
X10312400Y1905000D03*
G01*
X10312400Y2159000D03*
G01*
X10058400Y2159000D03*
G01*
X10058400Y2413000D03*
G01*
X10312400Y2413000D03*
G01*
X10312400Y2667000D03*
G01*
X10058400Y2667000D03*
G01*
X10058400Y2921000D03*
G01*
X10312400Y2921000D03*
G01*
X10312400Y3175000D03*
G01*
X10058400Y3175000D03*
G01*
X10058400Y3429000D03*
G01*
X10312400Y3429000D03*
G01*
X10312400Y3683000D03*
G01*
X10058400Y3683000D03*
G01*
X9804400Y4191000D03*
G01*
X9550400Y4191000D03*
G01*
X9296400Y4191000D03*
G01*
X9042400Y4191000D03*
G01*
X8788400Y4191000D03*
G01*
X8534400Y4191000D03*
G01*
X8280400Y4191000D03*
G01*
X8026400Y4191000D03*
G01*
X7518400Y4191000D03*
G01*
X7264400Y4191000D03*
G01*
X7010400Y4191000D03*
G01*
X6756400Y4191000D03*
G01*
X6502400Y4191000D03*
G01*
X6248400Y4191000D03*
G01*
X5994400Y4191000D03*
G01*
X5740400Y4191000D03*
G01*
X5232400Y4191000D03*
G01*
X4978400Y4191000D03*
G01*
X4724400Y4191000D03*
G01*
X4470400Y4191000D03*
G01*
X4216400Y4191000D03*
G01*
X3962400Y4191000D03*
G01*
X3708400Y4191000D03*
G01*
X3454400Y4191000D03*
D14*
G01*
X9296400Y-635000D03*
D16*
G01*
X7794243Y2941294D03*
G01*
X7344156Y2941294D03*
G01*
X7794243Y2291054D03*
G01*
X7344156Y2291054D03*
G01*
X8441943Y2941294D03*
G01*
X7991856Y2941294D03*
G01*
X8441943Y2291054D03*
G01*
X7991856Y2291054D03*
G01*
X9089643Y2941294D03*
G01*
X8639556Y2941294D03*
G01*
X9089643Y2291054D03*
G01*
X8639556Y2291054D03*
G01*
X7146543Y2941294D03*
G01*
X6696456Y2941294D03*
G01*
X7146543Y2291054D03*
G01*
X6696456Y2291054D03*
G01*
X6498843Y2941294D03*
G01*
X6048756Y2941294D03*
G01*
X6498843Y2291054D03*
G01*
X6048756Y2291054D03*
G01*
X1186205Y987044D03*
G01*
X1186205Y536955D03*
G01*
X1836445Y987044D03*
G01*
X1836445Y536955D03*
G01*
X5838443Y3093694D03*
G01*
X5388356Y3093694D03*
G01*
X5838443Y2443454D03*
G01*
X5388356Y2443454D03*
G01*
X5152643Y3093694D03*
G01*
X4702556Y3093694D03*
G01*
X5152643Y2443454D03*
G01*
X4702556Y2443454D03*
D14*
G01*
X2743200Y-1663700D03*
G01*
X2997200Y-1663700D03*
G01*
X3251200Y-1663700D03*
G01*
X3505200Y-1663700D03*
G01*
X3759200Y-1663700D03*
G01*
X4013200Y-1663700D03*
G01*
X4267200Y-1663700D03*
G01*
X4521200Y-1663700D03*
G01*
X4775200Y-1663700D03*
G01*
X5029200Y-1663700D03*
G01*
X5283200Y-1663700D03*
G01*
X5537200Y-1663700D03*
G01*
X5791200Y-1663700D03*
G01*
X6045200Y-1663700D03*
G01*
X6299200Y-1663700D03*
G01*
X6553200Y-1663700D03*
D17*
G01*
X2209800Y-1663700D03*
G01*
X9702800Y-1663700D03*
G01*
X9677400Y-4775200D03*
G01*
X2171700Y-4762500D03*
M02*
