G04 Layer: BottomLayer*
G04 EasyEDA v6.5.54, 2026-09-20 16:52:37*
G04 1881cc260c894a1eaf7964b822311bd9,c281fde3dfeb4d3eaf03207ac62d62b3,10*
G04 Gerber Generator version 0.2*
G04 Scale: 100 percent, Rotated: No, Reflected: No *
G04 Dimensions in millimeters *
G04 leading zeros omitted , absolute positions ,4 integer and 5 decimal *
%FSLAX45Y45*%
%MOMM*%

%ADD10C,0.2540*%
%ADD11C,1.6510*%
%ADD12C,2.7940*%
%ADD13C,1.8796*%
%ADD14C,1.7780*%
%ADD15C,1.5240*%
%ADD16C,1.8000*%
%ADD17C,0.0158*%
%ADD18C,2.5000*%
%ADD19C,0.6200*%

%LPD*%
G36*
X810768Y-2031492D02*
G01*
X806856Y-2030730D01*
X803605Y-2028494D01*
X801370Y-2025243D01*
X800608Y-2021332D01*
X800608Y5170982D01*
X801370Y5174843D01*
X803605Y5178145D01*
X806856Y5180330D01*
X810768Y5181142D01*
X12143333Y5193741D01*
X12147245Y5192979D01*
X12150547Y5190794D01*
X12152731Y5187492D01*
X12153493Y5183632D01*
X12178690Y-2021281D01*
X12177877Y-2025192D01*
X12175693Y-2028494D01*
X12172391Y-2030730D01*
X12168530Y-2031492D01*
G37*

%LPC*%
G36*
X9702800Y-1814575D02*
G01*
X9719716Y-1813661D01*
X9736378Y-1810816D01*
X9752634Y-1806143D01*
X9768281Y-1799640D01*
X9783064Y-1791462D01*
X9796881Y-1781657D01*
X9809480Y-1770380D01*
X9820757Y-1757781D01*
X9830562Y-1743964D01*
X9838740Y-1729181D01*
X9845243Y-1713534D01*
X9849916Y-1697278D01*
X9852761Y-1680616D01*
X9853676Y-1663700D01*
X9852761Y-1646783D01*
X9849916Y-1630121D01*
X9845243Y-1613865D01*
X9838740Y-1598218D01*
X9830562Y-1583436D01*
X9820757Y-1569618D01*
X9809480Y-1557020D01*
X9796881Y-1545742D01*
X9783064Y-1535938D01*
X9768281Y-1527759D01*
X9752634Y-1521256D01*
X9736378Y-1516583D01*
X9719716Y-1513738D01*
X9702800Y-1512824D01*
X9685883Y-1513738D01*
X9669221Y-1516583D01*
X9652965Y-1521256D01*
X9637318Y-1527759D01*
X9622536Y-1535938D01*
X9608718Y-1545742D01*
X9596120Y-1557020D01*
X9584842Y-1569618D01*
X9575038Y-1583436D01*
X9566859Y-1598218D01*
X9560356Y-1613865D01*
X9555683Y-1630121D01*
X9552838Y-1646783D01*
X9551924Y-1663700D01*
X9552838Y-1680616D01*
X9555683Y-1697278D01*
X9560356Y-1713534D01*
X9566859Y-1729181D01*
X9575038Y-1743964D01*
X9584842Y-1757781D01*
X9596120Y-1770380D01*
X9608718Y-1781657D01*
X9622536Y-1791462D01*
X9637318Y-1799640D01*
X9652965Y-1806143D01*
X9669221Y-1810816D01*
X9685883Y-1813661D01*
G37*
G36*
X2209800Y-1814575D02*
G01*
X2226716Y-1813661D01*
X2243378Y-1810816D01*
X2259634Y-1806143D01*
X2275281Y-1799640D01*
X2290064Y-1791462D01*
X2303881Y-1781657D01*
X2316480Y-1770380D01*
X2327757Y-1757781D01*
X2337562Y-1743964D01*
X2345740Y-1729181D01*
X2352243Y-1713534D01*
X2356916Y-1697278D01*
X2359761Y-1680616D01*
X2360676Y-1663700D01*
X2359761Y-1646783D01*
X2356916Y-1630121D01*
X2352243Y-1613865D01*
X2345740Y-1598218D01*
X2337562Y-1583436D01*
X2327757Y-1569618D01*
X2316480Y-1557020D01*
X2303881Y-1545742D01*
X2290064Y-1535938D01*
X2275281Y-1527759D01*
X2259634Y-1521256D01*
X2243378Y-1516583D01*
X2226716Y-1513738D01*
X2209800Y-1512824D01*
X2192883Y-1513738D01*
X2176221Y-1516583D01*
X2159965Y-1521256D01*
X2144318Y-1527759D01*
X2129536Y-1535938D01*
X2115718Y-1545742D01*
X2103120Y-1557020D01*
X2091842Y-1569618D01*
X2082038Y-1583436D01*
X2073859Y-1598218D01*
X2067356Y-1613865D01*
X2062683Y-1630121D01*
X2059838Y-1646783D01*
X2058924Y-1663700D01*
X2059838Y-1680616D01*
X2062683Y-1697278D01*
X2067356Y-1713534D01*
X2073859Y-1729181D01*
X2082038Y-1743964D01*
X2091842Y-1757781D01*
X2103120Y-1770380D01*
X2115718Y-1781657D01*
X2129536Y-1791462D01*
X2144318Y-1799640D01*
X2159965Y-1806143D01*
X2176221Y-1810816D01*
X2192883Y-1813661D01*
G37*
G36*
X5533796Y-1765706D02*
G01*
X5547410Y-1765249D01*
X5560872Y-1763014D01*
X5573877Y-1758950D01*
X5586272Y-1753209D01*
X5597753Y-1745894D01*
X5608167Y-1737106D01*
X5617311Y-1726946D01*
X5625033Y-1715719D01*
X5631180Y-1703578D01*
X5635650Y-1690674D01*
X5638393Y-1677314D01*
X5639308Y-1663700D01*
X5638393Y-1650085D01*
X5635650Y-1636725D01*
X5631180Y-1623822D01*
X5625033Y-1611680D01*
X5617311Y-1600454D01*
X5608167Y-1590294D01*
X5597753Y-1581505D01*
X5586272Y-1574190D01*
X5573877Y-1568450D01*
X5560872Y-1564386D01*
X5547410Y-1562150D01*
X5533796Y-1561693D01*
X5520232Y-1563014D01*
X5506974Y-1566214D01*
X5494223Y-1571091D01*
X5482285Y-1577644D01*
X5471312Y-1585722D01*
X5461508Y-1595221D01*
X5453024Y-1605940D01*
X5446064Y-1617675D01*
X5440781Y-1630222D01*
X5437174Y-1643380D01*
X5435346Y-1656892D01*
X5435346Y-1670507D01*
X5437174Y-1684020D01*
X5440781Y-1697177D01*
X5446064Y-1709724D01*
X5453024Y-1721459D01*
X5461508Y-1732178D01*
X5471312Y-1741678D01*
X5482285Y-1749755D01*
X5494223Y-1756308D01*
X5506974Y-1761185D01*
X5520232Y-1764385D01*
G37*
G36*
X4263796Y-1765706D02*
G01*
X4277410Y-1765249D01*
X4290872Y-1763014D01*
X4303877Y-1758950D01*
X4316272Y-1753209D01*
X4327753Y-1745894D01*
X4338167Y-1737106D01*
X4347311Y-1726946D01*
X4355033Y-1715719D01*
X4361180Y-1703578D01*
X4365650Y-1690674D01*
X4368393Y-1677314D01*
X4369308Y-1663700D01*
X4368393Y-1650085D01*
X4365650Y-1636725D01*
X4361180Y-1623822D01*
X4355033Y-1611680D01*
X4347311Y-1600454D01*
X4338167Y-1590294D01*
X4327753Y-1581505D01*
X4316272Y-1574190D01*
X4303877Y-1568450D01*
X4290872Y-1564386D01*
X4277410Y-1562150D01*
X4263796Y-1561693D01*
X4250232Y-1563014D01*
X4236974Y-1566214D01*
X4224223Y-1571091D01*
X4212285Y-1577644D01*
X4201312Y-1585722D01*
X4191508Y-1595221D01*
X4183024Y-1605940D01*
X4176064Y-1617675D01*
X4170781Y-1630222D01*
X4167174Y-1643380D01*
X4165346Y-1656892D01*
X4165346Y-1670507D01*
X4167174Y-1684020D01*
X4170781Y-1697177D01*
X4176064Y-1709724D01*
X4183024Y-1721459D01*
X4191508Y-1732178D01*
X4201312Y-1741678D01*
X4212285Y-1749755D01*
X4224223Y-1756308D01*
X4236974Y-1761185D01*
X4250232Y-1764385D01*
G37*
G36*
X5279796Y-1765706D02*
G01*
X5293410Y-1765249D01*
X5306872Y-1763014D01*
X5319877Y-1758950D01*
X5332272Y-1753209D01*
X5343753Y-1745894D01*
X5354167Y-1737106D01*
X5363311Y-1726946D01*
X5371033Y-1715719D01*
X5377180Y-1703578D01*
X5381650Y-1690674D01*
X5384393Y-1677314D01*
X5385308Y-1663700D01*
X5384393Y-1650085D01*
X5381650Y-1636725D01*
X5377180Y-1623822D01*
X5371033Y-1611680D01*
X5363311Y-1600454D01*
X5354167Y-1590294D01*
X5343753Y-1581505D01*
X5332272Y-1574190D01*
X5319877Y-1568450D01*
X5306872Y-1564386D01*
X5293410Y-1562150D01*
X5279796Y-1561693D01*
X5266232Y-1563014D01*
X5252974Y-1566214D01*
X5240223Y-1571091D01*
X5228285Y-1577644D01*
X5217312Y-1585722D01*
X5207508Y-1595221D01*
X5199024Y-1605940D01*
X5192064Y-1617675D01*
X5186781Y-1630222D01*
X5183174Y-1643380D01*
X5181346Y-1656892D01*
X5181346Y-1670507D01*
X5183174Y-1684020D01*
X5186781Y-1697177D01*
X5192064Y-1709724D01*
X5199024Y-1721459D01*
X5207508Y-1732178D01*
X5217312Y-1741678D01*
X5228285Y-1749755D01*
X5240223Y-1756308D01*
X5252974Y-1761185D01*
X5266232Y-1764385D01*
G37*
G36*
X6041796Y-1765706D02*
G01*
X6055410Y-1765249D01*
X6068872Y-1763014D01*
X6081877Y-1758950D01*
X6094272Y-1753209D01*
X6105753Y-1745894D01*
X6116167Y-1737106D01*
X6125311Y-1726946D01*
X6133033Y-1715719D01*
X6139180Y-1703578D01*
X6143650Y-1690674D01*
X6146393Y-1677314D01*
X6147308Y-1663700D01*
X6146393Y-1650085D01*
X6143650Y-1636725D01*
X6139180Y-1623822D01*
X6133033Y-1611680D01*
X6125311Y-1600454D01*
X6116167Y-1590294D01*
X6105753Y-1581505D01*
X6094272Y-1574190D01*
X6081877Y-1568450D01*
X6068872Y-1564386D01*
X6055410Y-1562150D01*
X6041796Y-1561693D01*
X6028232Y-1563014D01*
X6014974Y-1566214D01*
X6002223Y-1571091D01*
X5990285Y-1577644D01*
X5979312Y-1585722D01*
X5969508Y-1595221D01*
X5961024Y-1605940D01*
X5954064Y-1617675D01*
X5948781Y-1630222D01*
X5945174Y-1643380D01*
X5943346Y-1656892D01*
X5943346Y-1670507D01*
X5945174Y-1684020D01*
X5948781Y-1697177D01*
X5954064Y-1709724D01*
X5961024Y-1721459D01*
X5969508Y-1732178D01*
X5979312Y-1741678D01*
X5990285Y-1749755D01*
X6002223Y-1756308D01*
X6014974Y-1761185D01*
X6028232Y-1764385D01*
G37*
G36*
X4517796Y-1765706D02*
G01*
X4531410Y-1765249D01*
X4544872Y-1763014D01*
X4557877Y-1758950D01*
X4570272Y-1753209D01*
X4581753Y-1745894D01*
X4592167Y-1737106D01*
X4601311Y-1726946D01*
X4609033Y-1715719D01*
X4615180Y-1703578D01*
X4619650Y-1690674D01*
X4622393Y-1677314D01*
X4623308Y-1663700D01*
X4622393Y-1650085D01*
X4619650Y-1636725D01*
X4615180Y-1623822D01*
X4609033Y-1611680D01*
X4601311Y-1600454D01*
X4592167Y-1590294D01*
X4581753Y-1581505D01*
X4570272Y-1574190D01*
X4557877Y-1568450D01*
X4544872Y-1564386D01*
X4531410Y-1562150D01*
X4517796Y-1561693D01*
X4504232Y-1563014D01*
X4490974Y-1566214D01*
X4478223Y-1571091D01*
X4466285Y-1577644D01*
X4455312Y-1585722D01*
X4445508Y-1595221D01*
X4437024Y-1605940D01*
X4430064Y-1617675D01*
X4424781Y-1630222D01*
X4421174Y-1643380D01*
X4419346Y-1656892D01*
X4419346Y-1670507D01*
X4421174Y-1684020D01*
X4424781Y-1697177D01*
X4430064Y-1709724D01*
X4437024Y-1721459D01*
X4445508Y-1732178D01*
X4455312Y-1741678D01*
X4466285Y-1749755D01*
X4478223Y-1756308D01*
X4490974Y-1761185D01*
X4504232Y-1764385D01*
G37*
G36*
X3501796Y-1765706D02*
G01*
X3515410Y-1765249D01*
X3528872Y-1763014D01*
X3541877Y-1758950D01*
X3554272Y-1753209D01*
X3565753Y-1745894D01*
X3576167Y-1737106D01*
X3585311Y-1726946D01*
X3593033Y-1715719D01*
X3599179Y-1703578D01*
X3603650Y-1690674D01*
X3606393Y-1677314D01*
X3607308Y-1663700D01*
X3606393Y-1650085D01*
X3603650Y-1636725D01*
X3599179Y-1623822D01*
X3593033Y-1611680D01*
X3585311Y-1600454D01*
X3576167Y-1590294D01*
X3565753Y-1581505D01*
X3554272Y-1574190D01*
X3541877Y-1568450D01*
X3528872Y-1564386D01*
X3515410Y-1562150D01*
X3501796Y-1561693D01*
X3488232Y-1563014D01*
X3474974Y-1566214D01*
X3462223Y-1571091D01*
X3450285Y-1577644D01*
X3439312Y-1585722D01*
X3429508Y-1595221D01*
X3421024Y-1605940D01*
X3414064Y-1617675D01*
X3408781Y-1630222D01*
X3405174Y-1643380D01*
X3403346Y-1656892D01*
X3403346Y-1670507D01*
X3405174Y-1684020D01*
X3408781Y-1697177D01*
X3414064Y-1709724D01*
X3421024Y-1721459D01*
X3429508Y-1732178D01*
X3439312Y-1741678D01*
X3450285Y-1749755D01*
X3462223Y-1756308D01*
X3474974Y-1761185D01*
X3488232Y-1764385D01*
G37*
G36*
X5025796Y-1765706D02*
G01*
X5039410Y-1765249D01*
X5052872Y-1763014D01*
X5065877Y-1758950D01*
X5078272Y-1753209D01*
X5089753Y-1745894D01*
X5100167Y-1737106D01*
X5109311Y-1726946D01*
X5117033Y-1715719D01*
X5123180Y-1703578D01*
X5127650Y-1690674D01*
X5130393Y-1677314D01*
X5131308Y-1663700D01*
X5130393Y-1650085D01*
X5127650Y-1636725D01*
X5123180Y-1623822D01*
X5117033Y-1611680D01*
X5109311Y-1600454D01*
X5100167Y-1590294D01*
X5089753Y-1581505D01*
X5078272Y-1574190D01*
X5065877Y-1568450D01*
X5052872Y-1564386D01*
X5039410Y-1562150D01*
X5025796Y-1561693D01*
X5012232Y-1563014D01*
X4998974Y-1566214D01*
X4986223Y-1571091D01*
X4974285Y-1577644D01*
X4963312Y-1585722D01*
X4953508Y-1595221D01*
X4945024Y-1605940D01*
X4938064Y-1617675D01*
X4932781Y-1630222D01*
X4929174Y-1643380D01*
X4927346Y-1656892D01*
X4927346Y-1670507D01*
X4929174Y-1684020D01*
X4932781Y-1697177D01*
X4938064Y-1709724D01*
X4945024Y-1721459D01*
X4953508Y-1732178D01*
X4963312Y-1741678D01*
X4974285Y-1749755D01*
X4986223Y-1756308D01*
X4998974Y-1761185D01*
X5012232Y-1764385D01*
G37*
G36*
X4009796Y-1765706D02*
G01*
X4023410Y-1765249D01*
X4036872Y-1763014D01*
X4049877Y-1758950D01*
X4062272Y-1753209D01*
X4073753Y-1745894D01*
X4084167Y-1737106D01*
X4093311Y-1726946D01*
X4101033Y-1715719D01*
X4107179Y-1703578D01*
X4111650Y-1690674D01*
X4114393Y-1677314D01*
X4115308Y-1663700D01*
X4114393Y-1650085D01*
X4111650Y-1636725D01*
X4107179Y-1623822D01*
X4101033Y-1611680D01*
X4093311Y-1600454D01*
X4084167Y-1590294D01*
X4073753Y-1581505D01*
X4062272Y-1574190D01*
X4049877Y-1568450D01*
X4036872Y-1564386D01*
X4023410Y-1562150D01*
X4009796Y-1561693D01*
X3996232Y-1563014D01*
X3982974Y-1566214D01*
X3970223Y-1571091D01*
X3958285Y-1577644D01*
X3947312Y-1585722D01*
X3937508Y-1595221D01*
X3929024Y-1605940D01*
X3922064Y-1617675D01*
X3916781Y-1630222D01*
X3913174Y-1643380D01*
X3911346Y-1656892D01*
X3911346Y-1670507D01*
X3913174Y-1684020D01*
X3916781Y-1697177D01*
X3922064Y-1709724D01*
X3929024Y-1721459D01*
X3937508Y-1732178D01*
X3947312Y-1741678D01*
X3958285Y-1749755D01*
X3970223Y-1756308D01*
X3982974Y-1761185D01*
X3996232Y-1764385D01*
G37*
G36*
X4771796Y-1765706D02*
G01*
X4785410Y-1765249D01*
X4798872Y-1763014D01*
X4811877Y-1758950D01*
X4824272Y-1753209D01*
X4835753Y-1745894D01*
X4846167Y-1737106D01*
X4855311Y-1726946D01*
X4863033Y-1715719D01*
X4869180Y-1703578D01*
X4873650Y-1690674D01*
X4876393Y-1677314D01*
X4877308Y-1663700D01*
X4876393Y-1650085D01*
X4873650Y-1636725D01*
X4869180Y-1623822D01*
X4863033Y-1611680D01*
X4855311Y-1600454D01*
X4846167Y-1590294D01*
X4835753Y-1581505D01*
X4824272Y-1574190D01*
X4811877Y-1568450D01*
X4798872Y-1564386D01*
X4785410Y-1562150D01*
X4771796Y-1561693D01*
X4758232Y-1563014D01*
X4744974Y-1566214D01*
X4732223Y-1571091D01*
X4720285Y-1577644D01*
X4709312Y-1585722D01*
X4699508Y-1595221D01*
X4691024Y-1605940D01*
X4684064Y-1617675D01*
X4678781Y-1630222D01*
X4675174Y-1643380D01*
X4673346Y-1656892D01*
X4673346Y-1670507D01*
X4675174Y-1684020D01*
X4678781Y-1697177D01*
X4684064Y-1709724D01*
X4691024Y-1721459D01*
X4699508Y-1732178D01*
X4709312Y-1741678D01*
X4720285Y-1749755D01*
X4732223Y-1756308D01*
X4744974Y-1761185D01*
X4758232Y-1764385D01*
G37*
G36*
X2993796Y-1765706D02*
G01*
X3007410Y-1765249D01*
X3020872Y-1763014D01*
X3033877Y-1758950D01*
X3046272Y-1753209D01*
X3057753Y-1745894D01*
X3068167Y-1737106D01*
X3077311Y-1726946D01*
X3085033Y-1715719D01*
X3091180Y-1703578D01*
X3095650Y-1690674D01*
X3098393Y-1677314D01*
X3099308Y-1663700D01*
X3098393Y-1650085D01*
X3095650Y-1636725D01*
X3091180Y-1623822D01*
X3085033Y-1611680D01*
X3077311Y-1600454D01*
X3068167Y-1590294D01*
X3057753Y-1581505D01*
X3046272Y-1574190D01*
X3033877Y-1568450D01*
X3020872Y-1564386D01*
X3007410Y-1562150D01*
X2993796Y-1561693D01*
X2980232Y-1563014D01*
X2966974Y-1566214D01*
X2954223Y-1571091D01*
X2942285Y-1577644D01*
X2931312Y-1585722D01*
X2921508Y-1595221D01*
X2913024Y-1605940D01*
X2906064Y-1617675D01*
X2900781Y-1630222D01*
X2897174Y-1643380D01*
X2895346Y-1656892D01*
X2895346Y-1670507D01*
X2897174Y-1684020D01*
X2900781Y-1697177D01*
X2906064Y-1709724D01*
X2913024Y-1721459D01*
X2921508Y-1732178D01*
X2931312Y-1741678D01*
X2942285Y-1749755D01*
X2954223Y-1756308D01*
X2966974Y-1761185D01*
X2980232Y-1764385D01*
G37*
G36*
X5787796Y-1765706D02*
G01*
X5801410Y-1765249D01*
X5814872Y-1763014D01*
X5827877Y-1758950D01*
X5840272Y-1753209D01*
X5851753Y-1745894D01*
X5862167Y-1737106D01*
X5871311Y-1726946D01*
X5879033Y-1715719D01*
X5885180Y-1703578D01*
X5889650Y-1690674D01*
X5892393Y-1677314D01*
X5893308Y-1663700D01*
X5892393Y-1650085D01*
X5889650Y-1636725D01*
X5885180Y-1623822D01*
X5879033Y-1611680D01*
X5871311Y-1600454D01*
X5862167Y-1590294D01*
X5851753Y-1581505D01*
X5840272Y-1574190D01*
X5827877Y-1568450D01*
X5814872Y-1564386D01*
X5801410Y-1562150D01*
X5787796Y-1561693D01*
X5774232Y-1563014D01*
X5760974Y-1566214D01*
X5748223Y-1571091D01*
X5736285Y-1577644D01*
X5725312Y-1585722D01*
X5715508Y-1595221D01*
X5707024Y-1605940D01*
X5700064Y-1617675D01*
X5694781Y-1630222D01*
X5691174Y-1643380D01*
X5689346Y-1656892D01*
X5689346Y-1670507D01*
X5691174Y-1684020D01*
X5694781Y-1697177D01*
X5700064Y-1709724D01*
X5707024Y-1721459D01*
X5715508Y-1732178D01*
X5725312Y-1741678D01*
X5736285Y-1749755D01*
X5748223Y-1756308D01*
X5760974Y-1761185D01*
X5774232Y-1764385D01*
G37*
G36*
X6295796Y-1765706D02*
G01*
X6309410Y-1765249D01*
X6322872Y-1763014D01*
X6335877Y-1758950D01*
X6348272Y-1753209D01*
X6359753Y-1745894D01*
X6370167Y-1737106D01*
X6379311Y-1726946D01*
X6387033Y-1715719D01*
X6393180Y-1703578D01*
X6397650Y-1690674D01*
X6400393Y-1677314D01*
X6401308Y-1663700D01*
X6400393Y-1650085D01*
X6397650Y-1636725D01*
X6393180Y-1623822D01*
X6387033Y-1611680D01*
X6379311Y-1600454D01*
X6370167Y-1590294D01*
X6359753Y-1581505D01*
X6348272Y-1574190D01*
X6335877Y-1568450D01*
X6322872Y-1564386D01*
X6309410Y-1562150D01*
X6295796Y-1561693D01*
X6282232Y-1563014D01*
X6268974Y-1566214D01*
X6256223Y-1571091D01*
X6244285Y-1577644D01*
X6233312Y-1585722D01*
X6223508Y-1595221D01*
X6215024Y-1605940D01*
X6208064Y-1617675D01*
X6202781Y-1630222D01*
X6199174Y-1643380D01*
X6197346Y-1656892D01*
X6197346Y-1670507D01*
X6199174Y-1684020D01*
X6202781Y-1697177D01*
X6208064Y-1709724D01*
X6215024Y-1721459D01*
X6223508Y-1732178D01*
X6233312Y-1741678D01*
X6244285Y-1749755D01*
X6256223Y-1756308D01*
X6268974Y-1761185D01*
X6282232Y-1764385D01*
G37*
G36*
X3714750Y-1755495D02*
G01*
X3714750Y-1708150D01*
X3667404Y-1708150D01*
X3668064Y-1709724D01*
X3675024Y-1721459D01*
X3683508Y-1732178D01*
X3693312Y-1741678D01*
X3704285Y-1749755D01*
G37*
G36*
X2698750Y-1755495D02*
G01*
X2698750Y-1708150D01*
X2651404Y-1708150D01*
X2652064Y-1709724D01*
X2659024Y-1721459D01*
X2667508Y-1732178D01*
X2677312Y-1741678D01*
X2688285Y-1749755D01*
G37*
G36*
X3206750Y-1755495D02*
G01*
X3206750Y-1708150D01*
X3159404Y-1708150D01*
X3160064Y-1709724D01*
X3167024Y-1721459D01*
X3175508Y-1732178D01*
X3185312Y-1741678D01*
X3196285Y-1749755D01*
G37*
G36*
X6508750Y-1755495D02*
G01*
X6508750Y-1708150D01*
X6461404Y-1708150D01*
X6462064Y-1709724D01*
X6469024Y-1721459D01*
X6477508Y-1732178D01*
X6487312Y-1741678D01*
X6498285Y-1749755D01*
G37*
G36*
X2787650Y-1755343D02*
G01*
X2792272Y-1753209D01*
X2803753Y-1745894D01*
X2814167Y-1737106D01*
X2823311Y-1726946D01*
X2831033Y-1715719D01*
X2834843Y-1708150D01*
X2787650Y-1708150D01*
G37*
G36*
X3803650Y-1755343D02*
G01*
X3808272Y-1753209D01*
X3819753Y-1745894D01*
X3830167Y-1737106D01*
X3839311Y-1726946D01*
X3847033Y-1715719D01*
X3850843Y-1708150D01*
X3803650Y-1708150D01*
G37*
G36*
X3295650Y-1755343D02*
G01*
X3300272Y-1753209D01*
X3311753Y-1745894D01*
X3322167Y-1737106D01*
X3331311Y-1726946D01*
X3339033Y-1715719D01*
X3342843Y-1708150D01*
X3295650Y-1708150D01*
G37*
G36*
X6597650Y-1755343D02*
G01*
X6602272Y-1753209D01*
X6613753Y-1745894D01*
X6624167Y-1737106D01*
X6633311Y-1726946D01*
X6641033Y-1715719D01*
X6644843Y-1708150D01*
X6597650Y-1708150D01*
G37*
G36*
X2787650Y-1619250D02*
G01*
X2834843Y-1619250D01*
X2831033Y-1611680D01*
X2823311Y-1600454D01*
X2814167Y-1590294D01*
X2803753Y-1581505D01*
X2792272Y-1574190D01*
X2787650Y-1572056D01*
G37*
G36*
X3295650Y-1619250D02*
G01*
X3342843Y-1619250D01*
X3339033Y-1611680D01*
X3331311Y-1600454D01*
X3322167Y-1590294D01*
X3311753Y-1581505D01*
X3300272Y-1574190D01*
X3295650Y-1572056D01*
G37*
G36*
X3803650Y-1619250D02*
G01*
X3850843Y-1619250D01*
X3847033Y-1611680D01*
X3839311Y-1600454D01*
X3830167Y-1590294D01*
X3819753Y-1581505D01*
X3808272Y-1574190D01*
X3803650Y-1572056D01*
G37*
G36*
X6597650Y-1619250D02*
G01*
X6644843Y-1619250D01*
X6641033Y-1611680D01*
X6633311Y-1600454D01*
X6624167Y-1590294D01*
X6613753Y-1581505D01*
X6602272Y-1574190D01*
X6597650Y-1572056D01*
G37*
G36*
X3667404Y-1619250D02*
G01*
X3714750Y-1619250D01*
X3714750Y-1571904D01*
X3704285Y-1577644D01*
X3693312Y-1585722D01*
X3683508Y-1595221D01*
X3675024Y-1605940D01*
X3668064Y-1617675D01*
G37*
G36*
X6461404Y-1619250D02*
G01*
X6508750Y-1619250D01*
X6508750Y-1571904D01*
X6498285Y-1577644D01*
X6487312Y-1585722D01*
X6477508Y-1595221D01*
X6469024Y-1605940D01*
X6462064Y-1617675D01*
G37*
G36*
X3159404Y-1619250D02*
G01*
X3206750Y-1619250D01*
X3206750Y-1571904D01*
X3196285Y-1577644D01*
X3185312Y-1585722D01*
X3175508Y-1595221D01*
X3167024Y-1605940D01*
X3160064Y-1617675D01*
G37*
G36*
X2651404Y-1619250D02*
G01*
X2698750Y-1619250D01*
X2698750Y-1571904D01*
X2688285Y-1577644D01*
X2677312Y-1585722D01*
X2667508Y-1595221D01*
X2659024Y-1605940D01*
X2652064Y-1617675D01*
G37*
G36*
X4336186Y-749554D02*
G01*
X4350613Y-749554D01*
X4364888Y-747776D01*
X4378858Y-744169D01*
X4392269Y-738886D01*
X4404918Y-731926D01*
X4416552Y-723442D01*
X4427067Y-713587D01*
X4436262Y-702462D01*
X4443984Y-690321D01*
X4450130Y-677265D01*
X4454601Y-663549D01*
X4457293Y-649376D01*
X4458208Y-635000D01*
X4457293Y-620623D01*
X4454601Y-606450D01*
X4450130Y-592734D01*
X4443984Y-579678D01*
X4436262Y-567537D01*
X4427067Y-556412D01*
X4416552Y-546557D01*
X4404918Y-538073D01*
X4392269Y-531114D01*
X4378858Y-525830D01*
X4364888Y-522224D01*
X4350613Y-520446D01*
X4336186Y-520446D01*
X4321911Y-522224D01*
X4307941Y-525830D01*
X4294530Y-531114D01*
X4281881Y-538073D01*
X4270248Y-546557D01*
X4259732Y-556412D01*
X4250537Y-567537D01*
X4242816Y-579678D01*
X4236669Y-592734D01*
X4232198Y-606450D01*
X4229506Y-620623D01*
X4228592Y-635000D01*
X4229506Y-649376D01*
X4232198Y-663549D01*
X4236669Y-677265D01*
X4242816Y-690321D01*
X4250537Y-702462D01*
X4259732Y-713587D01*
X4270248Y-723442D01*
X4281881Y-731926D01*
X4294530Y-738886D01*
X4307941Y-744169D01*
X4321911Y-747776D01*
G37*
G36*
X5733186Y-749554D02*
G01*
X5747613Y-749554D01*
X5761888Y-747776D01*
X5775858Y-744169D01*
X5789269Y-738886D01*
X5801918Y-731926D01*
X5813552Y-723442D01*
X5824067Y-713587D01*
X5833262Y-702462D01*
X5840984Y-690321D01*
X5847130Y-677265D01*
X5851601Y-663549D01*
X5854293Y-649376D01*
X5855208Y-635000D01*
X5854293Y-620623D01*
X5851601Y-606450D01*
X5847130Y-592734D01*
X5840984Y-579678D01*
X5833262Y-567537D01*
X5824067Y-556412D01*
X5813552Y-546557D01*
X5801918Y-538073D01*
X5789269Y-531114D01*
X5775858Y-525830D01*
X5761888Y-522224D01*
X5747613Y-520446D01*
X5733186Y-520446D01*
X5718911Y-522224D01*
X5704941Y-525830D01*
X5691530Y-531114D01*
X5678881Y-538073D01*
X5667248Y-546557D01*
X5656732Y-556412D01*
X5647537Y-567537D01*
X5639816Y-579678D01*
X5633669Y-592734D01*
X5629198Y-606450D01*
X5626506Y-620623D01*
X5625592Y-635000D01*
X5626506Y-649376D01*
X5629198Y-663549D01*
X5633669Y-677265D01*
X5639816Y-690321D01*
X5647537Y-702462D01*
X5656732Y-713587D01*
X5667248Y-723442D01*
X5678881Y-731926D01*
X5691530Y-738886D01*
X5704941Y-744169D01*
X5718911Y-747776D01*
G37*
G36*
X5987186Y-749554D02*
G01*
X6001613Y-749554D01*
X6015888Y-747776D01*
X6029858Y-744169D01*
X6043269Y-738886D01*
X6055918Y-731926D01*
X6067552Y-723442D01*
X6078067Y-713587D01*
X6087262Y-702462D01*
X6094984Y-690321D01*
X6101130Y-677265D01*
X6105601Y-663549D01*
X6108293Y-649376D01*
X6109208Y-635000D01*
X6108293Y-620623D01*
X6105601Y-606450D01*
X6101130Y-592734D01*
X6094984Y-579678D01*
X6087262Y-567537D01*
X6078067Y-556412D01*
X6067552Y-546557D01*
X6055918Y-538073D01*
X6043269Y-531114D01*
X6029858Y-525830D01*
X6015888Y-522224D01*
X6001613Y-520446D01*
X5987186Y-520446D01*
X5972911Y-522224D01*
X5958941Y-525830D01*
X5945530Y-531114D01*
X5932881Y-538073D01*
X5921248Y-546557D01*
X5910732Y-556412D01*
X5901537Y-567537D01*
X5893816Y-579678D01*
X5887669Y-592734D01*
X5883198Y-606450D01*
X5880506Y-620623D01*
X5879592Y-635000D01*
X5880506Y-649376D01*
X5883198Y-663549D01*
X5887669Y-677265D01*
X5893816Y-690321D01*
X5901537Y-702462D01*
X5910732Y-713587D01*
X5921248Y-723442D01*
X5932881Y-731926D01*
X5945530Y-738886D01*
X5958941Y-744169D01*
X5972911Y-747776D01*
G37*
G36*
X4082186Y-749554D02*
G01*
X4096613Y-749554D01*
X4110888Y-747776D01*
X4124858Y-744169D01*
X4138269Y-738886D01*
X4150918Y-731926D01*
X4162551Y-723442D01*
X4173067Y-713587D01*
X4182262Y-702462D01*
X4189984Y-690321D01*
X4196130Y-677265D01*
X4200601Y-663549D01*
X4203293Y-649376D01*
X4204208Y-635000D01*
X4203293Y-620623D01*
X4200601Y-606450D01*
X4196130Y-592734D01*
X4189984Y-579678D01*
X4182262Y-567537D01*
X4173067Y-556412D01*
X4162551Y-546557D01*
X4150918Y-538073D01*
X4138269Y-531114D01*
X4124858Y-525830D01*
X4110888Y-522224D01*
X4096613Y-520446D01*
X4082186Y-520446D01*
X4067911Y-522224D01*
X4053941Y-525830D01*
X4040530Y-531114D01*
X4027881Y-538073D01*
X4016248Y-546557D01*
X4005732Y-556412D01*
X3996537Y-567537D01*
X3988815Y-579678D01*
X3982669Y-592734D01*
X3978198Y-606450D01*
X3975506Y-620623D01*
X3974592Y-635000D01*
X3975506Y-649376D01*
X3978198Y-663549D01*
X3982669Y-677265D01*
X3988815Y-690321D01*
X3996537Y-702462D01*
X4005732Y-713587D01*
X4016248Y-723442D01*
X4027881Y-731926D01*
X4040530Y-738886D01*
X4053941Y-744169D01*
X4067911Y-747776D01*
G37*
G36*
X8527186Y-749554D02*
G01*
X8541613Y-749554D01*
X8555888Y-747776D01*
X8569858Y-744169D01*
X8583269Y-738886D01*
X8595918Y-731926D01*
X8607552Y-723442D01*
X8618067Y-713587D01*
X8627262Y-702462D01*
X8634984Y-690321D01*
X8641130Y-677265D01*
X8645601Y-663549D01*
X8648293Y-649376D01*
X8649208Y-635000D01*
X8648293Y-620623D01*
X8645601Y-606450D01*
X8641130Y-592734D01*
X8634984Y-579678D01*
X8627262Y-567537D01*
X8618067Y-556412D01*
X8607552Y-546557D01*
X8595918Y-538073D01*
X8583269Y-531114D01*
X8569858Y-525830D01*
X8555888Y-522224D01*
X8541613Y-520446D01*
X8527186Y-520446D01*
X8512911Y-522224D01*
X8498941Y-525830D01*
X8485530Y-531114D01*
X8472881Y-538073D01*
X8461248Y-546557D01*
X8450732Y-556412D01*
X8441537Y-567537D01*
X8433816Y-579678D01*
X8427669Y-592734D01*
X8423198Y-606450D01*
X8420506Y-620623D01*
X8419592Y-635000D01*
X8420506Y-649376D01*
X8423198Y-663549D01*
X8427669Y-677265D01*
X8433816Y-690321D01*
X8441537Y-702462D01*
X8450732Y-713587D01*
X8461248Y-723442D01*
X8472881Y-731926D01*
X8485530Y-738886D01*
X8498941Y-744169D01*
X8512911Y-747776D01*
G37*
G36*
X6241186Y-749554D02*
G01*
X6255613Y-749554D01*
X6269888Y-747776D01*
X6283858Y-744169D01*
X6297269Y-738886D01*
X6309918Y-731926D01*
X6321552Y-723442D01*
X6332067Y-713587D01*
X6341262Y-702462D01*
X6348984Y-690321D01*
X6355130Y-677265D01*
X6359601Y-663549D01*
X6362293Y-649376D01*
X6363208Y-635000D01*
X6362293Y-620623D01*
X6359601Y-606450D01*
X6355130Y-592734D01*
X6348984Y-579678D01*
X6341262Y-567537D01*
X6332067Y-556412D01*
X6321552Y-546557D01*
X6309918Y-538073D01*
X6297269Y-531114D01*
X6283858Y-525830D01*
X6269888Y-522224D01*
X6255613Y-520446D01*
X6241186Y-520446D01*
X6226911Y-522224D01*
X6212941Y-525830D01*
X6199530Y-531114D01*
X6186881Y-538073D01*
X6175248Y-546557D01*
X6164732Y-556412D01*
X6155537Y-567537D01*
X6147816Y-579678D01*
X6141669Y-592734D01*
X6137198Y-606450D01*
X6134506Y-620623D01*
X6133592Y-635000D01*
X6134506Y-649376D01*
X6137198Y-663549D01*
X6141669Y-677265D01*
X6147816Y-690321D01*
X6155537Y-702462D01*
X6164732Y-713587D01*
X6175248Y-723442D01*
X6186881Y-731926D01*
X6199530Y-738886D01*
X6212941Y-744169D01*
X6226911Y-747776D01*
G37*
G36*
X8273186Y-749554D02*
G01*
X8287613Y-749554D01*
X8301888Y-747776D01*
X8315858Y-744169D01*
X8329269Y-738886D01*
X8341918Y-731926D01*
X8353552Y-723442D01*
X8364067Y-713587D01*
X8373262Y-702462D01*
X8380984Y-690321D01*
X8387130Y-677265D01*
X8391601Y-663549D01*
X8394293Y-649376D01*
X8395208Y-635000D01*
X8394293Y-620623D01*
X8391601Y-606450D01*
X8387130Y-592734D01*
X8380984Y-579678D01*
X8373262Y-567537D01*
X8364067Y-556412D01*
X8353552Y-546557D01*
X8341918Y-538073D01*
X8329269Y-531114D01*
X8315858Y-525830D01*
X8301888Y-522224D01*
X8287613Y-520446D01*
X8273186Y-520446D01*
X8258911Y-522224D01*
X8244941Y-525830D01*
X8231530Y-531114D01*
X8218881Y-538073D01*
X8207248Y-546557D01*
X8196732Y-556412D01*
X8187537Y-567537D01*
X8179816Y-579678D01*
X8173669Y-592734D01*
X8169198Y-606450D01*
X8166506Y-620623D01*
X8165592Y-635000D01*
X8166506Y-649376D01*
X8169198Y-663549D01*
X8173669Y-677265D01*
X8179816Y-690321D01*
X8187537Y-702462D01*
X8196732Y-713587D01*
X8207248Y-723442D01*
X8218881Y-731926D01*
X8231530Y-738886D01*
X8244941Y-744169D01*
X8258911Y-747776D01*
G37*
G36*
X5225186Y-749554D02*
G01*
X5239613Y-749554D01*
X5253888Y-747776D01*
X5267858Y-744169D01*
X5281269Y-738886D01*
X5293918Y-731926D01*
X5305552Y-723442D01*
X5316067Y-713587D01*
X5325262Y-702462D01*
X5332984Y-690321D01*
X5339130Y-677265D01*
X5343601Y-663549D01*
X5346293Y-649376D01*
X5347208Y-635000D01*
X5346293Y-620623D01*
X5343601Y-606450D01*
X5339130Y-592734D01*
X5332984Y-579678D01*
X5325262Y-567537D01*
X5316067Y-556412D01*
X5305552Y-546557D01*
X5293918Y-538073D01*
X5281269Y-531114D01*
X5267858Y-525830D01*
X5253888Y-522224D01*
X5239613Y-520446D01*
X5225186Y-520446D01*
X5210911Y-522224D01*
X5196941Y-525830D01*
X5183530Y-531114D01*
X5170881Y-538073D01*
X5159248Y-546557D01*
X5148732Y-556412D01*
X5139537Y-567537D01*
X5131816Y-579678D01*
X5125669Y-592734D01*
X5121198Y-606450D01*
X5118506Y-620623D01*
X5117592Y-635000D01*
X5118506Y-649376D01*
X5121198Y-663549D01*
X5125669Y-677265D01*
X5131816Y-690321D01*
X5139537Y-702462D01*
X5148732Y-713587D01*
X5159248Y-723442D01*
X5170881Y-731926D01*
X5183530Y-738886D01*
X5196941Y-744169D01*
X5210911Y-747776D01*
G37*
G36*
X3828186Y-749554D02*
G01*
X3842613Y-749554D01*
X3856888Y-747776D01*
X3870858Y-744169D01*
X3884269Y-738886D01*
X3896918Y-731926D01*
X3908551Y-723442D01*
X3919067Y-713587D01*
X3928262Y-702462D01*
X3935984Y-690321D01*
X3942130Y-677265D01*
X3946601Y-663549D01*
X3949293Y-649376D01*
X3950208Y-635000D01*
X3949293Y-620623D01*
X3946601Y-606450D01*
X3942130Y-592734D01*
X3935984Y-579678D01*
X3928262Y-567537D01*
X3919067Y-556412D01*
X3908551Y-546557D01*
X3896918Y-538073D01*
X3884269Y-531114D01*
X3870858Y-525830D01*
X3856888Y-522224D01*
X3842613Y-520446D01*
X3828186Y-520446D01*
X3813911Y-522224D01*
X3799941Y-525830D01*
X3786530Y-531114D01*
X3773881Y-538073D01*
X3762248Y-546557D01*
X3751732Y-556412D01*
X3742537Y-567537D01*
X3734815Y-579678D01*
X3728669Y-592734D01*
X3724198Y-606450D01*
X3721506Y-620623D01*
X3720592Y-635000D01*
X3721506Y-649376D01*
X3724198Y-663549D01*
X3728669Y-677265D01*
X3734815Y-690321D01*
X3742537Y-702462D01*
X3751732Y-713587D01*
X3762248Y-723442D01*
X3773881Y-731926D01*
X3786530Y-738886D01*
X3799941Y-744169D01*
X3813911Y-747776D01*
G37*
G36*
X8781186Y-749554D02*
G01*
X8795613Y-749554D01*
X8809888Y-747776D01*
X8823858Y-744169D01*
X8837269Y-738886D01*
X8849918Y-731926D01*
X8861552Y-723442D01*
X8872067Y-713587D01*
X8881262Y-702462D01*
X8888984Y-690321D01*
X8895130Y-677265D01*
X8899601Y-663549D01*
X8902293Y-649376D01*
X8903208Y-635000D01*
X8902293Y-620623D01*
X8899601Y-606450D01*
X8895130Y-592734D01*
X8888984Y-579678D01*
X8881262Y-567537D01*
X8872067Y-556412D01*
X8861552Y-546557D01*
X8849918Y-538073D01*
X8837269Y-531114D01*
X8823858Y-525830D01*
X8809888Y-522224D01*
X8795613Y-520446D01*
X8781186Y-520446D01*
X8766911Y-522224D01*
X8752941Y-525830D01*
X8739530Y-531114D01*
X8726881Y-538073D01*
X8715248Y-546557D01*
X8704732Y-556412D01*
X8695537Y-567537D01*
X8687816Y-579678D01*
X8681669Y-592734D01*
X8677198Y-606450D01*
X8674506Y-620623D01*
X8673592Y-635000D01*
X8674506Y-649376D01*
X8677198Y-663549D01*
X8681669Y-677265D01*
X8687816Y-690321D01*
X8695537Y-702462D01*
X8704732Y-713587D01*
X8715248Y-723442D01*
X8726881Y-731926D01*
X8739530Y-738886D01*
X8752941Y-744169D01*
X8766911Y-747776D01*
G37*
G36*
X6749186Y-749554D02*
G01*
X6763613Y-749554D01*
X6777888Y-747776D01*
X6791858Y-744169D01*
X6805269Y-738886D01*
X6817918Y-731926D01*
X6829552Y-723442D01*
X6840067Y-713587D01*
X6849262Y-702462D01*
X6856984Y-690321D01*
X6863130Y-677265D01*
X6867601Y-663549D01*
X6870293Y-649376D01*
X6871208Y-635000D01*
X6870293Y-620623D01*
X6867601Y-606450D01*
X6863130Y-592734D01*
X6856984Y-579678D01*
X6849262Y-567537D01*
X6840067Y-556412D01*
X6829552Y-546557D01*
X6817918Y-538073D01*
X6805269Y-531114D01*
X6791858Y-525830D01*
X6777888Y-522224D01*
X6763613Y-520446D01*
X6749186Y-520446D01*
X6734911Y-522224D01*
X6720941Y-525830D01*
X6707530Y-531114D01*
X6694881Y-538073D01*
X6683248Y-546557D01*
X6672732Y-556412D01*
X6663537Y-567537D01*
X6655816Y-579678D01*
X6649669Y-592734D01*
X6645198Y-606450D01*
X6642506Y-620623D01*
X6641592Y-635000D01*
X6642506Y-649376D01*
X6645198Y-663549D01*
X6649669Y-677265D01*
X6655816Y-690321D01*
X6663537Y-702462D01*
X6672732Y-713587D01*
X6683248Y-723442D01*
X6694881Y-731926D01*
X6707530Y-738886D01*
X6720941Y-744169D01*
X6734911Y-747776D01*
G37*
G36*
X4590186Y-749554D02*
G01*
X4604613Y-749554D01*
X4618888Y-747776D01*
X4632858Y-744169D01*
X4646269Y-738886D01*
X4658918Y-731926D01*
X4670552Y-723442D01*
X4681067Y-713587D01*
X4690262Y-702462D01*
X4697984Y-690321D01*
X4704130Y-677265D01*
X4708601Y-663549D01*
X4711293Y-649376D01*
X4712208Y-635000D01*
X4711293Y-620623D01*
X4708601Y-606450D01*
X4704130Y-592734D01*
X4697984Y-579678D01*
X4690262Y-567537D01*
X4681067Y-556412D01*
X4670552Y-546557D01*
X4658918Y-538073D01*
X4646269Y-531114D01*
X4632858Y-525830D01*
X4618888Y-522224D01*
X4604613Y-520446D01*
X4590186Y-520446D01*
X4575911Y-522224D01*
X4561941Y-525830D01*
X4548530Y-531114D01*
X4535881Y-538073D01*
X4524248Y-546557D01*
X4513732Y-556412D01*
X4504537Y-567537D01*
X4496816Y-579678D01*
X4490669Y-592734D01*
X4486198Y-606450D01*
X4483506Y-620623D01*
X4482592Y-635000D01*
X4483506Y-649376D01*
X4486198Y-663549D01*
X4490669Y-677265D01*
X4496816Y-690321D01*
X4504537Y-702462D01*
X4513732Y-713587D01*
X4524248Y-723442D01*
X4535881Y-731926D01*
X4548530Y-738886D01*
X4561941Y-744169D01*
X4575911Y-747776D01*
G37*
G36*
X9289186Y-749554D02*
G01*
X9303613Y-749554D01*
X9317888Y-747776D01*
X9331858Y-744169D01*
X9345269Y-738886D01*
X9357918Y-731926D01*
X9369552Y-723442D01*
X9380067Y-713587D01*
X9389262Y-702462D01*
X9396984Y-690321D01*
X9403130Y-677265D01*
X9407601Y-663549D01*
X9410293Y-649376D01*
X9411208Y-635000D01*
X9410293Y-620623D01*
X9407601Y-606450D01*
X9403130Y-592734D01*
X9396984Y-579678D01*
X9389262Y-567537D01*
X9380067Y-556412D01*
X9369552Y-546557D01*
X9357918Y-538073D01*
X9345269Y-531114D01*
X9331858Y-525830D01*
X9317888Y-522224D01*
X9303613Y-520446D01*
X9289186Y-520446D01*
X9274911Y-522224D01*
X9260941Y-525830D01*
X9247530Y-531114D01*
X9234881Y-538073D01*
X9223248Y-546557D01*
X9212732Y-556412D01*
X9203537Y-567537D01*
X9195816Y-579678D01*
X9189669Y-592734D01*
X9185198Y-606450D01*
X9182506Y-620623D01*
X9181592Y-635000D01*
X9182506Y-649376D01*
X9185198Y-663549D01*
X9189669Y-677265D01*
X9195816Y-690321D01*
X9203537Y-702462D01*
X9212732Y-713587D01*
X9223248Y-723442D01*
X9234881Y-731926D01*
X9247530Y-738886D01*
X9260941Y-744169D01*
X9274911Y-747776D01*
G37*
G36*
X5479186Y-749554D02*
G01*
X5493613Y-749554D01*
X5507888Y-747776D01*
X5521858Y-744169D01*
X5535269Y-738886D01*
X5547918Y-731926D01*
X5559552Y-723442D01*
X5570067Y-713587D01*
X5579262Y-702462D01*
X5586984Y-690321D01*
X5593130Y-677265D01*
X5597601Y-663549D01*
X5600293Y-649376D01*
X5601208Y-635000D01*
X5600293Y-620623D01*
X5597601Y-606450D01*
X5593130Y-592734D01*
X5586984Y-579678D01*
X5579262Y-567537D01*
X5570067Y-556412D01*
X5559552Y-546557D01*
X5547918Y-538073D01*
X5535269Y-531114D01*
X5521858Y-525830D01*
X5507888Y-522224D01*
X5493613Y-520446D01*
X5479186Y-520446D01*
X5464911Y-522224D01*
X5450941Y-525830D01*
X5437530Y-531114D01*
X5424881Y-538073D01*
X5413248Y-546557D01*
X5402732Y-556412D01*
X5393537Y-567537D01*
X5385816Y-579678D01*
X5379669Y-592734D01*
X5375198Y-606450D01*
X5372506Y-620623D01*
X5371592Y-635000D01*
X5372506Y-649376D01*
X5375198Y-663549D01*
X5379669Y-677265D01*
X5385816Y-690321D01*
X5393537Y-702462D01*
X5402732Y-713587D01*
X5413248Y-723442D01*
X5424881Y-731926D01*
X5437530Y-738886D01*
X5450941Y-744169D01*
X5464911Y-747776D01*
G37*
G36*
X3066186Y-749554D02*
G01*
X3080613Y-749554D01*
X3094888Y-747776D01*
X3108858Y-744169D01*
X3122269Y-738886D01*
X3134918Y-731926D01*
X3146552Y-723442D01*
X3157067Y-713587D01*
X3166262Y-702462D01*
X3173984Y-690321D01*
X3180130Y-677265D01*
X3184601Y-663549D01*
X3187293Y-649376D01*
X3188208Y-635000D01*
X3187293Y-620623D01*
X3184601Y-606450D01*
X3180130Y-592734D01*
X3173984Y-579678D01*
X3166262Y-567537D01*
X3157067Y-556412D01*
X3146552Y-546557D01*
X3134918Y-538073D01*
X3122269Y-531114D01*
X3108858Y-525830D01*
X3094888Y-522224D01*
X3080613Y-520446D01*
X3066186Y-520446D01*
X3051911Y-522224D01*
X3037941Y-525830D01*
X3024530Y-531114D01*
X3011881Y-538073D01*
X3000248Y-546557D01*
X2989732Y-556412D01*
X2980537Y-567537D01*
X2972816Y-579678D01*
X2966669Y-592734D01*
X2962198Y-606450D01*
X2959506Y-620623D01*
X2958592Y-635000D01*
X2959506Y-649376D01*
X2962198Y-663549D01*
X2966669Y-677265D01*
X2972816Y-690321D01*
X2980537Y-702462D01*
X2989732Y-713587D01*
X3000248Y-723442D01*
X3011881Y-731926D01*
X3024530Y-738886D01*
X3037941Y-744169D01*
X3051911Y-747776D01*
G37*
G36*
X10305186Y-749554D02*
G01*
X10319613Y-749554D01*
X10333888Y-747776D01*
X10347858Y-744169D01*
X10361269Y-738886D01*
X10373918Y-731926D01*
X10385552Y-723442D01*
X10396067Y-713587D01*
X10405262Y-702462D01*
X10412984Y-690321D01*
X10419130Y-677265D01*
X10423601Y-663549D01*
X10426293Y-649376D01*
X10427208Y-635000D01*
X10426293Y-620623D01*
X10423601Y-606450D01*
X10419130Y-592734D01*
X10412984Y-579678D01*
X10405262Y-567537D01*
X10396067Y-556412D01*
X10385552Y-546557D01*
X10373918Y-538073D01*
X10361269Y-531114D01*
X10347858Y-525830D01*
X10333888Y-522224D01*
X10319613Y-520446D01*
X10305186Y-520446D01*
X10290911Y-522224D01*
X10276941Y-525830D01*
X10263530Y-531114D01*
X10250881Y-538073D01*
X10239248Y-546557D01*
X10228732Y-556412D01*
X10219537Y-567537D01*
X10211816Y-579678D01*
X10205669Y-592734D01*
X10201198Y-606450D01*
X10198506Y-620623D01*
X10197592Y-635000D01*
X10198506Y-649376D01*
X10201198Y-663549D01*
X10205669Y-677265D01*
X10211816Y-690321D01*
X10219537Y-702462D01*
X10228732Y-713587D01*
X10239248Y-723442D01*
X10250881Y-731926D01*
X10263530Y-738886D01*
X10276941Y-744169D01*
X10290911Y-747776D01*
G37*
G36*
X7765186Y-749554D02*
G01*
X7779613Y-749554D01*
X7793888Y-747776D01*
X7807858Y-744169D01*
X7821269Y-738886D01*
X7833918Y-731926D01*
X7845552Y-723442D01*
X7856067Y-713587D01*
X7865262Y-702462D01*
X7872984Y-690321D01*
X7879130Y-677265D01*
X7883601Y-663549D01*
X7886293Y-649376D01*
X7887208Y-635000D01*
X7886293Y-620623D01*
X7883601Y-606450D01*
X7879130Y-592734D01*
X7872984Y-579678D01*
X7865262Y-567537D01*
X7856067Y-556412D01*
X7845552Y-546557D01*
X7833918Y-538073D01*
X7821269Y-531114D01*
X7807858Y-525830D01*
X7793888Y-522224D01*
X7779613Y-520446D01*
X7765186Y-520446D01*
X7750911Y-522224D01*
X7736941Y-525830D01*
X7723530Y-531114D01*
X7710881Y-538073D01*
X7699248Y-546557D01*
X7688732Y-556412D01*
X7679537Y-567537D01*
X7671816Y-579678D01*
X7665669Y-592734D01*
X7661198Y-606450D01*
X7658506Y-620623D01*
X7657592Y-635000D01*
X7658506Y-649376D01*
X7661198Y-663549D01*
X7665669Y-677265D01*
X7671816Y-690321D01*
X7679537Y-702462D01*
X7688732Y-713587D01*
X7699248Y-723442D01*
X7710881Y-731926D01*
X7723530Y-738886D01*
X7736941Y-744169D01*
X7750911Y-747776D01*
G37*
G36*
X7511186Y-749554D02*
G01*
X7525613Y-749554D01*
X7539888Y-747776D01*
X7553858Y-744169D01*
X7567269Y-738886D01*
X7579918Y-731926D01*
X7591552Y-723442D01*
X7602067Y-713587D01*
X7611262Y-702462D01*
X7618984Y-690321D01*
X7625130Y-677265D01*
X7629601Y-663549D01*
X7632293Y-649376D01*
X7633208Y-635000D01*
X7632293Y-620623D01*
X7629601Y-606450D01*
X7625130Y-592734D01*
X7618984Y-579678D01*
X7611262Y-567537D01*
X7602067Y-556412D01*
X7591552Y-546557D01*
X7579918Y-538073D01*
X7567269Y-531114D01*
X7553858Y-525830D01*
X7539888Y-522224D01*
X7525613Y-520446D01*
X7511186Y-520446D01*
X7496911Y-522224D01*
X7482941Y-525830D01*
X7469530Y-531114D01*
X7456881Y-538073D01*
X7445248Y-546557D01*
X7434732Y-556412D01*
X7425537Y-567537D01*
X7417816Y-579678D01*
X7411669Y-592734D01*
X7407198Y-606450D01*
X7404506Y-620623D01*
X7403592Y-635000D01*
X7404506Y-649376D01*
X7407198Y-663549D01*
X7411669Y-677265D01*
X7417816Y-690321D01*
X7425537Y-702462D01*
X7434732Y-713587D01*
X7445248Y-723442D01*
X7456881Y-731926D01*
X7469530Y-738886D01*
X7482941Y-744169D01*
X7496911Y-747776D01*
G37*
G36*
X10051186Y-749554D02*
G01*
X10065613Y-749554D01*
X10079888Y-747776D01*
X10093858Y-744169D01*
X10107269Y-738886D01*
X10119918Y-731926D01*
X10131552Y-723442D01*
X10142067Y-713587D01*
X10151262Y-702462D01*
X10158984Y-690321D01*
X10165130Y-677265D01*
X10169601Y-663549D01*
X10172293Y-649376D01*
X10173208Y-635000D01*
X10172293Y-620623D01*
X10169601Y-606450D01*
X10165130Y-592734D01*
X10158984Y-579678D01*
X10151262Y-567537D01*
X10142067Y-556412D01*
X10131552Y-546557D01*
X10119918Y-538073D01*
X10107269Y-531114D01*
X10093858Y-525830D01*
X10079888Y-522224D01*
X10065613Y-520446D01*
X10051186Y-520446D01*
X10036911Y-522224D01*
X10022941Y-525830D01*
X10009530Y-531114D01*
X9996881Y-538073D01*
X9985248Y-546557D01*
X9974732Y-556412D01*
X9965537Y-567537D01*
X9957816Y-579678D01*
X9951669Y-592734D01*
X9947198Y-606450D01*
X9944506Y-620623D01*
X9943592Y-635000D01*
X9944506Y-649376D01*
X9947198Y-663549D01*
X9951669Y-677265D01*
X9957816Y-690321D01*
X9965537Y-702462D01*
X9974732Y-713587D01*
X9985248Y-723442D01*
X9996881Y-731926D01*
X10009530Y-738886D01*
X10022941Y-744169D01*
X10036911Y-747776D01*
G37*
G36*
X4844186Y-749554D02*
G01*
X4858613Y-749554D01*
X4872888Y-747776D01*
X4886858Y-744169D01*
X4900269Y-738886D01*
X4912918Y-731926D01*
X4924552Y-723442D01*
X4935067Y-713587D01*
X4944262Y-702462D01*
X4951984Y-690321D01*
X4958130Y-677265D01*
X4962601Y-663549D01*
X4965293Y-649376D01*
X4966208Y-635000D01*
X4965293Y-620623D01*
X4962601Y-606450D01*
X4958130Y-592734D01*
X4951984Y-579678D01*
X4944262Y-567537D01*
X4935067Y-556412D01*
X4924552Y-546557D01*
X4912918Y-538073D01*
X4900269Y-531114D01*
X4886858Y-525830D01*
X4872888Y-522224D01*
X4858613Y-520446D01*
X4844186Y-520446D01*
X4829911Y-522224D01*
X4815941Y-525830D01*
X4802530Y-531114D01*
X4789881Y-538073D01*
X4778248Y-546557D01*
X4767732Y-556412D01*
X4758537Y-567537D01*
X4750816Y-579678D01*
X4744669Y-592734D01*
X4740198Y-606450D01*
X4737506Y-620623D01*
X4736592Y-635000D01*
X4737506Y-649376D01*
X4740198Y-663549D01*
X4744669Y-677265D01*
X4750816Y-690321D01*
X4758537Y-702462D01*
X4767732Y-713587D01*
X4778248Y-723442D01*
X4789881Y-731926D01*
X4802530Y-738886D01*
X4815941Y-744169D01*
X4829911Y-747776D01*
G37*
G36*
X6495186Y-749554D02*
G01*
X6509613Y-749554D01*
X6523888Y-747776D01*
X6537858Y-744169D01*
X6551269Y-738886D01*
X6563918Y-731926D01*
X6575552Y-723442D01*
X6586067Y-713587D01*
X6595262Y-702462D01*
X6602984Y-690321D01*
X6609130Y-677265D01*
X6613601Y-663549D01*
X6616293Y-649376D01*
X6617208Y-635000D01*
X6616293Y-620623D01*
X6613601Y-606450D01*
X6609130Y-592734D01*
X6602984Y-579678D01*
X6595262Y-567537D01*
X6586067Y-556412D01*
X6575552Y-546557D01*
X6563918Y-538073D01*
X6551269Y-531114D01*
X6537858Y-525830D01*
X6523888Y-522224D01*
X6509613Y-520446D01*
X6495186Y-520446D01*
X6480911Y-522224D01*
X6466941Y-525830D01*
X6453530Y-531114D01*
X6440881Y-538073D01*
X6429248Y-546557D01*
X6418732Y-556412D01*
X6409537Y-567537D01*
X6401816Y-579678D01*
X6395669Y-592734D01*
X6391198Y-606450D01*
X6388506Y-620623D01*
X6387592Y-635000D01*
X6388506Y-649376D01*
X6391198Y-663549D01*
X6395669Y-677265D01*
X6401816Y-690321D01*
X6409537Y-702462D01*
X6418732Y-713587D01*
X6429248Y-723442D01*
X6440881Y-731926D01*
X6453530Y-738886D01*
X6466941Y-744169D01*
X6480911Y-747776D01*
G37*
G36*
X7003186Y-749554D02*
G01*
X7017613Y-749554D01*
X7031888Y-747776D01*
X7045858Y-744169D01*
X7059269Y-738886D01*
X7071918Y-731926D01*
X7083552Y-723442D01*
X7094067Y-713587D01*
X7103262Y-702462D01*
X7110984Y-690321D01*
X7117130Y-677265D01*
X7121601Y-663549D01*
X7124293Y-649376D01*
X7125208Y-635000D01*
X7124293Y-620623D01*
X7121601Y-606450D01*
X7117130Y-592734D01*
X7110984Y-579678D01*
X7103262Y-567537D01*
X7094067Y-556412D01*
X7083552Y-546557D01*
X7071918Y-538073D01*
X7059269Y-531114D01*
X7045858Y-525830D01*
X7031888Y-522224D01*
X7017613Y-520446D01*
X7003186Y-520446D01*
X6988911Y-522224D01*
X6974941Y-525830D01*
X6961530Y-531114D01*
X6948881Y-538073D01*
X6937248Y-546557D01*
X6926732Y-556412D01*
X6917537Y-567537D01*
X6909816Y-579678D01*
X6903669Y-592734D01*
X6899198Y-606450D01*
X6896506Y-620623D01*
X6895592Y-635000D01*
X6896506Y-649376D01*
X6899198Y-663549D01*
X6903669Y-677265D01*
X6909816Y-690321D01*
X6917537Y-702462D01*
X6926732Y-713587D01*
X6937248Y-723442D01*
X6948881Y-731926D01*
X6961530Y-738886D01*
X6974941Y-744169D01*
X6988911Y-747776D01*
G37*
G36*
X9035186Y-749554D02*
G01*
X9049613Y-749554D01*
X9063888Y-747776D01*
X9077858Y-744169D01*
X9091269Y-738886D01*
X9103918Y-731926D01*
X9115552Y-723442D01*
X9126067Y-713587D01*
X9135262Y-702462D01*
X9142984Y-690321D01*
X9149130Y-677265D01*
X9153601Y-663549D01*
X9156293Y-649376D01*
X9157208Y-635000D01*
X9156293Y-620623D01*
X9153601Y-606450D01*
X9149130Y-592734D01*
X9142984Y-579678D01*
X9135262Y-567537D01*
X9126067Y-556412D01*
X9115552Y-546557D01*
X9103918Y-538073D01*
X9091269Y-531114D01*
X9077858Y-525830D01*
X9063888Y-522224D01*
X9049613Y-520446D01*
X9035186Y-520446D01*
X9020911Y-522224D01*
X9006941Y-525830D01*
X8993530Y-531114D01*
X8980881Y-538073D01*
X8969248Y-546557D01*
X8958732Y-556412D01*
X8949537Y-567537D01*
X8941816Y-579678D01*
X8935669Y-592734D01*
X8931198Y-606450D01*
X8928506Y-620623D01*
X8927592Y-635000D01*
X8928506Y-649376D01*
X8931198Y-663549D01*
X8935669Y-677265D01*
X8941816Y-690321D01*
X8949537Y-702462D01*
X8958732Y-713587D01*
X8969248Y-723442D01*
X8980881Y-731926D01*
X8993530Y-738886D01*
X9006941Y-744169D01*
X9020911Y-747776D01*
G37*
G36*
X8019186Y-749554D02*
G01*
X8033613Y-749554D01*
X8047888Y-747776D01*
X8061858Y-744169D01*
X8075269Y-738886D01*
X8087918Y-731926D01*
X8099552Y-723442D01*
X8110067Y-713587D01*
X8119262Y-702462D01*
X8126984Y-690321D01*
X8133130Y-677265D01*
X8137601Y-663549D01*
X8140293Y-649376D01*
X8141208Y-635000D01*
X8140293Y-620623D01*
X8137601Y-606450D01*
X8133130Y-592734D01*
X8126984Y-579678D01*
X8119262Y-567537D01*
X8110067Y-556412D01*
X8099552Y-546557D01*
X8087918Y-538073D01*
X8075269Y-531114D01*
X8061858Y-525830D01*
X8047888Y-522224D01*
X8033613Y-520446D01*
X8019186Y-520446D01*
X8004911Y-522224D01*
X7990941Y-525830D01*
X7977530Y-531114D01*
X7964881Y-538073D01*
X7953248Y-546557D01*
X7942732Y-556412D01*
X7933537Y-567537D01*
X7925816Y-579678D01*
X7919669Y-592734D01*
X7915198Y-606450D01*
X7912506Y-620623D01*
X7911592Y-635000D01*
X7912506Y-649376D01*
X7915198Y-663549D01*
X7919669Y-677265D01*
X7925816Y-690321D01*
X7933537Y-702462D01*
X7942732Y-713587D01*
X7953248Y-723442D01*
X7964881Y-731926D01*
X7977530Y-738886D01*
X7990941Y-744169D01*
X8004911Y-747776D01*
G37*
G36*
X2812186Y-749554D02*
G01*
X2826613Y-749554D01*
X2840888Y-747776D01*
X2854858Y-744169D01*
X2868269Y-738886D01*
X2880918Y-731926D01*
X2892552Y-723442D01*
X2903067Y-713587D01*
X2912262Y-702462D01*
X2919984Y-690321D01*
X2926130Y-677265D01*
X2930601Y-663549D01*
X2933293Y-649376D01*
X2934208Y-635000D01*
X2933293Y-620623D01*
X2930601Y-606450D01*
X2926130Y-592734D01*
X2919984Y-579678D01*
X2912262Y-567537D01*
X2903067Y-556412D01*
X2892552Y-546557D01*
X2880918Y-538073D01*
X2868269Y-531114D01*
X2854858Y-525830D01*
X2840888Y-522224D01*
X2826613Y-520446D01*
X2812186Y-520446D01*
X2797911Y-522224D01*
X2783941Y-525830D01*
X2770530Y-531114D01*
X2757881Y-538073D01*
X2746248Y-546557D01*
X2735732Y-556412D01*
X2726537Y-567537D01*
X2718816Y-579678D01*
X2712669Y-592734D01*
X2708198Y-606450D01*
X2705506Y-620623D01*
X2704592Y-635000D01*
X2705506Y-649376D01*
X2708198Y-663549D01*
X2712669Y-677265D01*
X2718816Y-690321D01*
X2726537Y-702462D01*
X2735732Y-713587D01*
X2746248Y-723442D01*
X2757881Y-731926D01*
X2770530Y-738886D01*
X2783941Y-744169D01*
X2797911Y-747776D01*
G37*
G36*
X3574186Y-749554D02*
G01*
X3588613Y-749554D01*
X3602888Y-747776D01*
X3616858Y-744169D01*
X3630269Y-738886D01*
X3642918Y-731926D01*
X3654551Y-723442D01*
X3665067Y-713587D01*
X3674262Y-702462D01*
X3681984Y-690321D01*
X3688130Y-677265D01*
X3692601Y-663549D01*
X3695293Y-649376D01*
X3696208Y-635000D01*
X3695293Y-620623D01*
X3692601Y-606450D01*
X3688130Y-592734D01*
X3681984Y-579678D01*
X3674262Y-567537D01*
X3665067Y-556412D01*
X3654551Y-546557D01*
X3642918Y-538073D01*
X3630269Y-531114D01*
X3616858Y-525830D01*
X3602888Y-522224D01*
X3588613Y-520446D01*
X3574186Y-520446D01*
X3559911Y-522224D01*
X3545941Y-525830D01*
X3532530Y-531114D01*
X3519881Y-538073D01*
X3508248Y-546557D01*
X3497732Y-556412D01*
X3488537Y-567537D01*
X3480815Y-579678D01*
X3474669Y-592734D01*
X3470198Y-606450D01*
X3467506Y-620623D01*
X3466592Y-635000D01*
X3467506Y-649376D01*
X3470198Y-663549D01*
X3474669Y-677265D01*
X3480815Y-690321D01*
X3488537Y-702462D01*
X3497732Y-713587D01*
X3508248Y-723442D01*
X3519881Y-731926D01*
X3532530Y-738886D01*
X3545941Y-744169D01*
X3559911Y-747776D01*
G37*
G36*
X2558186Y-749554D02*
G01*
X2572613Y-749554D01*
X2586888Y-747776D01*
X2600858Y-744169D01*
X2614269Y-738886D01*
X2626918Y-731926D01*
X2638552Y-723442D01*
X2649067Y-713587D01*
X2658262Y-702462D01*
X2665984Y-690321D01*
X2672130Y-677265D01*
X2676601Y-663549D01*
X2679293Y-649376D01*
X2680208Y-635000D01*
X2679293Y-620623D01*
X2676601Y-606450D01*
X2672130Y-592734D01*
X2665984Y-579678D01*
X2658262Y-567537D01*
X2649067Y-556412D01*
X2638552Y-546557D01*
X2626918Y-538073D01*
X2614269Y-531114D01*
X2600858Y-525830D01*
X2586888Y-522224D01*
X2572613Y-520446D01*
X2558186Y-520446D01*
X2543911Y-522224D01*
X2529941Y-525830D01*
X2516530Y-531114D01*
X2503881Y-538073D01*
X2492248Y-546557D01*
X2481732Y-556412D01*
X2472537Y-567537D01*
X2464816Y-579678D01*
X2458669Y-592734D01*
X2454198Y-606450D01*
X2451506Y-620623D01*
X2450592Y-635000D01*
X2451506Y-649376D01*
X2454198Y-663549D01*
X2458669Y-677265D01*
X2464816Y-690321D01*
X2472537Y-702462D01*
X2481732Y-713587D01*
X2492248Y-723442D01*
X2503881Y-731926D01*
X2516530Y-738886D01*
X2529941Y-744169D01*
X2543911Y-747776D01*
G37*
G36*
X3276600Y-737819D02*
G01*
X3276600Y-685800D01*
X3224682Y-685800D01*
X3226816Y-690321D01*
X3234537Y-702462D01*
X3243732Y-713587D01*
X3254248Y-723442D01*
X3265881Y-731926D01*
G37*
G36*
X3378200Y-737819D02*
G01*
X3388918Y-731926D01*
X3400551Y-723442D01*
X3411067Y-713587D01*
X3420262Y-702462D01*
X3427984Y-690321D01*
X3430117Y-685800D01*
X3378200Y-685800D01*
G37*
G36*
X7264400Y-665988D02*
G01*
X7279131Y-665073D01*
X7293660Y-662330D01*
X7307681Y-657860D01*
X7321092Y-651713D01*
X7333640Y-643940D01*
X7345172Y-634695D01*
X7355433Y-624078D01*
X7364323Y-612292D01*
X7371689Y-599541D01*
X7377430Y-585927D01*
X7381494Y-571754D01*
X7383780Y-557174D01*
X7384237Y-542391D01*
X7382865Y-527710D01*
X7379716Y-513283D01*
X7374788Y-499364D01*
X7368184Y-486156D01*
X7360056Y-473862D01*
X7350455Y-462635D01*
X7339533Y-452729D01*
X7327493Y-444195D01*
X7314488Y-437184D01*
X7300722Y-431850D01*
X7286447Y-428294D01*
X7271766Y-426466D01*
X7257034Y-426466D01*
X7242352Y-428294D01*
X7228078Y-431850D01*
X7214311Y-437184D01*
X7201306Y-444195D01*
X7189266Y-452729D01*
X7178344Y-462635D01*
X7168743Y-473862D01*
X7160615Y-486156D01*
X7154011Y-499364D01*
X7149084Y-513283D01*
X7145934Y-527710D01*
X7144613Y-542391D01*
X7145020Y-557174D01*
X7147306Y-571754D01*
X7151370Y-585927D01*
X7157110Y-599541D01*
X7164476Y-612292D01*
X7173366Y-624078D01*
X7183628Y-634695D01*
X7195159Y-643940D01*
X7207707Y-651713D01*
X7221118Y-657860D01*
X7235139Y-662330D01*
X7249668Y-665073D01*
G37*
G36*
X3378200Y-584200D02*
G01*
X3430117Y-584200D01*
X3427984Y-579678D01*
X3420262Y-567537D01*
X3411067Y-556412D01*
X3400551Y-546557D01*
X3388918Y-538073D01*
X3378200Y-532180D01*
G37*
G36*
X3224682Y-584200D02*
G01*
X3276600Y-584200D01*
X3276600Y-532180D01*
X3265881Y-538073D01*
X3254248Y-546557D01*
X3243732Y-556412D01*
X3234537Y-567537D01*
X3226816Y-579678D01*
G37*
G36*
X10305186Y-495554D02*
G01*
X10319613Y-495554D01*
X10333888Y-493776D01*
X10347858Y-490169D01*
X10361269Y-484885D01*
X10373918Y-477926D01*
X10385552Y-469442D01*
X10396067Y-459587D01*
X10405262Y-448462D01*
X10412984Y-436321D01*
X10419130Y-423265D01*
X10423601Y-409549D01*
X10426293Y-395376D01*
X10427208Y-381000D01*
X10426293Y-366623D01*
X10423601Y-352450D01*
X10419130Y-338734D01*
X10412984Y-325678D01*
X10405262Y-313537D01*
X10396067Y-302412D01*
X10385552Y-292557D01*
X10373918Y-284073D01*
X10361269Y-277114D01*
X10347858Y-271830D01*
X10333888Y-268224D01*
X10319613Y-266446D01*
X10305186Y-266446D01*
X10290911Y-268224D01*
X10276941Y-271830D01*
X10263530Y-277114D01*
X10250881Y-284073D01*
X10239248Y-292557D01*
X10228732Y-302412D01*
X10219537Y-313537D01*
X10211816Y-325678D01*
X10205669Y-338734D01*
X10201198Y-352450D01*
X10198506Y-366623D01*
X10197592Y-381000D01*
X10198506Y-395376D01*
X10201198Y-409549D01*
X10205669Y-423265D01*
X10211816Y-436321D01*
X10219537Y-448462D01*
X10228732Y-459587D01*
X10239248Y-469442D01*
X10250881Y-477926D01*
X10263530Y-484885D01*
X10276941Y-490169D01*
X10290911Y-493776D01*
G37*
G36*
X10051186Y-495554D02*
G01*
X10065613Y-495554D01*
X10079888Y-493776D01*
X10093858Y-490169D01*
X10107269Y-484885D01*
X10119918Y-477926D01*
X10131552Y-469442D01*
X10142067Y-459587D01*
X10151262Y-448462D01*
X10158984Y-436321D01*
X10165130Y-423265D01*
X10169601Y-409549D01*
X10172293Y-395376D01*
X10173208Y-381000D01*
X10172293Y-366623D01*
X10169601Y-352450D01*
X10165130Y-338734D01*
X10158984Y-325678D01*
X10151262Y-313537D01*
X10142067Y-302412D01*
X10131552Y-292557D01*
X10119918Y-284073D01*
X10107269Y-277114D01*
X10093858Y-271830D01*
X10079888Y-268224D01*
X10065613Y-266446D01*
X10051186Y-266446D01*
X10036911Y-268224D01*
X10022941Y-271830D01*
X10009327Y-277266D01*
X10005364Y-278434D01*
X10001300Y-278028D01*
X9997694Y-275945D01*
X9884562Y-176123D01*
X9882022Y-172669D01*
X9881108Y-168503D01*
X9881108Y672592D01*
X9880295Y680618D01*
X9878110Y687832D01*
X9874554Y694537D01*
X9869424Y700735D01*
X9866020Y704189D01*
X9863734Y707593D01*
X9863023Y711657D01*
X9863937Y715619D01*
X9865360Y718718D01*
X9869830Y732739D01*
X9872573Y747268D01*
X9873488Y762000D01*
X9872573Y776732D01*
X9869830Y791260D01*
X9865360Y805281D01*
X9859213Y818692D01*
X9851440Y831240D01*
X9842195Y842771D01*
X9831578Y853033D01*
X9819792Y861923D01*
X9807041Y869289D01*
X9793427Y875030D01*
X9779254Y879094D01*
X9764674Y881380D01*
X9749891Y881786D01*
X9735210Y880465D01*
X9720783Y877316D01*
X9706864Y872388D01*
X9693656Y865784D01*
X9681362Y857656D01*
X9670135Y848055D01*
X9660229Y837133D01*
X9651695Y825093D01*
X9644684Y812088D01*
X9639350Y798322D01*
X9635794Y784047D01*
X9633966Y769366D01*
X9633966Y754634D01*
X9635794Y739952D01*
X9639350Y725678D01*
X9644684Y711911D01*
X9651695Y698906D01*
X9660229Y686866D01*
X9670135Y675944D01*
X9681362Y666343D01*
X9693656Y658215D01*
X9706864Y651611D01*
X9720783Y646684D01*
X9735210Y643534D01*
X9749891Y642162D01*
X9764674Y642620D01*
X9779254Y644906D01*
X9790938Y648258D01*
X9794646Y648563D01*
X9798253Y647547D01*
X9801250Y645312D01*
X9803180Y642112D01*
X9803892Y638454D01*
X9803942Y-192582D01*
X9805212Y-200355D01*
X9807854Y-207467D01*
X9811816Y-213867D01*
X9817354Y-219760D01*
X9946792Y-334010D01*
X9949180Y-337108D01*
X9950196Y-340868D01*
X9949738Y-344779D01*
X9947198Y-352450D01*
X9944506Y-366623D01*
X9943592Y-381000D01*
X9944506Y-395376D01*
X9947198Y-409549D01*
X9951669Y-423265D01*
X9957816Y-436321D01*
X9965537Y-448462D01*
X9974732Y-459587D01*
X9985248Y-469442D01*
X9996881Y-477926D01*
X10009530Y-484885D01*
X10022941Y-490169D01*
X10036911Y-493776D01*
G37*
G36*
X10305186Y-241554D02*
G01*
X10319613Y-241554D01*
X10333888Y-239775D01*
X10347858Y-236169D01*
X10361269Y-230886D01*
X10373918Y-223926D01*
X10385552Y-215442D01*
X10396067Y-205587D01*
X10405262Y-194462D01*
X10412984Y-182321D01*
X10419130Y-169265D01*
X10423601Y-155549D01*
X10426293Y-141376D01*
X10427208Y-127000D01*
X10426293Y-112623D01*
X10423601Y-98450D01*
X10419130Y-84734D01*
X10412984Y-71678D01*
X10405262Y-59537D01*
X10396067Y-48412D01*
X10385552Y-38557D01*
X10373918Y-30073D01*
X10361269Y-23114D01*
X10347858Y-17830D01*
X10333888Y-14224D01*
X10319613Y-12446D01*
X10305186Y-12446D01*
X10290911Y-14224D01*
X10276941Y-17830D01*
X10263530Y-23114D01*
X10250881Y-30073D01*
X10239248Y-38557D01*
X10228732Y-48412D01*
X10219537Y-59537D01*
X10211816Y-71678D01*
X10205669Y-84734D01*
X10201198Y-98450D01*
X10198506Y-112623D01*
X10197592Y-127000D01*
X10198506Y-141376D01*
X10201198Y-155549D01*
X10205669Y-169265D01*
X10211816Y-182321D01*
X10219537Y-194462D01*
X10228732Y-205587D01*
X10239248Y-215442D01*
X10250881Y-223926D01*
X10263530Y-230886D01*
X10276941Y-236169D01*
X10290911Y-239775D01*
G37*
G36*
X10051186Y-241554D02*
G01*
X10065613Y-241554D01*
X10079888Y-239775D01*
X10093858Y-236169D01*
X10107269Y-230886D01*
X10119918Y-223926D01*
X10131552Y-215442D01*
X10142067Y-205587D01*
X10151262Y-194462D01*
X10158984Y-182321D01*
X10165130Y-169265D01*
X10169601Y-155549D01*
X10172293Y-141376D01*
X10173208Y-127000D01*
X10172293Y-112623D01*
X10169601Y-98450D01*
X10165130Y-84734D01*
X10158984Y-71678D01*
X10151262Y-59537D01*
X10142067Y-48412D01*
X10131552Y-38557D01*
X10119918Y-30073D01*
X10107269Y-23114D01*
X10093858Y-17830D01*
X10079888Y-14224D01*
X10065613Y-12446D01*
X10051186Y-12446D01*
X10036911Y-14224D01*
X10022941Y-17830D01*
X10009530Y-23114D01*
X9996881Y-30073D01*
X9985248Y-38557D01*
X9974732Y-48412D01*
X9965537Y-59537D01*
X9957816Y-71678D01*
X9951669Y-84734D01*
X9947198Y-98450D01*
X9944506Y-112623D01*
X9943592Y-127000D01*
X9944506Y-141376D01*
X9947198Y-155549D01*
X9951669Y-169265D01*
X9957816Y-182321D01*
X9965537Y-194462D01*
X9974732Y-205587D01*
X9985248Y-215442D01*
X9996881Y-223926D01*
X10009530Y-230886D01*
X10022941Y-236169D01*
X10036911Y-239775D01*
G37*
G36*
X9654438Y-183845D02*
G01*
X9663988Y-182575D01*
X9673183Y-179781D01*
X9681819Y-175412D01*
X9689592Y-169672D01*
X9696246Y-162712D01*
X9701631Y-154736D01*
X9705644Y-145948D01*
X9708032Y-136601D01*
X9708896Y-127000D01*
X9708032Y-117398D01*
X9705644Y-108051D01*
X9701631Y-99263D01*
X9696246Y-91287D01*
X9689592Y-84328D01*
X9681819Y-78587D01*
X9673183Y-74218D01*
X9663988Y-71424D01*
X9654438Y-70154D01*
X9644786Y-70612D01*
X9635337Y-72644D01*
X9626396Y-76200D01*
X9618167Y-81280D01*
X9612985Y-85852D01*
X9609836Y-87731D01*
X9606280Y-88392D01*
X6878218Y-88392D01*
X6874306Y-87630D01*
X6871004Y-85394D01*
X6340805Y444804D01*
X6338570Y448106D01*
X6337808Y452018D01*
X6337808Y730453D01*
X6338519Y734212D01*
X6340602Y737463D01*
X6343700Y739698D01*
X6355892Y745286D01*
X6368440Y753059D01*
X6379972Y762304D01*
X6390233Y772922D01*
X6399123Y784707D01*
X6406489Y797458D01*
X6412230Y811072D01*
X6416294Y825246D01*
X6418580Y839825D01*
X6419037Y854608D01*
X6417665Y869289D01*
X6414516Y883716D01*
X6409588Y897636D01*
X6402984Y910844D01*
X6394856Y923137D01*
X6385255Y934364D01*
X6374333Y944270D01*
X6362293Y952804D01*
X6349288Y959815D01*
X6335522Y965149D01*
X6321247Y968705D01*
X6306566Y970534D01*
X6291834Y970534D01*
X6277152Y968705D01*
X6262878Y965149D01*
X6249111Y959815D01*
X6236106Y952804D01*
X6224066Y944270D01*
X6213144Y934364D01*
X6203543Y923137D01*
X6195415Y910844D01*
X6188811Y897636D01*
X6183884Y883716D01*
X6180734Y869289D01*
X6179413Y854608D01*
X6179820Y839825D01*
X6182106Y825246D01*
X6186170Y811072D01*
X6191910Y797458D01*
X6199276Y784707D01*
X6208166Y772922D01*
X6218428Y762304D01*
X6229959Y753059D01*
X6242507Y745286D01*
X6254699Y739698D01*
X6257798Y737463D01*
X6259880Y734212D01*
X6260592Y730453D01*
X6260592Y432308D01*
X6261404Y424281D01*
X6263589Y417068D01*
X6267145Y410362D01*
X6272276Y404164D01*
X6830364Y-153924D01*
X6836562Y-159054D01*
X6843268Y-162610D01*
X6850481Y-164795D01*
X6858508Y-165608D01*
X9606280Y-165608D01*
X9609836Y-166268D01*
X9612985Y-168148D01*
X9618167Y-172720D01*
X9626396Y-177800D01*
X9635337Y-181356D01*
X9644786Y-183388D01*
G37*
G36*
X9648291Y57962D02*
G01*
X9663074Y58419D01*
X9677654Y60706D01*
X9691827Y64769D01*
X9705441Y70510D01*
X9718192Y77876D01*
X9729978Y86766D01*
X9740595Y97028D01*
X9749840Y108559D01*
X9757613Y121107D01*
X9763760Y134518D01*
X9768230Y148539D01*
X9770973Y163068D01*
X9771888Y177800D01*
X9770973Y192532D01*
X9768230Y207060D01*
X9763760Y221081D01*
X9757613Y234492D01*
X9749840Y247040D01*
X9740595Y258571D01*
X9729978Y268833D01*
X9718192Y277723D01*
X9705441Y285089D01*
X9691827Y290830D01*
X9677654Y294894D01*
X9663074Y297180D01*
X9648291Y297586D01*
X9633610Y296265D01*
X9619183Y293116D01*
X9605264Y288188D01*
X9592056Y281584D01*
X9579762Y273456D01*
X9568535Y263855D01*
X9558629Y252933D01*
X9550095Y240893D01*
X9543084Y227888D01*
X9537750Y214121D01*
X9534194Y199847D01*
X9532366Y185166D01*
X9532366Y170434D01*
X9534194Y155752D01*
X9537750Y141478D01*
X9543084Y127711D01*
X9550095Y114706D01*
X9558629Y102666D01*
X9568535Y91744D01*
X9579762Y82143D01*
X9592056Y74015D01*
X9605264Y67411D01*
X9619183Y62484D01*
X9633610Y59334D01*
G37*
G36*
X8632291Y57962D02*
G01*
X8647074Y58419D01*
X8661654Y60706D01*
X8675827Y64769D01*
X8689441Y70510D01*
X8702192Y77876D01*
X8713978Y86766D01*
X8724595Y97028D01*
X8733840Y108559D01*
X8741613Y121107D01*
X8747760Y134518D01*
X8752230Y148539D01*
X8754973Y163068D01*
X8755888Y177800D01*
X8754973Y192532D01*
X8752230Y207060D01*
X8747760Y221081D01*
X8741613Y234492D01*
X8733840Y247040D01*
X8724595Y258571D01*
X8713978Y268833D01*
X8702192Y277723D01*
X8689441Y285089D01*
X8675827Y290830D01*
X8661654Y294894D01*
X8647074Y297180D01*
X8632291Y297586D01*
X8617610Y296265D01*
X8603183Y293116D01*
X8589264Y288188D01*
X8576056Y281584D01*
X8563762Y273456D01*
X8552535Y263855D01*
X8542629Y252933D01*
X8534095Y240893D01*
X8527084Y227888D01*
X8521750Y214121D01*
X8518194Y199847D01*
X8516366Y185166D01*
X8516366Y170434D01*
X8518194Y155752D01*
X8521750Y141478D01*
X8527084Y127711D01*
X8534095Y114706D01*
X8542629Y102666D01*
X8552535Y91744D01*
X8563762Y82143D01*
X8576056Y74015D01*
X8589264Y67411D01*
X8603183Y62484D01*
X8617610Y59334D01*
G37*
G36*
X8216900Y69342D02*
G01*
X8231073Y70307D01*
X8244941Y73050D01*
X8258403Y77622D01*
X8271103Y83870D01*
X8282889Y91795D01*
X8293557Y101142D01*
X8302904Y111810D01*
X8310829Y123596D01*
X8317077Y136296D01*
X8321649Y149758D01*
X8324392Y163626D01*
X8325358Y177800D01*
X8324392Y191973D01*
X8321649Y205841D01*
X8317077Y219303D01*
X8310829Y232003D01*
X8302904Y243789D01*
X8293557Y254457D01*
X8282889Y263804D01*
X8271103Y271729D01*
X8258403Y277977D01*
X8244941Y282549D01*
X8231073Y285292D01*
X8216900Y286258D01*
X8202726Y285292D01*
X8188858Y282549D01*
X8175396Y277977D01*
X8162696Y271729D01*
X8150910Y263804D01*
X8140242Y254457D01*
X8130895Y243789D01*
X8122970Y232003D01*
X8116722Y219303D01*
X8112150Y205841D01*
X8109407Y191973D01*
X8108442Y177800D01*
X8109407Y163626D01*
X8112150Y149758D01*
X8116722Y136296D01*
X8122970Y123596D01*
X8130895Y111810D01*
X8140242Y101142D01*
X8150910Y91795D01*
X8162696Y83870D01*
X8175396Y77622D01*
X8188858Y73050D01*
X8202726Y70307D01*
G37*
G36*
X8010550Y80619D02*
G01*
X8017103Y83870D01*
X8028889Y91795D01*
X8039557Y101142D01*
X8048904Y111810D01*
X8056829Y123596D01*
X8060080Y130149D01*
X8010550Y130149D01*
G37*
G36*
X7915300Y80619D02*
G01*
X7915300Y130149D01*
X7865719Y130149D01*
X7868970Y123596D01*
X7876895Y111810D01*
X7886242Y101142D01*
X7896910Y91795D01*
X7908696Y83870D01*
G37*
G36*
X3581400Y172212D02*
G01*
X3596132Y173126D01*
X3610660Y175869D01*
X3624681Y180340D01*
X3638092Y186486D01*
X3650640Y194259D01*
X3662172Y203504D01*
X3672433Y214121D01*
X3681323Y225907D01*
X3688689Y238658D01*
X3694429Y252272D01*
X3698494Y266446D01*
X3700779Y281025D01*
X3701186Y295808D01*
X3699865Y310489D01*
X3696715Y324916D01*
X3691788Y338836D01*
X3685184Y352044D01*
X3677056Y364337D01*
X3667455Y375564D01*
X3656533Y385470D01*
X3644493Y394004D01*
X3631488Y401015D01*
X3617722Y406349D01*
X3603447Y409905D01*
X3588765Y411734D01*
X3574034Y411734D01*
X3559352Y409905D01*
X3545078Y406349D01*
X3531311Y401015D01*
X3518306Y394004D01*
X3506266Y385470D01*
X3495344Y375564D01*
X3485743Y364337D01*
X3477615Y352044D01*
X3468420Y333959D01*
X3465017Y331571D01*
X3460953Y330708D01*
X2101494Y330708D01*
X2097633Y331470D01*
X2094331Y333705D01*
X1945893Y482142D01*
X1943607Y485597D01*
X1942896Y489610D01*
X1944166Y494284D01*
X1948688Y508152D01*
X1951380Y522427D01*
X1952294Y536956D01*
X1951380Y551484D01*
X1948688Y565759D01*
X1944166Y579628D01*
X1937969Y592785D01*
X1930196Y605078D01*
X1920900Y616305D01*
X1910283Y626262D01*
X1898497Y634796D01*
X1885746Y641807D01*
X1872234Y647192D01*
X1858111Y650798D01*
X1843684Y652627D01*
X1829155Y652627D01*
X1814728Y650798D01*
X1800606Y647192D01*
X1787093Y641807D01*
X1774342Y634796D01*
X1762556Y626262D01*
X1751939Y616305D01*
X1742643Y605078D01*
X1734870Y592785D01*
X1728673Y579628D01*
X1724152Y565759D01*
X1721459Y551484D01*
X1720545Y536956D01*
X1721459Y522427D01*
X1724152Y508152D01*
X1728673Y494284D01*
X1734870Y481126D01*
X1742643Y468833D01*
X1751939Y457606D01*
X1762556Y447649D01*
X1774342Y439115D01*
X1787093Y432104D01*
X1800606Y426720D01*
X1814728Y423113D01*
X1829155Y421284D01*
X1843684Y421284D01*
X1858111Y423113D01*
X1872234Y426720D01*
X1880209Y429920D01*
X1884070Y430631D01*
X1887931Y429818D01*
X1891131Y427634D01*
X2053640Y265176D01*
X2059889Y260045D01*
X2066543Y256489D01*
X2073757Y254304D01*
X2081784Y253492D01*
X3461105Y253492D01*
X3464966Y252729D01*
X3468217Y250545D01*
X3470452Y247294D01*
X3474110Y238658D01*
X3481476Y225907D01*
X3490366Y214121D01*
X3500628Y203504D01*
X3512159Y194259D01*
X3524707Y186486D01*
X3538118Y180340D01*
X3552139Y175869D01*
X3566668Y173126D01*
G37*
G36*
X8010550Y225399D02*
G01*
X8060080Y225399D01*
X8056829Y232003D01*
X8048904Y243789D01*
X8039557Y254457D01*
X8028889Y263804D01*
X8017103Y271729D01*
X8010550Y274980D01*
G37*
G36*
X7865719Y225399D02*
G01*
X7915300Y225399D01*
X7915300Y274980D01*
X7908696Y271729D01*
X7896910Y263804D01*
X7886242Y254457D01*
X7876895Y243789D01*
X7868970Y232003D01*
G37*
G36*
X10305186Y266446D02*
G01*
X10319613Y266446D01*
X10333888Y268224D01*
X10347858Y271830D01*
X10361269Y277114D01*
X10373918Y284073D01*
X10385552Y292557D01*
X10396067Y302412D01*
X10405262Y313537D01*
X10412984Y325678D01*
X10419130Y338734D01*
X10423601Y352450D01*
X10426293Y366623D01*
X10427208Y381000D01*
X10426293Y395376D01*
X10423601Y409549D01*
X10419130Y423265D01*
X10412984Y436321D01*
X10405262Y448462D01*
X10396067Y459587D01*
X10385552Y469442D01*
X10373918Y477926D01*
X10361269Y484885D01*
X10347858Y490169D01*
X10333888Y493776D01*
X10319613Y495554D01*
X10305186Y495554D01*
X10290911Y493776D01*
X10276941Y490169D01*
X10263530Y484885D01*
X10250881Y477926D01*
X10239248Y469442D01*
X10228732Y459587D01*
X10219537Y448462D01*
X10211816Y436321D01*
X10205669Y423265D01*
X10201198Y409549D01*
X10198506Y395376D01*
X10197592Y381000D01*
X10198506Y366623D01*
X10201198Y352450D01*
X10205669Y338734D01*
X10211816Y325678D01*
X10219537Y313537D01*
X10228732Y302412D01*
X10239248Y292557D01*
X10250881Y284073D01*
X10263530Y277114D01*
X10276941Y271830D01*
X10290911Y268224D01*
G37*
G36*
X10051186Y266446D02*
G01*
X10065613Y266446D01*
X10079888Y268224D01*
X10093858Y271830D01*
X10107269Y277114D01*
X10119918Y284073D01*
X10131552Y292557D01*
X10142067Y302412D01*
X10151262Y313537D01*
X10158984Y325678D01*
X10165130Y338734D01*
X10169601Y352450D01*
X10172293Y366623D01*
X10173208Y381000D01*
X10172293Y395376D01*
X10169601Y409549D01*
X10165130Y423265D01*
X10158984Y436321D01*
X10151262Y448462D01*
X10142067Y459587D01*
X10131552Y469442D01*
X10119918Y477926D01*
X10107269Y484885D01*
X10093858Y490169D01*
X10079888Y493776D01*
X10065613Y495554D01*
X10051186Y495554D01*
X10036911Y493776D01*
X10022941Y490169D01*
X10009530Y484885D01*
X9996881Y477926D01*
X9985248Y469442D01*
X9974732Y459587D01*
X9965537Y448462D01*
X9957816Y436321D01*
X9951669Y423265D01*
X9947198Y409549D01*
X9944506Y395376D01*
X9943592Y381000D01*
X9944506Y366623D01*
X9947198Y352450D01*
X9951669Y338734D01*
X9957816Y325678D01*
X9965537Y313537D01*
X9974732Y302412D01*
X9985248Y292557D01*
X9996881Y284073D01*
X10009530Y277114D01*
X10022941Y271830D01*
X10036911Y268224D01*
G37*
G36*
X7264400Y350012D02*
G01*
X7279131Y350926D01*
X7293660Y353669D01*
X7307681Y358140D01*
X7321092Y364286D01*
X7333640Y372059D01*
X7345172Y381304D01*
X7355433Y391922D01*
X7364323Y403707D01*
X7371689Y416458D01*
X7377430Y430072D01*
X7381494Y444246D01*
X7383780Y458825D01*
X7384237Y473608D01*
X7382865Y488289D01*
X7379716Y502716D01*
X7374788Y516635D01*
X7368184Y529844D01*
X7360056Y542137D01*
X7350455Y553364D01*
X7339533Y563270D01*
X7327493Y571804D01*
X7314488Y578815D01*
X7300722Y584149D01*
X7286447Y587705D01*
X7271766Y589534D01*
X7257034Y589534D01*
X7242352Y587705D01*
X7228078Y584149D01*
X7214311Y578815D01*
X7201306Y571804D01*
X7189266Y563270D01*
X7178344Y553364D01*
X7168743Y542137D01*
X7160615Y529844D01*
X7154011Y516635D01*
X7149084Y502716D01*
X7145934Y488289D01*
X7144613Y473608D01*
X7145020Y458825D01*
X7147306Y444246D01*
X7151370Y430072D01*
X7157110Y416458D01*
X7164476Y403707D01*
X7173366Y391922D01*
X7183628Y381304D01*
X7195159Y372059D01*
X7207707Y364286D01*
X7221118Y358140D01*
X7235139Y353669D01*
X7249668Y350926D01*
G37*
G36*
X1178915Y421284D02*
G01*
X1193444Y421284D01*
X1207871Y423113D01*
X1221994Y426720D01*
X1235506Y432104D01*
X1248257Y439115D01*
X1260043Y447649D01*
X1270660Y457606D01*
X1279956Y468833D01*
X1287729Y481126D01*
X1293926Y494284D01*
X1298448Y508152D01*
X1301140Y522427D01*
X1302054Y536956D01*
X1301140Y551484D01*
X1298448Y565759D01*
X1293926Y579628D01*
X1287729Y592785D01*
X1279956Y605078D01*
X1270660Y616305D01*
X1260043Y626262D01*
X1248257Y634796D01*
X1235506Y641807D01*
X1221994Y647192D01*
X1207871Y650798D01*
X1193444Y652627D01*
X1178915Y652627D01*
X1164488Y650798D01*
X1150366Y647192D01*
X1136853Y641807D01*
X1124102Y634796D01*
X1112316Y626262D01*
X1101699Y616305D01*
X1092403Y605078D01*
X1084630Y592785D01*
X1078433Y579628D01*
X1073912Y565759D01*
X1071219Y551484D01*
X1070305Y536956D01*
X1071219Y522427D01*
X1073912Y508152D01*
X1078433Y494284D01*
X1084630Y481126D01*
X1092403Y468833D01*
X1101699Y457606D01*
X1112316Y447649D01*
X1124102Y439115D01*
X1136853Y432104D01*
X1150366Y426720D01*
X1164488Y423113D01*
G37*
G36*
X10305186Y520446D02*
G01*
X10319613Y520446D01*
X10333888Y522224D01*
X10347858Y525830D01*
X10361269Y531114D01*
X10373918Y538073D01*
X10385552Y546557D01*
X10396067Y556412D01*
X10405262Y567537D01*
X10412984Y579678D01*
X10419130Y592734D01*
X10423601Y606450D01*
X10426293Y620623D01*
X10427208Y635000D01*
X10426293Y649376D01*
X10423601Y663549D01*
X10419130Y677265D01*
X10412984Y690321D01*
X10405262Y702462D01*
X10396067Y713587D01*
X10385552Y723442D01*
X10373918Y731926D01*
X10361269Y738886D01*
X10347858Y744169D01*
X10333888Y747776D01*
X10319613Y749554D01*
X10305186Y749554D01*
X10290911Y747776D01*
X10276941Y744169D01*
X10263530Y738886D01*
X10250881Y731926D01*
X10239248Y723442D01*
X10228732Y713587D01*
X10219537Y702462D01*
X10211816Y690321D01*
X10205669Y677265D01*
X10201198Y663549D01*
X10198506Y649376D01*
X10197592Y635000D01*
X10198506Y620623D01*
X10201198Y606450D01*
X10205669Y592734D01*
X10211816Y579678D01*
X10219537Y567537D01*
X10228732Y556412D01*
X10239248Y546557D01*
X10250881Y538073D01*
X10263530Y531114D01*
X10276941Y525830D01*
X10290911Y522224D01*
G37*
G36*
X10051186Y520446D02*
G01*
X10065613Y520446D01*
X10079888Y522224D01*
X10093858Y525830D01*
X10107269Y531114D01*
X10119918Y538073D01*
X10131552Y546557D01*
X10142067Y556412D01*
X10151262Y567537D01*
X10158984Y579678D01*
X10165130Y592734D01*
X10169601Y606450D01*
X10172293Y620623D01*
X10173208Y635000D01*
X10172293Y649376D01*
X10169601Y663549D01*
X10165130Y677265D01*
X10158984Y690321D01*
X10151262Y702462D01*
X10142067Y713587D01*
X10131552Y723442D01*
X10119918Y731926D01*
X10107269Y738886D01*
X10093858Y744169D01*
X10079888Y747776D01*
X10065613Y749554D01*
X10051186Y749554D01*
X10036911Y747776D01*
X10022941Y744169D01*
X10009530Y738886D01*
X9996881Y731926D01*
X9985248Y723442D01*
X9974732Y713587D01*
X9965537Y702462D01*
X9957816Y690321D01*
X9951669Y677265D01*
X9947198Y663549D01*
X9944506Y649376D01*
X9943592Y635000D01*
X9944506Y620623D01*
X9947198Y606450D01*
X9951669Y592734D01*
X9957816Y579678D01*
X9965537Y567537D01*
X9974732Y556412D01*
X9985248Y546557D01*
X9996881Y538073D01*
X10009530Y531114D01*
X10022941Y525830D01*
X10036911Y522224D01*
G37*
G36*
X8733891Y642162D02*
G01*
X8748674Y642620D01*
X8763254Y644906D01*
X8777427Y648970D01*
X8791041Y654710D01*
X8803792Y662076D01*
X8815578Y670966D01*
X8826195Y681228D01*
X8835440Y692759D01*
X8843213Y705307D01*
X8849360Y718718D01*
X8853830Y732739D01*
X8856573Y747268D01*
X8857488Y762000D01*
X8856573Y776732D01*
X8853830Y791260D01*
X8849360Y805281D01*
X8843213Y818692D01*
X8835440Y831240D01*
X8826195Y842771D01*
X8815578Y853033D01*
X8803792Y861923D01*
X8791041Y869289D01*
X8777427Y875030D01*
X8763254Y879094D01*
X8748674Y881380D01*
X8733891Y881786D01*
X8719210Y880465D01*
X8704783Y877316D01*
X8690864Y872388D01*
X8677656Y865784D01*
X8665362Y857656D01*
X8654135Y848055D01*
X8644229Y837133D01*
X8635695Y825093D01*
X8628684Y812088D01*
X8623350Y798322D01*
X8619794Y784047D01*
X8617966Y769366D01*
X8617966Y754634D01*
X8619794Y739952D01*
X8623350Y725678D01*
X8628684Y711911D01*
X8635695Y698906D01*
X8644229Y686866D01*
X8654135Y675944D01*
X8665362Y666343D01*
X8677656Y658215D01*
X8690864Y651611D01*
X8704783Y646684D01*
X8719210Y643534D01*
G37*
G36*
X8470900Y653542D02*
G01*
X8485073Y654507D01*
X8498941Y657250D01*
X8512403Y661822D01*
X8525103Y668070D01*
X8536889Y675995D01*
X8547557Y685342D01*
X8556904Y696010D01*
X8564829Y707796D01*
X8571077Y720496D01*
X8575649Y733958D01*
X8578392Y747826D01*
X8579358Y762000D01*
X8578392Y776173D01*
X8575649Y790041D01*
X8571077Y803503D01*
X8564829Y816203D01*
X8556904Y827989D01*
X8547557Y838657D01*
X8536889Y848004D01*
X8525103Y855929D01*
X8512403Y862177D01*
X8498941Y866749D01*
X8485073Y869492D01*
X8470900Y870458D01*
X8456726Y869492D01*
X8442858Y866749D01*
X8429396Y862177D01*
X8416696Y855929D01*
X8404910Y848004D01*
X8394242Y838657D01*
X8384895Y827989D01*
X8376970Y816203D01*
X8370722Y803503D01*
X8366150Y790041D01*
X8363407Y776173D01*
X8362442Y762000D01*
X8363407Y747826D01*
X8366150Y733958D01*
X8370722Y720496D01*
X8376970Y707796D01*
X8384895Y696010D01*
X8394242Y685342D01*
X8404910Y675995D01*
X8416696Y668070D01*
X8429396Y661822D01*
X8442858Y657250D01*
X8456726Y654507D01*
G37*
G36*
X8264550Y664819D02*
G01*
X8271103Y668070D01*
X8282889Y675995D01*
X8293557Y685342D01*
X8302904Y696010D01*
X8310829Y707796D01*
X8314080Y714349D01*
X8264550Y714349D01*
G37*
G36*
X8169300Y664819D02*
G01*
X8169300Y714349D01*
X8119719Y714349D01*
X8122970Y707796D01*
X8130895Y696010D01*
X8140242Y685342D01*
X8150910Y675995D01*
X8162696Y668070D01*
G37*
G36*
X6032500Y731012D02*
G01*
X6047232Y731926D01*
X6061760Y734669D01*
X6075781Y739140D01*
X6089192Y745286D01*
X6101740Y753059D01*
X6113272Y762304D01*
X6123533Y772922D01*
X6132423Y784707D01*
X6139789Y797458D01*
X6145530Y811072D01*
X6149594Y825246D01*
X6151880Y839825D01*
X6152337Y854608D01*
X6150965Y869289D01*
X6147816Y883716D01*
X6142888Y897636D01*
X6136284Y910844D01*
X6128156Y923137D01*
X6118555Y934364D01*
X6107633Y944270D01*
X6095593Y952804D01*
X6082588Y959815D01*
X6068822Y965149D01*
X6054547Y968705D01*
X6039866Y970534D01*
X6025134Y970534D01*
X6010452Y968705D01*
X5996178Y965149D01*
X5982411Y959815D01*
X5969406Y952804D01*
X5957366Y944270D01*
X5946444Y934364D01*
X5936843Y923137D01*
X5928715Y910844D01*
X5922111Y897636D01*
X5917184Y883716D01*
X5914034Y869289D01*
X5912713Y854608D01*
X5913120Y839825D01*
X5915406Y825246D01*
X5919470Y811072D01*
X5925210Y797458D01*
X5932576Y784707D01*
X5941466Y772922D01*
X5951728Y762304D01*
X5963259Y753059D01*
X5975807Y745286D01*
X5989218Y739140D01*
X6003239Y734669D01*
X6017768Y731926D01*
G37*
G36*
X5499100Y731012D02*
G01*
X5513832Y731926D01*
X5528360Y734669D01*
X5542381Y739140D01*
X5555792Y745286D01*
X5568340Y753059D01*
X5579872Y762304D01*
X5590133Y772922D01*
X5599023Y784707D01*
X5606389Y797458D01*
X5612130Y811072D01*
X5616194Y825246D01*
X5618480Y839825D01*
X5618937Y854608D01*
X5617565Y869289D01*
X5614416Y883716D01*
X5609488Y897636D01*
X5602884Y910844D01*
X5594756Y923137D01*
X5585155Y934364D01*
X5574233Y944270D01*
X5562193Y952804D01*
X5549188Y959815D01*
X5535422Y965149D01*
X5521147Y968705D01*
X5506466Y970534D01*
X5491734Y970534D01*
X5477052Y968705D01*
X5462778Y965149D01*
X5449011Y959815D01*
X5436006Y952804D01*
X5423966Y944270D01*
X5413044Y934364D01*
X5403443Y923137D01*
X5395315Y910844D01*
X5388711Y897636D01*
X5383784Y883716D01*
X5380634Y869289D01*
X5379313Y854608D01*
X5379720Y839825D01*
X5382006Y825246D01*
X5386070Y811072D01*
X5391810Y797458D01*
X5399176Y784707D01*
X5408066Y772922D01*
X5418328Y762304D01*
X5429859Y753059D01*
X5442407Y745286D01*
X5455818Y739140D01*
X5469839Y734669D01*
X5484368Y731926D01*
G37*
G36*
X4699000Y731012D02*
G01*
X4713732Y731926D01*
X4728260Y734669D01*
X4742281Y739140D01*
X4755692Y745286D01*
X4768240Y753059D01*
X4779772Y762304D01*
X4790033Y772922D01*
X4798923Y784707D01*
X4806289Y797458D01*
X4812030Y811072D01*
X4816094Y825246D01*
X4818380Y839825D01*
X4818837Y854608D01*
X4817465Y869289D01*
X4814316Y883716D01*
X4809388Y897636D01*
X4802784Y910844D01*
X4794656Y923137D01*
X4785055Y934364D01*
X4774133Y944270D01*
X4762093Y952804D01*
X4749088Y959815D01*
X4735322Y965149D01*
X4721047Y968705D01*
X4706366Y970534D01*
X4691634Y970534D01*
X4676952Y968705D01*
X4662678Y965149D01*
X4648911Y959815D01*
X4635906Y952804D01*
X4623866Y944270D01*
X4612944Y934364D01*
X4603343Y923137D01*
X4595215Y910844D01*
X4588611Y897636D01*
X4583684Y883716D01*
X4580534Y869289D01*
X4579213Y854608D01*
X4579620Y839825D01*
X4581906Y825246D01*
X4585970Y811072D01*
X4591710Y797458D01*
X4599076Y784707D01*
X4607966Y772922D01*
X4618228Y762304D01*
X4629759Y753059D01*
X4642307Y745286D01*
X4655718Y739140D01*
X4669739Y734669D01*
X4684268Y731926D01*
G37*
G36*
X4965700Y731012D02*
G01*
X4980432Y731926D01*
X4994960Y734669D01*
X5008981Y739140D01*
X5022392Y745286D01*
X5034940Y753059D01*
X5046472Y762304D01*
X5056733Y772922D01*
X5065623Y784707D01*
X5072989Y797458D01*
X5078730Y811072D01*
X5082794Y825246D01*
X5085080Y839825D01*
X5085537Y854608D01*
X5084165Y869289D01*
X5081016Y883716D01*
X5076088Y897636D01*
X5069484Y910844D01*
X5061356Y923137D01*
X5051755Y934364D01*
X5040833Y944270D01*
X5028793Y952804D01*
X5015788Y959815D01*
X5002022Y965149D01*
X4999278Y965809D01*
X4995316Y967841D01*
X4992573Y971346D01*
X4991608Y975664D01*
X4991608Y1110081D01*
X4992370Y1113993D01*
X4994605Y1117295D01*
X5204917Y1327607D01*
X5208117Y1329791D01*
X5211927Y1330604D01*
X5225186Y1327912D01*
X5234838Y1327454D01*
X5244388Y1328724D01*
X5253583Y1331518D01*
X5262219Y1335887D01*
X5269992Y1341628D01*
X5276646Y1348587D01*
X5282031Y1356563D01*
X5286044Y1365351D01*
X5288432Y1374698D01*
X5289296Y1384300D01*
X5288432Y1393901D01*
X5286044Y1403248D01*
X5282031Y1412036D01*
X5276646Y1420012D01*
X5269992Y1426972D01*
X5262219Y1432712D01*
X5253583Y1437081D01*
X5244388Y1439875D01*
X5234838Y1441145D01*
X5225186Y1440688D01*
X5215737Y1438656D01*
X5206796Y1435100D01*
X5198567Y1430020D01*
X5191353Y1423670D01*
X5189220Y1421130D01*
X4926076Y1157935D01*
X4920945Y1151737D01*
X4917389Y1145032D01*
X4915204Y1137818D01*
X4914392Y1129792D01*
X4914392Y965200D01*
X4913731Y961644D01*
X4911902Y958545D01*
X4909058Y956259D01*
X4902606Y952804D01*
X4890566Y944270D01*
X4879644Y934364D01*
X4870043Y923137D01*
X4861915Y910844D01*
X4855311Y897636D01*
X4850384Y883716D01*
X4847234Y869289D01*
X4845913Y854608D01*
X4846320Y839825D01*
X4848606Y825246D01*
X4852670Y811072D01*
X4858410Y797458D01*
X4865776Y784707D01*
X4874666Y772922D01*
X4884928Y762304D01*
X4896459Y753059D01*
X4909007Y745286D01*
X4922418Y739140D01*
X4936439Y734669D01*
X4950968Y731926D01*
G37*
G36*
X5232400Y731012D02*
G01*
X5247132Y731926D01*
X5261660Y734669D01*
X5275681Y739140D01*
X5289092Y745286D01*
X5301640Y753059D01*
X5313172Y762304D01*
X5323433Y772922D01*
X5332323Y784707D01*
X5339689Y797458D01*
X5345430Y811072D01*
X5349494Y825246D01*
X5351780Y839825D01*
X5352237Y854608D01*
X5350865Y869289D01*
X5347716Y883716D01*
X5342534Y898296D01*
X5341975Y902004D01*
X5342788Y905713D01*
X5344922Y908862D01*
X5499150Y1063040D01*
X5502249Y1065174D01*
X5505856Y1066038D01*
X5509564Y1065530D01*
X5512816Y1063701D01*
X5521553Y1052830D01*
X5528767Y1046480D01*
X5536996Y1041400D01*
X5545937Y1037844D01*
X5555386Y1035812D01*
X5560872Y1035558D01*
X5564530Y1034694D01*
X5567629Y1032611D01*
X5573064Y1027176D01*
X5579262Y1022045D01*
X5585968Y1018489D01*
X5593181Y1016304D01*
X5601208Y1015492D01*
X5796280Y1015492D01*
X5799836Y1014831D01*
X5802985Y1012952D01*
X5808167Y1008380D01*
X5816396Y1003300D01*
X5825337Y999744D01*
X5827217Y999337D01*
X5831078Y997610D01*
X5833872Y994460D01*
X5835192Y990447D01*
X5834735Y986231D01*
X5832602Y982573D01*
X5817768Y966114D01*
X5814466Y963676D01*
X5810554Y962761D01*
X5806541Y963421D01*
X5802122Y965149D01*
X5787847Y968705D01*
X5773166Y970534D01*
X5758434Y970534D01*
X5743752Y968705D01*
X5729478Y965149D01*
X5715711Y959815D01*
X5702706Y952804D01*
X5690666Y944270D01*
X5679744Y934364D01*
X5670143Y923137D01*
X5662015Y910844D01*
X5655411Y897636D01*
X5650484Y883716D01*
X5647334Y869289D01*
X5646013Y854608D01*
X5646420Y839825D01*
X5648706Y825246D01*
X5652770Y811072D01*
X5658510Y797458D01*
X5665876Y784707D01*
X5674766Y772922D01*
X5685028Y762304D01*
X5696559Y753059D01*
X5709107Y745286D01*
X5722518Y739140D01*
X5736539Y734669D01*
X5751068Y731926D01*
X5765800Y731012D01*
X5780532Y731926D01*
X5795060Y734669D01*
X5809081Y739140D01*
X5822492Y745286D01*
X5835040Y753059D01*
X5846572Y762304D01*
X5856833Y772922D01*
X5865723Y784707D01*
X5873089Y797458D01*
X5878830Y811072D01*
X5882894Y825246D01*
X5885180Y839825D01*
X5885637Y854608D01*
X5884265Y869289D01*
X5881116Y883716D01*
X5876188Y897636D01*
X5873496Y903020D01*
X5872480Y906881D01*
X5872988Y910894D01*
X5875070Y914349D01*
X6249822Y1329639D01*
X6253276Y1332128D01*
X6257391Y1332992D01*
X6424168Y1332992D01*
X6432194Y1333804D01*
X6439408Y1335989D01*
X6446113Y1339545D01*
X6452311Y1344676D01*
X7289292Y2181656D01*
X7292746Y2183892D01*
X7296810Y2184603D01*
X7301484Y2183333D01*
X7315352Y2178812D01*
X7329627Y2176119D01*
X7344156Y2175205D01*
X7358684Y2176119D01*
X7372959Y2178812D01*
X7386828Y2183333D01*
X7399985Y2189530D01*
X7412278Y2197303D01*
X7423505Y2206599D01*
X7433462Y2217216D01*
X7441996Y2229002D01*
X7449007Y2241753D01*
X7454392Y2255266D01*
X7457998Y2269388D01*
X7459827Y2283815D01*
X7459827Y2298344D01*
X7457998Y2312771D01*
X7454392Y2326894D01*
X7449007Y2340406D01*
X7441996Y2353157D01*
X7433462Y2364943D01*
X7423505Y2375560D01*
X7412278Y2384856D01*
X7399985Y2392629D01*
X7386828Y2398826D01*
X7372959Y2403348D01*
X7358684Y2406040D01*
X7344156Y2406954D01*
X7329627Y2406040D01*
X7315352Y2403348D01*
X7301484Y2398826D01*
X7288326Y2392629D01*
X7276033Y2384856D01*
X7264806Y2375560D01*
X7254849Y2364943D01*
X7253579Y2363165D01*
X7250785Y2360574D01*
X7247229Y2359152D01*
X7243470Y2359152D01*
X7239914Y2360574D01*
X7237120Y2363165D01*
X7235850Y2364943D01*
X7225893Y2375560D01*
X7214666Y2384856D01*
X7202373Y2392629D01*
X7189216Y2398826D01*
X7175347Y2403348D01*
X7161072Y2406040D01*
X7146544Y2406954D01*
X7132015Y2406040D01*
X7117740Y2403348D01*
X7103872Y2398826D01*
X7099198Y2397556D01*
X7095134Y2398268D01*
X7091680Y2400503D01*
X6795414Y2696768D01*
X6793230Y2700070D01*
X6792468Y2703931D01*
X6793230Y2707843D01*
X6795414Y2711145D01*
X6798716Y2713329D01*
X6802628Y2714091D01*
X7312406Y2714091D01*
X7316266Y2713329D01*
X7319568Y2711145D01*
X7684922Y2345791D01*
X7687106Y2342540D01*
X7687919Y2338679D01*
X7687157Y2334869D01*
X7684008Y2326894D01*
X7680401Y2312771D01*
X7678572Y2298344D01*
X7678572Y2283815D01*
X7680401Y2269388D01*
X7684008Y2255266D01*
X7689392Y2241753D01*
X7696403Y2229002D01*
X7704937Y2217216D01*
X7714894Y2206599D01*
X7726121Y2197303D01*
X7738414Y2189530D01*
X7751572Y2183333D01*
X7765440Y2178812D01*
X7779715Y2176119D01*
X7794244Y2175205D01*
X7796377Y2175306D01*
X7800390Y2174748D01*
X7803896Y2172665D01*
X7806283Y2169363D01*
X7807198Y2165400D01*
X7806436Y2161387D01*
X7804200Y2157984D01*
X6843471Y1197305D01*
X6840169Y1195070D01*
X6836308Y1194308D01*
X6319621Y1194308D01*
X6315659Y1195120D01*
X6303619Y1204112D01*
X6294983Y1208481D01*
X6285788Y1211275D01*
X6276238Y1212545D01*
X6266586Y1212088D01*
X6257137Y1210056D01*
X6248196Y1206500D01*
X6239967Y1201420D01*
X6232753Y1195070D01*
X6226657Y1187551D01*
X6221984Y1179118D01*
X6218783Y1170025D01*
X6217158Y1160526D01*
X6217158Y1150874D01*
X6218783Y1141374D01*
X6221984Y1132281D01*
X6226657Y1123848D01*
X6232753Y1116330D01*
X6239967Y1109980D01*
X6248196Y1104900D01*
X6257137Y1101344D01*
X6266586Y1099312D01*
X6276238Y1098854D01*
X6285788Y1100124D01*
X6294983Y1102918D01*
X6303619Y1107287D01*
X6315659Y1116279D01*
X6319621Y1117092D01*
X6856018Y1117092D01*
X6864045Y1117904D01*
X6871258Y1120089D01*
X6877913Y1123645D01*
X6884162Y1128776D01*
X7937042Y2181606D01*
X7940497Y2183892D01*
X7944510Y2184603D01*
X7949184Y2183333D01*
X7963052Y2178812D01*
X7977327Y2176119D01*
X7991856Y2175205D01*
X8006384Y2176119D01*
X8020659Y2178812D01*
X8034528Y2183333D01*
X8047685Y2189530D01*
X8059978Y2197303D01*
X8071205Y2206599D01*
X8081162Y2217216D01*
X8089696Y2229002D01*
X8096707Y2241753D01*
X8102092Y2255266D01*
X8105698Y2269388D01*
X8107527Y2283815D01*
X8107527Y2298344D01*
X8105698Y2312771D01*
X8102092Y2326894D01*
X8096707Y2340406D01*
X8089696Y2353157D01*
X8081162Y2364943D01*
X8071205Y2375560D01*
X8059978Y2384856D01*
X8047685Y2392629D01*
X8034528Y2398826D01*
X8020659Y2403348D01*
X8006384Y2406040D01*
X7991856Y2406954D01*
X7977327Y2406040D01*
X7963052Y2403348D01*
X7949184Y2398826D01*
X7936026Y2392629D01*
X7923733Y2384856D01*
X7912506Y2375560D01*
X7902549Y2364943D01*
X7901279Y2363165D01*
X7898485Y2360574D01*
X7894929Y2359152D01*
X7891170Y2359152D01*
X7887614Y2360574D01*
X7884820Y2363165D01*
X7883550Y2364943D01*
X7873593Y2375560D01*
X7862366Y2384856D01*
X7850073Y2392629D01*
X7836916Y2398826D01*
X7823047Y2403348D01*
X7808772Y2406040D01*
X7794244Y2406954D01*
X7779715Y2406040D01*
X7765440Y2403348D01*
X7751572Y2398826D01*
X7746898Y2397556D01*
X7742834Y2398268D01*
X7739380Y2400503D01*
X7443114Y2696768D01*
X7440930Y2700070D01*
X7440168Y2703931D01*
X7440930Y2707843D01*
X7443114Y2711145D01*
X7446416Y2713329D01*
X7450328Y2714091D01*
X7960106Y2714091D01*
X7963966Y2713329D01*
X7967268Y2711145D01*
X8332622Y2345791D01*
X8334806Y2342540D01*
X8335619Y2338679D01*
X8334857Y2334869D01*
X8331708Y2326894D01*
X8328101Y2312771D01*
X8326272Y2298344D01*
X8326272Y2283815D01*
X8328101Y2269388D01*
X8331708Y2255266D01*
X8337092Y2241753D01*
X8344103Y2229002D01*
X8352637Y2217216D01*
X8362594Y2206599D01*
X8373821Y2197303D01*
X8386114Y2189530D01*
X8399272Y2183333D01*
X8413140Y2178812D01*
X8427415Y2176119D01*
X8441944Y2175205D01*
X8456472Y2176119D01*
X8470747Y2178812D01*
X8484616Y2183333D01*
X8497773Y2189530D01*
X8510066Y2197303D01*
X8521293Y2206599D01*
X8531250Y2217216D01*
X8532520Y2218994D01*
X8535314Y2221585D01*
X8538870Y2223008D01*
X8542629Y2223008D01*
X8546185Y2221585D01*
X8548979Y2218994D01*
X8550249Y2217216D01*
X8560206Y2206599D01*
X8571433Y2197303D01*
X8583726Y2189530D01*
X8596884Y2183333D01*
X8610752Y2178812D01*
X8625027Y2176119D01*
X8639556Y2175205D01*
X8654084Y2176119D01*
X8668359Y2178812D01*
X8682228Y2183333D01*
X8695385Y2189530D01*
X8707678Y2197303D01*
X8718905Y2206599D01*
X8728862Y2217216D01*
X8737396Y2229002D01*
X8744407Y2241753D01*
X8749792Y2255266D01*
X8753398Y2269388D01*
X8755227Y2283815D01*
X8755227Y2298344D01*
X8753398Y2312771D01*
X8749792Y2326894D01*
X8744407Y2340406D01*
X8737396Y2353157D01*
X8728862Y2364943D01*
X8718905Y2375560D01*
X8707678Y2384856D01*
X8695385Y2392629D01*
X8682228Y2398826D01*
X8668359Y2403348D01*
X8654084Y2406040D01*
X8639556Y2406954D01*
X8625027Y2406040D01*
X8610752Y2403348D01*
X8596884Y2398826D01*
X8583726Y2392629D01*
X8571433Y2384856D01*
X8560206Y2375560D01*
X8550249Y2364943D01*
X8548979Y2363165D01*
X8546185Y2360574D01*
X8542629Y2359152D01*
X8538870Y2359152D01*
X8535314Y2360574D01*
X8532520Y2363165D01*
X8531250Y2364943D01*
X8521293Y2375560D01*
X8510066Y2384856D01*
X8497773Y2392629D01*
X8484616Y2398826D01*
X8470747Y2403348D01*
X8456472Y2406040D01*
X8441944Y2406954D01*
X8427415Y2406040D01*
X8413140Y2403348D01*
X8399272Y2398826D01*
X8394598Y2397556D01*
X8390534Y2398268D01*
X8387080Y2400503D01*
X8090814Y2696768D01*
X8088630Y2700070D01*
X8087868Y2703931D01*
X8088630Y2707843D01*
X8090814Y2711145D01*
X8094116Y2713329D01*
X8098028Y2714091D01*
X8607806Y2714091D01*
X8611666Y2713329D01*
X8614968Y2711145D01*
X8980322Y2345791D01*
X8982506Y2342540D01*
X8983319Y2338679D01*
X8982557Y2334869D01*
X8979408Y2326894D01*
X8975801Y2312771D01*
X8973972Y2298344D01*
X8973972Y2283815D01*
X8975801Y2269388D01*
X8979408Y2255266D01*
X8984792Y2241753D01*
X8991803Y2229002D01*
X9000337Y2217216D01*
X9010294Y2206599D01*
X9021521Y2197303D01*
X9033814Y2189530D01*
X9046972Y2183333D01*
X9060840Y2178812D01*
X9075115Y2176119D01*
X9089644Y2175205D01*
X9104172Y2176119D01*
X9118447Y2178812D01*
X9132316Y2183333D01*
X9145473Y2189530D01*
X9157766Y2197303D01*
X9168993Y2206599D01*
X9178950Y2217216D01*
X9187484Y2229002D01*
X9194495Y2241753D01*
X9199880Y2255266D01*
X9203486Y2269388D01*
X9205315Y2283815D01*
X9205315Y2298344D01*
X9203486Y2312771D01*
X9199880Y2326894D01*
X9194495Y2340406D01*
X9187484Y2353157D01*
X9178950Y2364943D01*
X9168993Y2375560D01*
X9157766Y2384856D01*
X9145473Y2392629D01*
X9132316Y2398826D01*
X9118447Y2403348D01*
X9104172Y2406040D01*
X9089644Y2406954D01*
X9075115Y2406040D01*
X9060840Y2403348D01*
X9046972Y2398826D01*
X9042298Y2397556D01*
X9038234Y2398268D01*
X9034780Y2400503D01*
X8655659Y2779674D01*
X8649411Y2784754D01*
X8642756Y2788361D01*
X8635492Y2790545D01*
X8627465Y2791307D01*
X4863592Y2791307D01*
X4859680Y2792069D01*
X4856378Y2794304D01*
X4689906Y2960827D01*
X4687620Y2964230D01*
X4686909Y2968193D01*
X4687824Y2972155D01*
X4690211Y2975457D01*
X4693666Y2977591D01*
X4697730Y2978150D01*
X4702556Y2977845D01*
X4717084Y2978759D01*
X4731359Y2981452D01*
X4745228Y2985973D01*
X4758385Y2992170D01*
X4770678Y2999943D01*
X4781905Y3009239D01*
X4791862Y3019856D01*
X4800396Y3031642D01*
X4807407Y3044393D01*
X4812792Y3057906D01*
X4816398Y3072028D01*
X4818227Y3086455D01*
X4818227Y3100984D01*
X4816398Y3115411D01*
X4812792Y3129534D01*
X4807407Y3143046D01*
X4800396Y3155797D01*
X4791862Y3167583D01*
X4781905Y3178200D01*
X4770678Y3187496D01*
X4758385Y3195269D01*
X4745228Y3201466D01*
X4731359Y3205988D01*
X4717084Y3208680D01*
X4702556Y3209594D01*
X4688027Y3208680D01*
X4673752Y3205988D01*
X4659884Y3201466D01*
X4646726Y3195269D01*
X4634433Y3187496D01*
X4623206Y3178200D01*
X4613249Y3167583D01*
X4604715Y3155797D01*
X4597704Y3143046D01*
X4592320Y3129534D01*
X4588713Y3115411D01*
X4586884Y3100984D01*
X4586884Y3088335D01*
X4586122Y3084423D01*
X4583938Y3081121D01*
X4580636Y3078937D01*
X4576724Y3078175D01*
X4572863Y3078937D01*
X4569561Y3081121D01*
X4512005Y3138728D01*
X4509770Y3142030D01*
X4509008Y3145891D01*
X4509008Y4076192D01*
X4509820Y4080103D01*
X4512056Y4083405D01*
X4515408Y4085590D01*
X4519269Y4087114D01*
X4531918Y4094073D01*
X4543552Y4102557D01*
X4554067Y4112412D01*
X4563262Y4123537D01*
X4570984Y4135678D01*
X4577130Y4148734D01*
X4581601Y4162450D01*
X4584293Y4176623D01*
X4585208Y4191000D01*
X4584293Y4205376D01*
X4581601Y4219549D01*
X4577130Y4233265D01*
X4570984Y4246321D01*
X4563262Y4258462D01*
X4554067Y4269587D01*
X4543552Y4279442D01*
X4531918Y4287926D01*
X4519269Y4294886D01*
X4505858Y4300169D01*
X4491888Y4303776D01*
X4477613Y4305554D01*
X4463186Y4305554D01*
X4448911Y4303776D01*
X4434941Y4300169D01*
X4421530Y4294886D01*
X4408881Y4287926D01*
X4397248Y4279442D01*
X4386732Y4269587D01*
X4377537Y4258462D01*
X4369816Y4246321D01*
X4363669Y4233265D01*
X4359198Y4219549D01*
X4356506Y4205376D01*
X4355592Y4191000D01*
X4356506Y4176623D01*
X4359198Y4162450D01*
X4363669Y4148734D01*
X4369816Y4135678D01*
X4377537Y4123537D01*
X4386732Y4112412D01*
X4397248Y4102557D01*
X4408881Y4094073D01*
X4421530Y4087114D01*
X4425391Y4085590D01*
X4428744Y4083405D01*
X4430979Y4080103D01*
X4431792Y4076192D01*
X4431792Y3126181D01*
X4432604Y3118154D01*
X4434789Y3110941D01*
X4438345Y3104286D01*
X4443476Y3098038D01*
X5043322Y2498191D01*
X5045506Y2494940D01*
X5046319Y2491079D01*
X5045557Y2487269D01*
X5042408Y2479294D01*
X5038801Y2465171D01*
X5036972Y2450744D01*
X5036972Y2436215D01*
X5038801Y2421788D01*
X5042408Y2407666D01*
X5047792Y2394153D01*
X5054803Y2381402D01*
X5063337Y2369616D01*
X5073294Y2358999D01*
X5084521Y2349703D01*
X5096814Y2341930D01*
X5109972Y2335733D01*
X5123840Y2331212D01*
X5138115Y2328519D01*
X5152644Y2327605D01*
X5167172Y2328519D01*
X5181447Y2331212D01*
X5191607Y2334514D01*
X5195468Y2335022D01*
X5199227Y2334006D01*
X5202326Y2331669D01*
X5204307Y2328316D01*
X5204917Y2324506D01*
X5204002Y2320696D01*
X5201767Y2317546D01*
X5066284Y2187143D01*
X5061051Y2181047D01*
X5057343Y2174443D01*
X5055057Y2167280D01*
X5054092Y2158441D01*
X5054092Y1970532D01*
X5053126Y1966264D01*
X5050434Y1962759D01*
X5046522Y1960727D01*
X5042103Y1960575D01*
X5038039Y1962251D01*
X5028793Y1968804D01*
X5019040Y1974037D01*
X5019040Y1920239D01*
X5043932Y1920239D01*
X5047843Y1919478D01*
X5051094Y1917242D01*
X5053330Y1913991D01*
X5054092Y1910080D01*
X5054092Y1823720D01*
X5053330Y1819808D01*
X5051094Y1816557D01*
X5047843Y1814322D01*
X5043932Y1813560D01*
X5019040Y1813560D01*
X5019040Y1775866D01*
X5018278Y1771954D01*
X5016042Y1768652D01*
X4989576Y1742135D01*
X4984445Y1735937D01*
X4980889Y1729232D01*
X4978704Y1722018D01*
X4977892Y1713992D01*
X4977892Y1468018D01*
X4977130Y1464106D01*
X4974894Y1460804D01*
X4932629Y1418488D01*
X4929530Y1416405D01*
X4925872Y1415542D01*
X4920386Y1415288D01*
X4910937Y1413256D01*
X4901996Y1409700D01*
X4893767Y1404620D01*
X4886553Y1398270D01*
X4880457Y1390751D01*
X4875784Y1382318D01*
X4872583Y1373225D01*
X4870958Y1363726D01*
X4870958Y1354074D01*
X4872583Y1344574D01*
X4875784Y1335481D01*
X4880457Y1327048D01*
X4886553Y1319530D01*
X4893767Y1313180D01*
X4901996Y1308100D01*
X4910937Y1304544D01*
X4920386Y1302512D01*
X4930038Y1302054D01*
X4939588Y1303324D01*
X4948783Y1306118D01*
X4957419Y1310487D01*
X4965192Y1316228D01*
X4971846Y1323187D01*
X4977231Y1331163D01*
X4981244Y1339951D01*
X4983632Y1349298D01*
X4984343Y1357680D01*
X4985258Y1361084D01*
X4987290Y1364030D01*
X5043424Y1420164D01*
X5048554Y1426362D01*
X5052110Y1433068D01*
X5054295Y1440281D01*
X5055108Y1448308D01*
X5055108Y1694281D01*
X5055870Y1698193D01*
X5058105Y1701495D01*
X5119624Y1763064D01*
X5124754Y1769262D01*
X5128310Y1775968D01*
X5129428Y1779574D01*
X5131460Y1783232D01*
X5134762Y1785772D01*
X5138826Y1786788D01*
X5142941Y1786026D01*
X5146446Y1783689D01*
X5151628Y1778304D01*
X5163159Y1769059D01*
X5175707Y1761286D01*
X5179060Y1759762D01*
X5179060Y1813560D01*
X5141468Y1813560D01*
X5137556Y1814322D01*
X5134305Y1816557D01*
X5132070Y1819808D01*
X5131308Y1823720D01*
X5131308Y1910080D01*
X5132070Y1913991D01*
X5134305Y1917242D01*
X5137556Y1919478D01*
X5141468Y1920239D01*
X5179060Y1920239D01*
X5179060Y1974037D01*
X5169306Y1968804D01*
X5157266Y1960270D01*
X5148326Y1952142D01*
X5144973Y1950110D01*
X5141163Y1949500D01*
X5137353Y1950364D01*
X5134152Y1952548D01*
X5132070Y1955850D01*
X5131308Y1959660D01*
X5131308Y2138222D01*
X5132120Y2142236D01*
X5134406Y2145588D01*
X5331510Y2335174D01*
X5334914Y2337358D01*
X5338927Y2338019D01*
X5342890Y2337054D01*
X5345684Y2335733D01*
X5359552Y2331212D01*
X5373827Y2328519D01*
X5388356Y2327605D01*
X5402884Y2328519D01*
X5417159Y2331212D01*
X5431028Y2335733D01*
X5444185Y2341930D01*
X5456478Y2349703D01*
X5467705Y2358999D01*
X5477662Y2369616D01*
X5486196Y2381402D01*
X5493207Y2394153D01*
X5498592Y2407666D01*
X5502198Y2421788D01*
X5504027Y2436215D01*
X5504027Y2450744D01*
X5502198Y2465171D01*
X5498592Y2479294D01*
X5493207Y2492806D01*
X5486196Y2505557D01*
X5477662Y2517343D01*
X5467705Y2527960D01*
X5456478Y2537256D01*
X5444185Y2545029D01*
X5431028Y2551226D01*
X5417159Y2555748D01*
X5402884Y2558440D01*
X5388356Y2559354D01*
X5373827Y2558440D01*
X5359552Y2555748D01*
X5345684Y2551226D01*
X5332526Y2545029D01*
X5320233Y2537256D01*
X5309006Y2527960D01*
X5299049Y2517343D01*
X5290515Y2505557D01*
X5283504Y2492806D01*
X5279948Y2483866D01*
X5277764Y2480462D01*
X5274462Y2478227D01*
X5270500Y2477414D01*
X5266537Y2478227D01*
X5263235Y2480462D01*
X5261051Y2483866D01*
X5257495Y2492806D01*
X5250484Y2505557D01*
X5241950Y2517343D01*
X5231993Y2527960D01*
X5220766Y2537256D01*
X5208473Y2545029D01*
X5195316Y2551226D01*
X5181447Y2555748D01*
X5167172Y2558440D01*
X5152644Y2559354D01*
X5138115Y2558440D01*
X5123840Y2555748D01*
X5109972Y2551226D01*
X5105298Y2549956D01*
X5101234Y2550668D01*
X5097780Y2552903D01*
X4953914Y2696768D01*
X4951730Y2700070D01*
X4950968Y2703931D01*
X4951730Y2707843D01*
X4953914Y2711145D01*
X4957216Y2713329D01*
X4961128Y2714091D01*
X5509006Y2714091D01*
X5512866Y2713329D01*
X5516168Y2711145D01*
X5729122Y2498191D01*
X5731306Y2494940D01*
X5732119Y2491079D01*
X5731357Y2487269D01*
X5728208Y2479294D01*
X5724601Y2465171D01*
X5722772Y2450744D01*
X5722772Y2436215D01*
X5724601Y2421788D01*
X5728208Y2407666D01*
X5733592Y2394153D01*
X5740603Y2381402D01*
X5749137Y2369616D01*
X5759094Y2358999D01*
X5770321Y2349703D01*
X5782614Y2341930D01*
X5795772Y2335733D01*
X5809640Y2331212D01*
X5823915Y2328519D01*
X5838444Y2327605D01*
X5852972Y2328519D01*
X5867247Y2331212D01*
X5881116Y2335733D01*
X5894273Y2341930D01*
X5906566Y2349703D01*
X5917793Y2358999D01*
X5927750Y2369616D01*
X5936284Y2381402D01*
X5943295Y2394153D01*
X5948680Y2407666D01*
X5952286Y2421788D01*
X5954115Y2436215D01*
X5954115Y2450744D01*
X5952286Y2465171D01*
X5948680Y2479294D01*
X5943295Y2492806D01*
X5936284Y2505557D01*
X5927750Y2517343D01*
X5917793Y2527960D01*
X5906566Y2537256D01*
X5894273Y2545029D01*
X5881116Y2551226D01*
X5867247Y2555748D01*
X5852972Y2558440D01*
X5838444Y2559354D01*
X5823915Y2558440D01*
X5809640Y2555748D01*
X5795772Y2551226D01*
X5791098Y2549956D01*
X5787034Y2550668D01*
X5783580Y2552903D01*
X5639714Y2696768D01*
X5637530Y2700070D01*
X5636768Y2703931D01*
X5637530Y2707843D01*
X5639714Y2711145D01*
X5643016Y2713329D01*
X5646928Y2714091D01*
X6017006Y2714091D01*
X6020866Y2713329D01*
X6024168Y2711145D01*
X6389522Y2345791D01*
X6391706Y2342540D01*
X6392519Y2338679D01*
X6391757Y2334869D01*
X6388608Y2326894D01*
X6385001Y2312771D01*
X6383172Y2298344D01*
X6383172Y2283815D01*
X6385001Y2269388D01*
X6388608Y2255266D01*
X6393992Y2241753D01*
X6401003Y2229002D01*
X6409537Y2217216D01*
X6419494Y2206599D01*
X6430721Y2197303D01*
X6443014Y2189530D01*
X6456172Y2183333D01*
X6470040Y2178812D01*
X6484315Y2176119D01*
X6498844Y2175205D01*
X6500977Y2175306D01*
X6504990Y2174748D01*
X6508496Y2172665D01*
X6510883Y2169363D01*
X6511798Y2165400D01*
X6511035Y2161387D01*
X6508800Y2157984D01*
X6450076Y2099259D01*
X6444945Y2093010D01*
X6441389Y2086356D01*
X6439204Y2079091D01*
X6438392Y2071116D01*
X6438392Y1811274D01*
X6437833Y1807870D01*
X6436156Y1804873D01*
X6429857Y1797151D01*
X6425184Y1788718D01*
X6421983Y1779625D01*
X6420358Y1770125D01*
X6420358Y1760474D01*
X6421983Y1750974D01*
X6425184Y1741881D01*
X6429857Y1733448D01*
X6435953Y1725930D01*
X6443167Y1719580D01*
X6451396Y1714500D01*
X6460337Y1710943D01*
X6469786Y1708912D01*
X6479540Y1708505D01*
X6483705Y1708150D01*
X6487414Y1706168D01*
X6489954Y1702917D01*
X6491020Y1698853D01*
X6490309Y1694738D01*
X6488023Y1691233D01*
X6387795Y1591005D01*
X6384493Y1588770D01*
X6380581Y1588008D01*
X5931408Y1588008D01*
X5923381Y1587195D01*
X5916168Y1585010D01*
X5909462Y1581454D01*
X5903264Y1576324D01*
X5290210Y963320D01*
X5286959Y961136D01*
X5283200Y960323D01*
X5279339Y961034D01*
X5268722Y965149D01*
X5254447Y968705D01*
X5239766Y970534D01*
X5225034Y970534D01*
X5210352Y968705D01*
X5196078Y965149D01*
X5182311Y959815D01*
X5169306Y952804D01*
X5157266Y944270D01*
X5146344Y934364D01*
X5136743Y923137D01*
X5128615Y910844D01*
X5122011Y897636D01*
X5117084Y883716D01*
X5113934Y869289D01*
X5112613Y854608D01*
X5113020Y839825D01*
X5115306Y825246D01*
X5119370Y811072D01*
X5125110Y797458D01*
X5132476Y784707D01*
X5141366Y772922D01*
X5151628Y762304D01*
X5163159Y753059D01*
X5175707Y745286D01*
X5189118Y739140D01*
X5203139Y734669D01*
X5217668Y731926D01*
G37*
G36*
X8264550Y809599D02*
G01*
X8314080Y809599D01*
X8310829Y816203D01*
X8302904Y827989D01*
X8293557Y838657D01*
X8282889Y848004D01*
X8271103Y855929D01*
X8264550Y859180D01*
G37*
G36*
X8119719Y809599D02*
G01*
X8169300Y809599D01*
X8169300Y859180D01*
X8162696Y855929D01*
X8150910Y848004D01*
X8140242Y838657D01*
X8130895Y827989D01*
X8122970Y816203D01*
G37*
G36*
X1178915Y871372D02*
G01*
X1193444Y871372D01*
X1207871Y873201D01*
X1221994Y876808D01*
X1235506Y882192D01*
X1248257Y889203D01*
X1260043Y897737D01*
X1270660Y907694D01*
X1279956Y918921D01*
X1287729Y931214D01*
X1293926Y944371D01*
X1298448Y958240D01*
X1301140Y972515D01*
X1302054Y987044D01*
X1301140Y1001572D01*
X1298448Y1015847D01*
X1293926Y1029716D01*
X1287729Y1042873D01*
X1279956Y1055166D01*
X1270660Y1066393D01*
X1260043Y1076350D01*
X1248257Y1084884D01*
X1235506Y1091895D01*
X1221994Y1097280D01*
X1207871Y1100886D01*
X1193444Y1102715D01*
X1178915Y1102715D01*
X1164488Y1100886D01*
X1150366Y1097280D01*
X1136853Y1091895D01*
X1124102Y1084884D01*
X1112316Y1076350D01*
X1101699Y1066393D01*
X1092403Y1055166D01*
X1084630Y1042873D01*
X1078433Y1029716D01*
X1073912Y1015847D01*
X1071219Y1001572D01*
X1070305Y987044D01*
X1071219Y972515D01*
X1073912Y958240D01*
X1078433Y944371D01*
X1084630Y931214D01*
X1092403Y918921D01*
X1101699Y907694D01*
X1112316Y897737D01*
X1124102Y889203D01*
X1136853Y882192D01*
X1150366Y876808D01*
X1164488Y873201D01*
G37*
G36*
X1829155Y871372D02*
G01*
X1843684Y871372D01*
X1858111Y873201D01*
X1872234Y876808D01*
X1885746Y882192D01*
X1898497Y889203D01*
X1910283Y897737D01*
X1920900Y907694D01*
X1930196Y918921D01*
X1937969Y931214D01*
X1944166Y944371D01*
X1948688Y958240D01*
X1951380Y972515D01*
X1952294Y987044D01*
X1951380Y1001572D01*
X1948688Y1015847D01*
X1944166Y1029716D01*
X1937969Y1042873D01*
X1930196Y1055166D01*
X1920900Y1066393D01*
X1910283Y1076350D01*
X1898497Y1084884D01*
X1885746Y1091895D01*
X1872234Y1097280D01*
X1858111Y1100886D01*
X1843684Y1102715D01*
X1829155Y1102715D01*
X1814728Y1100886D01*
X1800606Y1097280D01*
X1787093Y1091895D01*
X1774342Y1084884D01*
X1762556Y1076350D01*
X1751939Y1066393D01*
X1742643Y1055166D01*
X1734870Y1042873D01*
X1728673Y1029716D01*
X1724152Y1015847D01*
X1721459Y1001572D01*
X1720545Y987044D01*
X1721459Y972515D01*
X1724152Y958240D01*
X1728673Y944371D01*
X1734870Y931214D01*
X1742643Y918921D01*
X1751939Y907694D01*
X1762556Y897737D01*
X1774342Y889203D01*
X1787093Y882192D01*
X1800606Y876808D01*
X1814728Y873201D01*
G37*
G36*
X10051186Y1028446D02*
G01*
X10065613Y1028446D01*
X10079888Y1030224D01*
X10093858Y1033830D01*
X10107269Y1039114D01*
X10119918Y1046073D01*
X10131552Y1054557D01*
X10142067Y1064412D01*
X10151262Y1075537D01*
X10158984Y1087678D01*
X10165130Y1100734D01*
X10169601Y1114450D01*
X10172293Y1128623D01*
X10173208Y1143000D01*
X10172293Y1157376D01*
X10169601Y1171549D01*
X10165130Y1185265D01*
X10158984Y1198321D01*
X10151262Y1210462D01*
X10142067Y1221587D01*
X10131552Y1231442D01*
X10119918Y1239926D01*
X10107269Y1246886D01*
X10093858Y1252169D01*
X10079888Y1255776D01*
X10065613Y1257554D01*
X10051186Y1257554D01*
X10036911Y1255776D01*
X10022941Y1252169D01*
X10009530Y1246886D01*
X9996881Y1239926D01*
X9985248Y1231442D01*
X9974732Y1221587D01*
X9965537Y1210462D01*
X9957816Y1198321D01*
X9951669Y1185265D01*
X9947198Y1171549D01*
X9944506Y1157376D01*
X9943592Y1143000D01*
X9944506Y1128623D01*
X9947198Y1114450D01*
X9951669Y1100734D01*
X9957816Y1087678D01*
X9965537Y1075537D01*
X9974732Y1064412D01*
X9985248Y1054557D01*
X9996881Y1046073D01*
X10009530Y1039114D01*
X10022941Y1033830D01*
X10036911Y1030224D01*
G37*
G36*
X10305186Y1028446D02*
G01*
X10319613Y1028446D01*
X10333888Y1030224D01*
X10347858Y1033830D01*
X10361269Y1039114D01*
X10373918Y1046073D01*
X10385552Y1054557D01*
X10396067Y1064412D01*
X10405262Y1075537D01*
X10412984Y1087678D01*
X10419130Y1100734D01*
X10423601Y1114450D01*
X10426293Y1128623D01*
X10427208Y1143000D01*
X10426293Y1157376D01*
X10423601Y1171549D01*
X10419130Y1185265D01*
X10412984Y1198321D01*
X10405262Y1210462D01*
X10396067Y1221587D01*
X10385552Y1231442D01*
X10373918Y1239926D01*
X10361269Y1246886D01*
X10347858Y1252169D01*
X10333888Y1255776D01*
X10319613Y1257554D01*
X10305186Y1257554D01*
X10290911Y1255776D01*
X10276941Y1252169D01*
X10263530Y1246886D01*
X10250881Y1239926D01*
X10239248Y1231442D01*
X10228732Y1221587D01*
X10219537Y1210462D01*
X10211816Y1198321D01*
X10205669Y1185265D01*
X10201198Y1171549D01*
X10198506Y1157376D01*
X10197592Y1143000D01*
X10198506Y1128623D01*
X10201198Y1114450D01*
X10205669Y1100734D01*
X10211816Y1087678D01*
X10219537Y1075537D01*
X10228732Y1064412D01*
X10239248Y1054557D01*
X10250881Y1046073D01*
X10263530Y1039114D01*
X10276941Y1033830D01*
X10290911Y1030224D01*
G37*
G36*
X3634740Y1200962D02*
G01*
X3638092Y1202486D01*
X3650640Y1210259D01*
X3662172Y1219504D01*
X3672433Y1230122D01*
X3681323Y1241907D01*
X3688740Y1254760D01*
X3634740Y1254760D01*
G37*
G36*
X3528060Y1200962D02*
G01*
X3528060Y1254760D01*
X3474059Y1254760D01*
X3481476Y1241907D01*
X3490366Y1230122D01*
X3500628Y1219504D01*
X3512159Y1210259D01*
X3524707Y1202486D01*
G37*
G36*
X10051186Y1282446D02*
G01*
X10065613Y1282446D01*
X10079888Y1284224D01*
X10093858Y1287830D01*
X10107269Y1293114D01*
X10119918Y1300073D01*
X10131552Y1308557D01*
X10142067Y1318412D01*
X10151262Y1329537D01*
X10158984Y1341678D01*
X10165130Y1354734D01*
X10169601Y1368450D01*
X10172293Y1382623D01*
X10173208Y1397000D01*
X10172293Y1411376D01*
X10169601Y1425549D01*
X10165130Y1439265D01*
X10158984Y1452321D01*
X10151262Y1464462D01*
X10142067Y1475587D01*
X10131552Y1485442D01*
X10119918Y1493926D01*
X10107269Y1500886D01*
X10093858Y1506169D01*
X10079888Y1509776D01*
X10065613Y1511554D01*
X10051186Y1511554D01*
X10036911Y1509776D01*
X10022941Y1506169D01*
X10009530Y1500886D01*
X9996881Y1493926D01*
X9985248Y1485442D01*
X9974732Y1475587D01*
X9965537Y1464462D01*
X9957816Y1452321D01*
X9951669Y1439265D01*
X9947198Y1425549D01*
X9944506Y1411376D01*
X9943592Y1397000D01*
X9944506Y1382623D01*
X9947198Y1368450D01*
X9951669Y1354734D01*
X9957816Y1341678D01*
X9965537Y1329537D01*
X9974732Y1318412D01*
X9985248Y1308557D01*
X9996881Y1300073D01*
X10009530Y1293114D01*
X10022941Y1287830D01*
X10036911Y1284224D01*
G37*
G36*
X10305186Y1282446D02*
G01*
X10319613Y1282446D01*
X10333888Y1284224D01*
X10347858Y1287830D01*
X10361269Y1293114D01*
X10373918Y1300073D01*
X10385552Y1308557D01*
X10396067Y1318412D01*
X10405262Y1329537D01*
X10412984Y1341678D01*
X10419130Y1354734D01*
X10423601Y1368450D01*
X10426293Y1382623D01*
X10427208Y1397000D01*
X10426293Y1411376D01*
X10423601Y1425549D01*
X10419130Y1439265D01*
X10412984Y1452321D01*
X10405262Y1464462D01*
X10396067Y1475587D01*
X10385552Y1485442D01*
X10373918Y1493926D01*
X10361269Y1500886D01*
X10347858Y1506169D01*
X10333888Y1509776D01*
X10319613Y1511554D01*
X10305186Y1511554D01*
X10290911Y1509776D01*
X10276941Y1506169D01*
X10263530Y1500886D01*
X10250881Y1493926D01*
X10239248Y1485442D01*
X10228732Y1475587D01*
X10219537Y1464462D01*
X10211816Y1452321D01*
X10205669Y1439265D01*
X10201198Y1425549D01*
X10198506Y1411376D01*
X10197592Y1397000D01*
X10198506Y1382623D01*
X10201198Y1368450D01*
X10205669Y1354734D01*
X10211816Y1341678D01*
X10219537Y1329537D01*
X10228732Y1318412D01*
X10239248Y1308557D01*
X10250881Y1300073D01*
X10263530Y1293114D01*
X10276941Y1287830D01*
X10290911Y1284224D01*
G37*
G36*
X3634740Y1361440D02*
G01*
X3688486Y1361440D01*
X3685184Y1368044D01*
X3677056Y1380337D01*
X3667455Y1391564D01*
X3656533Y1401470D01*
X3644493Y1410004D01*
X3634740Y1415237D01*
G37*
G36*
X3474313Y1361440D02*
G01*
X3528060Y1361440D01*
X3528060Y1415237D01*
X3518306Y1410004D01*
X3506266Y1401470D01*
X3495344Y1391564D01*
X3485743Y1380337D01*
X3477615Y1368044D01*
G37*
G36*
X5234838Y1505254D02*
G01*
X5244388Y1506524D01*
X5253583Y1509318D01*
X5262219Y1513687D01*
X5274259Y1522679D01*
X5278221Y1523492D01*
X5689092Y1523492D01*
X5697118Y1524304D01*
X5704332Y1526489D01*
X5711037Y1530045D01*
X5717235Y1535176D01*
X5919724Y1737664D01*
X5924854Y1743862D01*
X5928410Y1750568D01*
X5930595Y1757781D01*
X5931408Y1765807D01*
X5931408Y1774240D01*
X5932170Y1778152D01*
X5934405Y1781454D01*
X5937758Y1783638D01*
X5941669Y1784400D01*
X5945581Y1783537D01*
X5948883Y1781302D01*
X5951728Y1778304D01*
X5963259Y1769059D01*
X5975807Y1761286D01*
X5979160Y1759762D01*
X5979160Y1813560D01*
X5941568Y1813560D01*
X5937656Y1814322D01*
X5934405Y1816557D01*
X5932170Y1819808D01*
X5931408Y1823720D01*
X5931408Y1910080D01*
X5932170Y1913991D01*
X5934405Y1917242D01*
X5937656Y1919478D01*
X5941568Y1920239D01*
X5979160Y1920239D01*
X5979160Y1974037D01*
X5969406Y1968804D01*
X5957366Y1960270D01*
X5948426Y1952142D01*
X5945073Y1950110D01*
X5941263Y1949500D01*
X5937453Y1950364D01*
X5934252Y1952548D01*
X5932170Y1955850D01*
X5931408Y1959660D01*
X5931408Y2114905D01*
X5932170Y2118766D01*
X5934405Y2122068D01*
X5993942Y2181606D01*
X5997397Y2183892D01*
X6001410Y2184603D01*
X6006084Y2183333D01*
X6019952Y2178812D01*
X6034227Y2176119D01*
X6048756Y2175205D01*
X6063284Y2176119D01*
X6077559Y2178812D01*
X6091428Y2183333D01*
X6104585Y2189530D01*
X6116878Y2197303D01*
X6128105Y2206599D01*
X6138062Y2217216D01*
X6146596Y2229002D01*
X6153607Y2241753D01*
X6158992Y2255266D01*
X6162598Y2269388D01*
X6164427Y2283815D01*
X6164427Y2298344D01*
X6162598Y2312771D01*
X6158992Y2326894D01*
X6153607Y2340406D01*
X6146596Y2353157D01*
X6138062Y2364943D01*
X6128105Y2375560D01*
X6116878Y2384856D01*
X6104585Y2392629D01*
X6091428Y2398826D01*
X6077559Y2403348D01*
X6063284Y2406040D01*
X6048756Y2406954D01*
X6034227Y2406040D01*
X6019952Y2403348D01*
X6006084Y2398826D01*
X5992926Y2392629D01*
X5980633Y2384856D01*
X5969406Y2375560D01*
X5959449Y2364943D01*
X5950915Y2353157D01*
X5943904Y2340406D01*
X5938520Y2326894D01*
X5934913Y2312771D01*
X5933084Y2298344D01*
X5933084Y2283815D01*
X5934913Y2269388D01*
X5938520Y2255266D01*
X5941720Y2247290D01*
X5942431Y2243429D01*
X5941618Y2239568D01*
X5939434Y2236368D01*
X5865876Y2162759D01*
X5860745Y2156510D01*
X5857189Y2149856D01*
X5855004Y2142642D01*
X5854192Y2134616D01*
X5854192Y1970532D01*
X5853226Y1966264D01*
X5850534Y1962759D01*
X5846622Y1960727D01*
X5842203Y1960575D01*
X5838139Y1962251D01*
X5828893Y1968804D01*
X5819140Y1974037D01*
X5819140Y1920239D01*
X5844032Y1920239D01*
X5847943Y1919478D01*
X5851194Y1917242D01*
X5853430Y1913991D01*
X5854192Y1910080D01*
X5854192Y1823720D01*
X5853430Y1819808D01*
X5851194Y1816557D01*
X5847943Y1814322D01*
X5844032Y1813560D01*
X5819140Y1813560D01*
X5819140Y1750466D01*
X5818378Y1746554D01*
X5816142Y1743252D01*
X5676595Y1603705D01*
X5673293Y1601470D01*
X5669381Y1600708D01*
X5278221Y1600708D01*
X5274259Y1601520D01*
X5262219Y1610512D01*
X5253583Y1614881D01*
X5244388Y1617675D01*
X5234838Y1618945D01*
X5225186Y1618488D01*
X5215737Y1616456D01*
X5206796Y1612900D01*
X5198567Y1607820D01*
X5191353Y1601470D01*
X5185257Y1593951D01*
X5180584Y1585518D01*
X5177383Y1576425D01*
X5175758Y1566926D01*
X5175758Y1557274D01*
X5177383Y1547774D01*
X5180584Y1538681D01*
X5185257Y1530248D01*
X5191353Y1522730D01*
X5198567Y1516380D01*
X5206796Y1511300D01*
X5215737Y1507744D01*
X5225186Y1505712D01*
G37*
G36*
X10051186Y1536446D02*
G01*
X10065613Y1536446D01*
X10079888Y1538224D01*
X10093858Y1541830D01*
X10107269Y1547114D01*
X10119918Y1554073D01*
X10131552Y1562557D01*
X10142067Y1572412D01*
X10151262Y1583537D01*
X10158984Y1595678D01*
X10165130Y1608734D01*
X10169601Y1622450D01*
X10172293Y1636623D01*
X10173208Y1651000D01*
X10172293Y1665376D01*
X10169601Y1679549D01*
X10165130Y1693265D01*
X10158984Y1706321D01*
X10151262Y1718462D01*
X10142067Y1729587D01*
X10131552Y1739442D01*
X10119918Y1747926D01*
X10107269Y1754886D01*
X10093858Y1760169D01*
X10079888Y1763775D01*
X10065613Y1765554D01*
X10051186Y1765554D01*
X10036911Y1763775D01*
X10022941Y1760169D01*
X10009530Y1754886D01*
X9996881Y1747926D01*
X9985248Y1739442D01*
X9974732Y1729587D01*
X9965537Y1718462D01*
X9957816Y1706321D01*
X9951669Y1693265D01*
X9947198Y1679549D01*
X9944506Y1665376D01*
X9943592Y1651000D01*
X9944506Y1636623D01*
X9947198Y1622450D01*
X9951669Y1608734D01*
X9957816Y1595678D01*
X9965537Y1583537D01*
X9974732Y1572412D01*
X9985248Y1562557D01*
X9996881Y1554073D01*
X10009530Y1547114D01*
X10022941Y1541830D01*
X10036911Y1538224D01*
G37*
G36*
X10305186Y1536446D02*
G01*
X10319613Y1536446D01*
X10333888Y1538224D01*
X10347858Y1541830D01*
X10361269Y1547114D01*
X10373918Y1554073D01*
X10385552Y1562557D01*
X10396067Y1572412D01*
X10405262Y1583537D01*
X10412984Y1595678D01*
X10419130Y1608734D01*
X10423601Y1622450D01*
X10426293Y1636623D01*
X10427208Y1651000D01*
X10426293Y1665376D01*
X10423601Y1679549D01*
X10419130Y1693265D01*
X10412984Y1706321D01*
X10405262Y1718462D01*
X10396067Y1729587D01*
X10385552Y1739442D01*
X10373918Y1747926D01*
X10361269Y1754886D01*
X10347858Y1760169D01*
X10333888Y1763775D01*
X10319613Y1765554D01*
X10305186Y1765554D01*
X10290911Y1763775D01*
X10276941Y1760169D01*
X10263530Y1754886D01*
X10250881Y1747926D01*
X10239248Y1739442D01*
X10228732Y1729587D01*
X10219537Y1718462D01*
X10211816Y1706321D01*
X10205669Y1693265D01*
X10201198Y1679549D01*
X10198506Y1665376D01*
X10197592Y1651000D01*
X10198506Y1636623D01*
X10201198Y1622450D01*
X10205669Y1608734D01*
X10211816Y1595678D01*
X10219537Y1583537D01*
X10228732Y1572412D01*
X10239248Y1562557D01*
X10250881Y1554073D01*
X10263530Y1547114D01*
X10276941Y1541830D01*
X10290911Y1538224D01*
G37*
G36*
X4752340Y1759762D02*
G01*
X4755692Y1761286D01*
X4768240Y1769059D01*
X4779772Y1778304D01*
X4790033Y1788922D01*
X4798923Y1800707D01*
X4806340Y1813560D01*
X4752340Y1813560D01*
G37*
G36*
X6085840Y1759762D02*
G01*
X6089192Y1761286D01*
X6101740Y1769059D01*
X6113272Y1778304D01*
X6123533Y1788922D01*
X6132423Y1800707D01*
X6139840Y1813560D01*
X6085840Y1813560D01*
G37*
G36*
X5552440Y1759762D02*
G01*
X5555792Y1761286D01*
X5568340Y1769059D01*
X5579872Y1778304D01*
X5590133Y1788922D01*
X5599023Y1800707D01*
X5606440Y1813560D01*
X5552440Y1813560D01*
G37*
G36*
X6352540Y1759762D02*
G01*
X6355892Y1761286D01*
X6368440Y1769059D01*
X6379972Y1778304D01*
X6390233Y1788922D01*
X6399123Y1800707D01*
X6406540Y1813560D01*
X6352540Y1813560D01*
G37*
G36*
X5285740Y1759762D02*
G01*
X5289092Y1761286D01*
X5301640Y1769059D01*
X5313172Y1778304D01*
X5323433Y1788922D01*
X5332323Y1800707D01*
X5339740Y1813560D01*
X5285740Y1813560D01*
G37*
G36*
X6245860Y1759762D02*
G01*
X6245860Y1813560D01*
X6191859Y1813560D01*
X6199276Y1800707D01*
X6208166Y1788922D01*
X6218428Y1778304D01*
X6229959Y1769059D01*
X6242507Y1761286D01*
G37*
G36*
X4645660Y1759762D02*
G01*
X4645660Y1813560D01*
X4591659Y1813560D01*
X4599076Y1800707D01*
X4607966Y1788922D01*
X4618228Y1778304D01*
X4629759Y1769059D01*
X4642307Y1761286D01*
G37*
G36*
X5712460Y1759762D02*
G01*
X5712460Y1813560D01*
X5658459Y1813560D01*
X5665876Y1800707D01*
X5674766Y1788922D01*
X5685028Y1778304D01*
X5696559Y1769059D01*
X5709107Y1761286D01*
G37*
G36*
X4912360Y1759762D02*
G01*
X4912360Y1813560D01*
X4858359Y1813560D01*
X4865776Y1800707D01*
X4874666Y1788922D01*
X4884928Y1778304D01*
X4896459Y1769059D01*
X4909007Y1761286D01*
G37*
G36*
X5445760Y1759762D02*
G01*
X5445760Y1813560D01*
X5391759Y1813560D01*
X5399176Y1800707D01*
X5408066Y1788922D01*
X5418328Y1778304D01*
X5429859Y1769059D01*
X5442407Y1761286D01*
G37*
G36*
X10051186Y1790446D02*
G01*
X10065613Y1790446D01*
X10079888Y1792224D01*
X10093858Y1795830D01*
X10107269Y1801114D01*
X10119918Y1808073D01*
X10131552Y1816557D01*
X10142067Y1826412D01*
X10151262Y1837537D01*
X10158984Y1849678D01*
X10165130Y1862734D01*
X10169601Y1876450D01*
X10172293Y1890623D01*
X10173208Y1905000D01*
X10172293Y1919376D01*
X10169601Y1933549D01*
X10165130Y1947265D01*
X10158984Y1960321D01*
X10151262Y1972462D01*
X10142067Y1983587D01*
X10131552Y1993442D01*
X10119918Y2001926D01*
X10107269Y2008886D01*
X10093858Y2014169D01*
X10079888Y2017775D01*
X10065613Y2019554D01*
X10051186Y2019554D01*
X10036911Y2017775D01*
X10022941Y2014169D01*
X10009530Y2008886D01*
X9996881Y2001926D01*
X9985248Y1993442D01*
X9974732Y1983587D01*
X9965537Y1972462D01*
X9957816Y1960321D01*
X9951669Y1947265D01*
X9947198Y1933549D01*
X9944506Y1919376D01*
X9943592Y1905000D01*
X9944506Y1890623D01*
X9947198Y1876450D01*
X9951669Y1862734D01*
X9957816Y1849678D01*
X9965537Y1837537D01*
X9974732Y1826412D01*
X9985248Y1816557D01*
X9996881Y1808073D01*
X10009530Y1801114D01*
X10022941Y1795830D01*
X10036911Y1792224D01*
G37*
G36*
X10305186Y1790446D02*
G01*
X10319613Y1790446D01*
X10333888Y1792224D01*
X10347858Y1795830D01*
X10361269Y1801114D01*
X10373918Y1808073D01*
X10385552Y1816557D01*
X10396067Y1826412D01*
X10405262Y1837537D01*
X10412984Y1849678D01*
X10419130Y1862734D01*
X10423601Y1876450D01*
X10426293Y1890623D01*
X10427208Y1905000D01*
X10426293Y1919376D01*
X10423601Y1933549D01*
X10419130Y1947265D01*
X10412984Y1960321D01*
X10405262Y1972462D01*
X10396067Y1983587D01*
X10385552Y1993442D01*
X10373918Y2001926D01*
X10361269Y2008886D01*
X10347858Y2014169D01*
X10333888Y2017775D01*
X10319613Y2019554D01*
X10305186Y2019554D01*
X10290911Y2017775D01*
X10276941Y2014169D01*
X10263530Y2008886D01*
X10250881Y2001926D01*
X10239248Y1993442D01*
X10228732Y1983587D01*
X10219537Y1972462D01*
X10211816Y1960321D01*
X10205669Y1947265D01*
X10201198Y1933549D01*
X10198506Y1919376D01*
X10197592Y1905000D01*
X10198506Y1890623D01*
X10201198Y1876450D01*
X10205669Y1862734D01*
X10211816Y1849678D01*
X10219537Y1837537D01*
X10228732Y1826412D01*
X10239248Y1816557D01*
X10250881Y1808073D01*
X10263530Y1801114D01*
X10276941Y1795830D01*
X10290911Y1792224D01*
G37*
G36*
X4752340Y1920239D02*
G01*
X4806086Y1920239D01*
X4802784Y1926843D01*
X4794656Y1939137D01*
X4785055Y1950364D01*
X4774133Y1960270D01*
X4762093Y1968804D01*
X4752340Y1974037D01*
G37*
G36*
X5552440Y1920239D02*
G01*
X5606186Y1920239D01*
X5602884Y1926843D01*
X5594756Y1939137D01*
X5585155Y1950364D01*
X5574233Y1960270D01*
X5562193Y1968804D01*
X5552440Y1974037D01*
G37*
G36*
X6352540Y1920239D02*
G01*
X6406286Y1920239D01*
X6402984Y1926843D01*
X6394856Y1939137D01*
X6385255Y1950364D01*
X6374333Y1960270D01*
X6362293Y1968804D01*
X6352540Y1974037D01*
G37*
G36*
X6085840Y1920239D02*
G01*
X6139586Y1920239D01*
X6136284Y1926843D01*
X6128156Y1939137D01*
X6118555Y1950364D01*
X6107633Y1960270D01*
X6095593Y1968804D01*
X6085840Y1974037D01*
G37*
G36*
X5285740Y1920239D02*
G01*
X5339486Y1920239D01*
X5336184Y1926843D01*
X5328056Y1939137D01*
X5318455Y1950364D01*
X5307533Y1960270D01*
X5295493Y1968804D01*
X5285740Y1974037D01*
G37*
G36*
X5392013Y1920239D02*
G01*
X5445760Y1920239D01*
X5445760Y1974037D01*
X5436006Y1968804D01*
X5423966Y1960270D01*
X5413044Y1950364D01*
X5403443Y1939137D01*
X5395315Y1926843D01*
G37*
G36*
X4591913Y1920239D02*
G01*
X4645660Y1920239D01*
X4645660Y1974037D01*
X4635906Y1968804D01*
X4623866Y1960270D01*
X4612944Y1950364D01*
X4603343Y1939137D01*
X4595215Y1926843D01*
G37*
G36*
X5658713Y1920239D02*
G01*
X5712460Y1920239D01*
X5712460Y1974037D01*
X5702706Y1968804D01*
X5690666Y1960270D01*
X5679744Y1950364D01*
X5670143Y1939137D01*
X5662015Y1926843D01*
G37*
G36*
X4858613Y1920239D02*
G01*
X4912360Y1920239D01*
X4912360Y1974037D01*
X4902606Y1968804D01*
X4890566Y1960270D01*
X4879644Y1950364D01*
X4870043Y1939137D01*
X4861915Y1926843D01*
G37*
G36*
X6192113Y1920239D02*
G01*
X6245860Y1920239D01*
X6245860Y1974037D01*
X6236106Y1968804D01*
X6224066Y1960270D01*
X6213144Y1950364D01*
X6203543Y1939137D01*
X6195415Y1926843D01*
G37*
G36*
X10051186Y2044446D02*
G01*
X10065613Y2044446D01*
X10079888Y2046224D01*
X10093858Y2049830D01*
X10107269Y2055114D01*
X10119918Y2062073D01*
X10131552Y2070557D01*
X10142067Y2080412D01*
X10151262Y2091537D01*
X10158984Y2103678D01*
X10165130Y2116734D01*
X10169601Y2130450D01*
X10172293Y2144623D01*
X10173208Y2159000D01*
X10172293Y2173376D01*
X10169601Y2187549D01*
X10165130Y2201265D01*
X10158984Y2214321D01*
X10151262Y2226462D01*
X10142067Y2237587D01*
X10131552Y2247442D01*
X10119918Y2255926D01*
X10107269Y2262886D01*
X10093858Y2268169D01*
X10079888Y2271776D01*
X10065613Y2273554D01*
X10051186Y2273554D01*
X10036911Y2271776D01*
X10022941Y2268169D01*
X10009530Y2262886D01*
X9996881Y2255926D01*
X9985248Y2247442D01*
X9974732Y2237587D01*
X9965537Y2226462D01*
X9957816Y2214321D01*
X9951669Y2201265D01*
X9947198Y2187549D01*
X9944506Y2173376D01*
X9943592Y2159000D01*
X9944506Y2144623D01*
X9947198Y2130450D01*
X9951669Y2116734D01*
X9957816Y2103678D01*
X9965537Y2091537D01*
X9974732Y2080412D01*
X9985248Y2070557D01*
X9996881Y2062073D01*
X10009530Y2055114D01*
X10022941Y2049830D01*
X10036911Y2046224D01*
G37*
G36*
X10305186Y2044446D02*
G01*
X10319613Y2044446D01*
X10333888Y2046224D01*
X10347858Y2049830D01*
X10361269Y2055114D01*
X10373918Y2062073D01*
X10385552Y2070557D01*
X10396067Y2080412D01*
X10405262Y2091537D01*
X10412984Y2103678D01*
X10419130Y2116734D01*
X10423601Y2130450D01*
X10426293Y2144623D01*
X10427208Y2159000D01*
X10426293Y2173376D01*
X10423601Y2187549D01*
X10419130Y2201265D01*
X10412984Y2214321D01*
X10405262Y2226462D01*
X10396067Y2237587D01*
X10385552Y2247442D01*
X10373918Y2255926D01*
X10361269Y2262886D01*
X10347858Y2268169D01*
X10333888Y2271776D01*
X10319613Y2273554D01*
X10305186Y2273554D01*
X10290911Y2271776D01*
X10276941Y2268169D01*
X10263530Y2262886D01*
X10250881Y2255926D01*
X10239248Y2247442D01*
X10228732Y2237587D01*
X10219537Y2226462D01*
X10211816Y2214321D01*
X10205669Y2201265D01*
X10201198Y2187549D01*
X10198506Y2173376D01*
X10197592Y2159000D01*
X10198506Y2144623D01*
X10201198Y2130450D01*
X10205669Y2116734D01*
X10211816Y2103678D01*
X10219537Y2091537D01*
X10228732Y2080412D01*
X10239248Y2070557D01*
X10250881Y2062073D01*
X10263530Y2055114D01*
X10276941Y2049830D01*
X10290911Y2046224D01*
G37*
G36*
X10051186Y2298446D02*
G01*
X10065613Y2298446D01*
X10079888Y2300224D01*
X10093858Y2303830D01*
X10107269Y2309114D01*
X10119918Y2316073D01*
X10131552Y2324557D01*
X10142067Y2334412D01*
X10151262Y2345537D01*
X10158984Y2357678D01*
X10165130Y2370734D01*
X10169601Y2384450D01*
X10172293Y2398623D01*
X10173208Y2413000D01*
X10172293Y2427376D01*
X10169601Y2441549D01*
X10165130Y2455265D01*
X10158984Y2468321D01*
X10151262Y2480462D01*
X10142067Y2491587D01*
X10131552Y2501442D01*
X10119918Y2509926D01*
X10107269Y2516886D01*
X10093858Y2522169D01*
X10079888Y2525776D01*
X10065613Y2527554D01*
X10051186Y2527554D01*
X10036911Y2525776D01*
X10022941Y2522169D01*
X10009530Y2516886D01*
X9996881Y2509926D01*
X9985248Y2501442D01*
X9974732Y2491587D01*
X9965537Y2480462D01*
X9957816Y2468321D01*
X9951669Y2455265D01*
X9947198Y2441549D01*
X9944506Y2427376D01*
X9943592Y2413000D01*
X9944506Y2398623D01*
X9947198Y2384450D01*
X9951669Y2370734D01*
X9957816Y2357678D01*
X9965537Y2345537D01*
X9974732Y2334412D01*
X9985248Y2324557D01*
X9996881Y2316073D01*
X10009530Y2309114D01*
X10022941Y2303830D01*
X10036911Y2300224D01*
G37*
G36*
X10305186Y2298446D02*
G01*
X10319613Y2298446D01*
X10333888Y2300224D01*
X10347858Y2303830D01*
X10361269Y2309114D01*
X10373918Y2316073D01*
X10385552Y2324557D01*
X10396067Y2334412D01*
X10405262Y2345537D01*
X10412984Y2357678D01*
X10419130Y2370734D01*
X10423601Y2384450D01*
X10426293Y2398623D01*
X10427208Y2413000D01*
X10426293Y2427376D01*
X10423601Y2441549D01*
X10419130Y2455265D01*
X10412984Y2468321D01*
X10405262Y2480462D01*
X10396067Y2491587D01*
X10385552Y2501442D01*
X10373918Y2509926D01*
X10361269Y2516886D01*
X10347858Y2522169D01*
X10333888Y2525776D01*
X10319613Y2527554D01*
X10305186Y2527554D01*
X10290911Y2525776D01*
X10276941Y2522169D01*
X10263530Y2516886D01*
X10250881Y2509926D01*
X10239248Y2501442D01*
X10228732Y2491587D01*
X10219537Y2480462D01*
X10211816Y2468321D01*
X10205669Y2455265D01*
X10201198Y2441549D01*
X10198506Y2427376D01*
X10197592Y2413000D01*
X10198506Y2398623D01*
X10201198Y2384450D01*
X10205669Y2370734D01*
X10211816Y2357678D01*
X10219537Y2345537D01*
X10228732Y2334412D01*
X10239248Y2324557D01*
X10250881Y2316073D01*
X10263530Y2309114D01*
X10276941Y2303830D01*
X10290911Y2300224D01*
G37*
G36*
X4702556Y2327605D02*
G01*
X4717084Y2328519D01*
X4731359Y2331212D01*
X4745228Y2335733D01*
X4758385Y2341930D01*
X4770678Y2349703D01*
X4781905Y2358999D01*
X4791862Y2369616D01*
X4800396Y2381402D01*
X4807407Y2394153D01*
X4812792Y2407666D01*
X4816398Y2421788D01*
X4818227Y2436215D01*
X4818227Y2450744D01*
X4816398Y2465171D01*
X4812792Y2479294D01*
X4807407Y2492806D01*
X4800396Y2505557D01*
X4791862Y2517343D01*
X4781905Y2527960D01*
X4770678Y2537256D01*
X4758385Y2545029D01*
X4745228Y2551226D01*
X4731359Y2555748D01*
X4717084Y2558440D01*
X4702556Y2559354D01*
X4688027Y2558440D01*
X4673752Y2555748D01*
X4659884Y2551226D01*
X4646726Y2545029D01*
X4634433Y2537256D01*
X4623206Y2527960D01*
X4613249Y2517343D01*
X4604715Y2505557D01*
X4597704Y2492806D01*
X4592320Y2479294D01*
X4588713Y2465171D01*
X4586884Y2450744D01*
X4586884Y2436215D01*
X4588713Y2421788D01*
X4592320Y2407666D01*
X4597704Y2394153D01*
X4604715Y2381402D01*
X4613249Y2369616D01*
X4623206Y2358999D01*
X4634433Y2349703D01*
X4646726Y2341930D01*
X4659884Y2335733D01*
X4673752Y2331212D01*
X4688027Y2328519D01*
G37*
G36*
X10305186Y2552446D02*
G01*
X10319613Y2552446D01*
X10333888Y2554224D01*
X10347858Y2557830D01*
X10361269Y2563114D01*
X10373918Y2570073D01*
X10385552Y2578557D01*
X10396067Y2588412D01*
X10405262Y2599537D01*
X10412984Y2611678D01*
X10419130Y2624734D01*
X10423601Y2638450D01*
X10426293Y2652623D01*
X10427208Y2667000D01*
X10426293Y2681376D01*
X10423601Y2695549D01*
X10419130Y2709265D01*
X10412984Y2722321D01*
X10405262Y2734462D01*
X10396067Y2745587D01*
X10385552Y2755442D01*
X10373918Y2763926D01*
X10361269Y2770886D01*
X10347858Y2776169D01*
X10333888Y2779776D01*
X10319613Y2781554D01*
X10305186Y2781554D01*
X10290911Y2779776D01*
X10276941Y2776169D01*
X10263530Y2770886D01*
X10250881Y2763926D01*
X10239248Y2755442D01*
X10228732Y2745587D01*
X10219537Y2734462D01*
X10211816Y2722321D01*
X10205669Y2709265D01*
X10201198Y2695549D01*
X10198506Y2681376D01*
X10197592Y2667000D01*
X10198506Y2652623D01*
X10201198Y2638450D01*
X10205669Y2624734D01*
X10211816Y2611678D01*
X10219537Y2599537D01*
X10228732Y2588412D01*
X10239248Y2578557D01*
X10250881Y2570073D01*
X10263530Y2563114D01*
X10276941Y2557830D01*
X10290911Y2554224D01*
G37*
G36*
X10051186Y2552446D02*
G01*
X10065613Y2552446D01*
X10079888Y2554224D01*
X10093858Y2557830D01*
X10107269Y2563114D01*
X10119918Y2570073D01*
X10131552Y2578557D01*
X10142067Y2588412D01*
X10151262Y2599537D01*
X10158984Y2611678D01*
X10165130Y2624734D01*
X10169601Y2638450D01*
X10172293Y2652623D01*
X10173208Y2667000D01*
X10172293Y2681376D01*
X10169601Y2695549D01*
X10165130Y2709265D01*
X10158984Y2722321D01*
X10151262Y2734462D01*
X10142067Y2745587D01*
X10131552Y2755442D01*
X10119918Y2763926D01*
X10107269Y2770886D01*
X10093858Y2776169D01*
X10079888Y2779776D01*
X10065613Y2781554D01*
X10051186Y2781554D01*
X10036911Y2779776D01*
X10022941Y2776169D01*
X10009530Y2770886D01*
X9996881Y2763926D01*
X9985248Y2755442D01*
X9974732Y2745587D01*
X9965537Y2734462D01*
X9957816Y2722321D01*
X9951669Y2709265D01*
X9947198Y2695549D01*
X9944506Y2681376D01*
X9943592Y2667000D01*
X9944506Y2652623D01*
X9947198Y2638450D01*
X9951669Y2624734D01*
X9957816Y2611678D01*
X9965537Y2599537D01*
X9974732Y2588412D01*
X9985248Y2578557D01*
X9996881Y2570073D01*
X10009530Y2563114D01*
X10022941Y2557830D01*
X10036911Y2554224D01*
G37*
G36*
X10305186Y2806446D02*
G01*
X10319613Y2806446D01*
X10333888Y2808224D01*
X10347858Y2811830D01*
X10361269Y2817114D01*
X10373918Y2824073D01*
X10385552Y2832557D01*
X10396067Y2842412D01*
X10405262Y2853537D01*
X10412984Y2865678D01*
X10419130Y2878734D01*
X10423601Y2892450D01*
X10426293Y2906623D01*
X10427208Y2921000D01*
X10426293Y2935376D01*
X10423601Y2949549D01*
X10419130Y2963265D01*
X10412984Y2976321D01*
X10405262Y2988462D01*
X10396067Y2999587D01*
X10385552Y3009442D01*
X10373918Y3017926D01*
X10361269Y3024886D01*
X10347858Y3030169D01*
X10333888Y3033776D01*
X10319613Y3035554D01*
X10305186Y3035554D01*
X10290911Y3033776D01*
X10276941Y3030169D01*
X10263530Y3024886D01*
X10250881Y3017926D01*
X10239248Y3009442D01*
X10228732Y2999587D01*
X10219537Y2988462D01*
X10211816Y2976321D01*
X10205669Y2963265D01*
X10201198Y2949549D01*
X10198506Y2935376D01*
X10197592Y2921000D01*
X10198506Y2906623D01*
X10201198Y2892450D01*
X10205669Y2878734D01*
X10211816Y2865678D01*
X10219537Y2853537D01*
X10228732Y2842412D01*
X10239248Y2832557D01*
X10250881Y2824073D01*
X10263530Y2817114D01*
X10276941Y2811830D01*
X10290911Y2808224D01*
G37*
G36*
X10051186Y2806446D02*
G01*
X10065613Y2806446D01*
X10079888Y2808224D01*
X10093858Y2811830D01*
X10107269Y2817114D01*
X10119918Y2824073D01*
X10131552Y2832557D01*
X10142067Y2842412D01*
X10151262Y2853537D01*
X10158984Y2865678D01*
X10165130Y2878734D01*
X10169601Y2892450D01*
X10172293Y2906623D01*
X10173208Y2921000D01*
X10172293Y2935376D01*
X10169601Y2949549D01*
X10165130Y2963265D01*
X10158984Y2976321D01*
X10151262Y2988462D01*
X10142067Y2999587D01*
X10131552Y3009442D01*
X10119918Y3017926D01*
X10107269Y3024886D01*
X10093858Y3030169D01*
X10079888Y3033776D01*
X10065613Y3035554D01*
X10051186Y3035554D01*
X10036911Y3033776D01*
X10022941Y3030169D01*
X10009530Y3024886D01*
X9996881Y3017926D01*
X9985248Y3009442D01*
X9974732Y2999587D01*
X9965537Y2988462D01*
X9957816Y2976321D01*
X9951669Y2963265D01*
X9947198Y2949549D01*
X9944506Y2935376D01*
X9943592Y2921000D01*
X9944506Y2906623D01*
X9947198Y2892450D01*
X9951669Y2878734D01*
X9957816Y2865678D01*
X9965537Y2853537D01*
X9974732Y2842412D01*
X9985248Y2832557D01*
X9996881Y2824073D01*
X10009530Y2817114D01*
X10022941Y2811830D01*
X10036911Y2808224D01*
G37*
G36*
X9089644Y2825445D02*
G01*
X9104172Y2826359D01*
X9118447Y2829052D01*
X9132316Y2833573D01*
X9145473Y2839770D01*
X9157766Y2847543D01*
X9168993Y2856839D01*
X9178950Y2867456D01*
X9187484Y2879242D01*
X9194495Y2891993D01*
X9199880Y2905506D01*
X9203486Y2919628D01*
X9205315Y2934055D01*
X9205315Y2948584D01*
X9203486Y2963011D01*
X9199880Y2977134D01*
X9194495Y2990646D01*
X9187484Y3003397D01*
X9178950Y3015183D01*
X9168993Y3025800D01*
X9157766Y3035096D01*
X9145473Y3042869D01*
X9132316Y3049066D01*
X9118447Y3053588D01*
X9104172Y3056280D01*
X9089644Y3057194D01*
X9075115Y3056280D01*
X9060840Y3053588D01*
X9046972Y3049066D01*
X9033814Y3042869D01*
X9021521Y3035096D01*
X9010294Y3025800D01*
X9000337Y3015183D01*
X8991803Y3003397D01*
X8984792Y2990646D01*
X8979408Y2977134D01*
X8975801Y2963011D01*
X8973972Y2948584D01*
X8973972Y2934055D01*
X8975801Y2919628D01*
X8979408Y2905506D01*
X8984792Y2891993D01*
X8991803Y2879242D01*
X9000337Y2867456D01*
X9010294Y2856839D01*
X9021521Y2847543D01*
X9033814Y2839770D01*
X9046972Y2833573D01*
X9060840Y2829052D01*
X9075115Y2826359D01*
G37*
G36*
X6048756Y2825445D02*
G01*
X6063284Y2826359D01*
X6077559Y2829052D01*
X6091428Y2833573D01*
X6104585Y2839770D01*
X6116878Y2847543D01*
X6128105Y2856839D01*
X6138062Y2867456D01*
X6146596Y2879242D01*
X6153607Y2891993D01*
X6158992Y2905506D01*
X6162598Y2919628D01*
X6164427Y2934055D01*
X6164427Y2948584D01*
X6162598Y2963011D01*
X6158992Y2977134D01*
X6153607Y2990646D01*
X6146596Y3003397D01*
X6138062Y3015183D01*
X6128105Y3025800D01*
X6116878Y3035096D01*
X6104585Y3042869D01*
X6091428Y3049066D01*
X6077559Y3053588D01*
X6063284Y3056280D01*
X6048756Y3057194D01*
X6034227Y3056280D01*
X6019952Y3053588D01*
X6006084Y3049066D01*
X5992926Y3042869D01*
X5980633Y3035096D01*
X5969406Y3025800D01*
X5959449Y3015183D01*
X5950915Y3003397D01*
X5943904Y2990646D01*
X5938520Y2977134D01*
X5934913Y2963011D01*
X5933084Y2948584D01*
X5933084Y2934055D01*
X5934913Y2919628D01*
X5938520Y2905506D01*
X5943904Y2891993D01*
X5950915Y2879242D01*
X5959449Y2867456D01*
X5969406Y2856839D01*
X5980633Y2847543D01*
X5992926Y2839770D01*
X6006084Y2833573D01*
X6019952Y2829052D01*
X6034227Y2826359D01*
G37*
G36*
X8441944Y2825445D02*
G01*
X8456472Y2826359D01*
X8470747Y2829052D01*
X8484616Y2833573D01*
X8497773Y2839770D01*
X8510066Y2847543D01*
X8521293Y2856839D01*
X8531250Y2867456D01*
X8532520Y2869234D01*
X8535314Y2871825D01*
X8538870Y2873248D01*
X8542629Y2873248D01*
X8546185Y2871825D01*
X8548979Y2869234D01*
X8550249Y2867456D01*
X8560206Y2856839D01*
X8571433Y2847543D01*
X8583726Y2839770D01*
X8596884Y2833573D01*
X8610752Y2829052D01*
X8625027Y2826359D01*
X8639556Y2825445D01*
X8654084Y2826359D01*
X8668359Y2829052D01*
X8682228Y2833573D01*
X8695385Y2839770D01*
X8707678Y2847543D01*
X8718905Y2856839D01*
X8728862Y2867456D01*
X8737396Y2879242D01*
X8744407Y2891993D01*
X8749792Y2905506D01*
X8753398Y2919628D01*
X8755227Y2934055D01*
X8755227Y2948584D01*
X8753398Y2963011D01*
X8749792Y2977134D01*
X8744407Y2990646D01*
X8737396Y3003397D01*
X8728862Y3015183D01*
X8718905Y3025800D01*
X8707678Y3035096D01*
X8695385Y3042869D01*
X8682228Y3049066D01*
X8668359Y3053588D01*
X8654084Y3056280D01*
X8639556Y3057194D01*
X8625027Y3056280D01*
X8610752Y3053588D01*
X8596884Y3049066D01*
X8583726Y3042869D01*
X8571433Y3035096D01*
X8560206Y3025800D01*
X8550249Y3015183D01*
X8548979Y3013405D01*
X8546185Y3010814D01*
X8542629Y3009392D01*
X8538870Y3009392D01*
X8535314Y3010814D01*
X8532520Y3013405D01*
X8531250Y3015183D01*
X8521293Y3025800D01*
X8510066Y3035096D01*
X8497773Y3042869D01*
X8484616Y3049066D01*
X8470747Y3053588D01*
X8456472Y3056280D01*
X8441944Y3057194D01*
X8427415Y3056280D01*
X8413140Y3053588D01*
X8399272Y3049066D01*
X8386114Y3042869D01*
X8373821Y3035096D01*
X8362594Y3025800D01*
X8352637Y3015183D01*
X8344103Y3003397D01*
X8337092Y2990646D01*
X8331708Y2977134D01*
X8328101Y2963011D01*
X8326272Y2948584D01*
X8326272Y2934055D01*
X8328101Y2919628D01*
X8331708Y2905506D01*
X8337092Y2891993D01*
X8344103Y2879242D01*
X8352637Y2867456D01*
X8362594Y2856839D01*
X8373821Y2847543D01*
X8386114Y2839770D01*
X8399272Y2833573D01*
X8413140Y2829052D01*
X8427415Y2826359D01*
G37*
G36*
X6498844Y2825445D02*
G01*
X6513372Y2826359D01*
X6527647Y2829052D01*
X6541516Y2833573D01*
X6554673Y2839770D01*
X6566966Y2847543D01*
X6578193Y2856839D01*
X6588150Y2867456D01*
X6589420Y2869234D01*
X6592214Y2871825D01*
X6595770Y2873248D01*
X6599529Y2873248D01*
X6603085Y2871825D01*
X6605879Y2869234D01*
X6607149Y2867456D01*
X6617106Y2856839D01*
X6628333Y2847543D01*
X6640626Y2839770D01*
X6653784Y2833573D01*
X6667652Y2829052D01*
X6681927Y2826359D01*
X6696456Y2825445D01*
X6710984Y2826359D01*
X6725259Y2829052D01*
X6739128Y2833573D01*
X6752285Y2839770D01*
X6764578Y2847543D01*
X6775805Y2856839D01*
X6785762Y2867456D01*
X6794296Y2879242D01*
X6801307Y2891993D01*
X6806692Y2905506D01*
X6810298Y2919628D01*
X6812127Y2934055D01*
X6812127Y2948584D01*
X6810298Y2963011D01*
X6806692Y2977134D01*
X6801307Y2990646D01*
X6794296Y3003397D01*
X6785762Y3015183D01*
X6775805Y3025800D01*
X6764578Y3035096D01*
X6752285Y3042869D01*
X6739128Y3049066D01*
X6725259Y3053588D01*
X6710984Y3056280D01*
X6696456Y3057194D01*
X6681927Y3056280D01*
X6667652Y3053588D01*
X6653784Y3049066D01*
X6640626Y3042869D01*
X6628333Y3035096D01*
X6617106Y3025800D01*
X6607149Y3015183D01*
X6605879Y3013405D01*
X6603085Y3010814D01*
X6599529Y3009392D01*
X6595770Y3009392D01*
X6592214Y3010814D01*
X6589420Y3013405D01*
X6588150Y3015183D01*
X6578193Y3025800D01*
X6566966Y3035096D01*
X6554673Y3042869D01*
X6541516Y3049066D01*
X6527647Y3053588D01*
X6513372Y3056280D01*
X6498844Y3057194D01*
X6484315Y3056280D01*
X6470040Y3053588D01*
X6456172Y3049066D01*
X6443014Y3042869D01*
X6430721Y3035096D01*
X6419494Y3025800D01*
X6409537Y3015183D01*
X6401003Y3003397D01*
X6393992Y2990646D01*
X6388608Y2977134D01*
X6385001Y2963011D01*
X6383172Y2948584D01*
X6383172Y2934055D01*
X6385001Y2919628D01*
X6388608Y2905506D01*
X6393992Y2891993D01*
X6401003Y2879242D01*
X6409537Y2867456D01*
X6419494Y2856839D01*
X6430721Y2847543D01*
X6443014Y2839770D01*
X6456172Y2833573D01*
X6470040Y2829052D01*
X6484315Y2826359D01*
G37*
G36*
X7146544Y2825445D02*
G01*
X7161072Y2826359D01*
X7175347Y2829052D01*
X7189216Y2833573D01*
X7202373Y2839770D01*
X7214666Y2847543D01*
X7225893Y2856839D01*
X7235850Y2867456D01*
X7237120Y2869234D01*
X7239914Y2871825D01*
X7243470Y2873248D01*
X7247229Y2873248D01*
X7250785Y2871825D01*
X7253579Y2869234D01*
X7254849Y2867456D01*
X7264806Y2856839D01*
X7276033Y2847543D01*
X7288326Y2839770D01*
X7301484Y2833573D01*
X7315352Y2829052D01*
X7329627Y2826359D01*
X7344156Y2825445D01*
X7358684Y2826359D01*
X7372959Y2829052D01*
X7386828Y2833573D01*
X7399985Y2839770D01*
X7412278Y2847543D01*
X7423505Y2856839D01*
X7433462Y2867456D01*
X7441996Y2879242D01*
X7449007Y2891993D01*
X7454392Y2905506D01*
X7457998Y2919628D01*
X7459827Y2934055D01*
X7459827Y2948584D01*
X7457998Y2963011D01*
X7454392Y2977134D01*
X7449007Y2990646D01*
X7441996Y3003397D01*
X7433462Y3015183D01*
X7423505Y3025800D01*
X7412278Y3035096D01*
X7399985Y3042869D01*
X7386828Y3049066D01*
X7372959Y3053588D01*
X7358684Y3056280D01*
X7344156Y3057194D01*
X7329627Y3056280D01*
X7315352Y3053588D01*
X7301484Y3049066D01*
X7288326Y3042869D01*
X7276033Y3035096D01*
X7264806Y3025800D01*
X7254849Y3015183D01*
X7253579Y3013405D01*
X7250785Y3010814D01*
X7247229Y3009392D01*
X7243470Y3009392D01*
X7239914Y3010814D01*
X7237120Y3013405D01*
X7235850Y3015183D01*
X7225893Y3025800D01*
X7214666Y3035096D01*
X7202373Y3042869D01*
X7189216Y3049066D01*
X7175347Y3053588D01*
X7161072Y3056280D01*
X7146544Y3057194D01*
X7132015Y3056280D01*
X7117740Y3053588D01*
X7103872Y3049066D01*
X7090714Y3042869D01*
X7078421Y3035096D01*
X7067194Y3025800D01*
X7057237Y3015183D01*
X7048703Y3003397D01*
X7041692Y2990646D01*
X7036308Y2977134D01*
X7032701Y2963011D01*
X7030872Y2948584D01*
X7030872Y2934055D01*
X7032701Y2919628D01*
X7036308Y2905506D01*
X7041692Y2891993D01*
X7048703Y2879242D01*
X7057237Y2867456D01*
X7067194Y2856839D01*
X7078421Y2847543D01*
X7090714Y2839770D01*
X7103872Y2833573D01*
X7117740Y2829052D01*
X7132015Y2826359D01*
G37*
G36*
X7794244Y2825445D02*
G01*
X7808772Y2826359D01*
X7823047Y2829052D01*
X7836916Y2833573D01*
X7850073Y2839770D01*
X7862366Y2847543D01*
X7873593Y2856839D01*
X7883550Y2867456D01*
X7884820Y2869234D01*
X7887614Y2871825D01*
X7891170Y2873248D01*
X7894929Y2873248D01*
X7898485Y2871825D01*
X7901279Y2869234D01*
X7902549Y2867456D01*
X7912506Y2856839D01*
X7923733Y2847543D01*
X7936026Y2839770D01*
X7949184Y2833573D01*
X7963052Y2829052D01*
X7977327Y2826359D01*
X7991856Y2825445D01*
X8006384Y2826359D01*
X8020659Y2829052D01*
X8034528Y2833573D01*
X8047685Y2839770D01*
X8059978Y2847543D01*
X8071205Y2856839D01*
X8081162Y2867456D01*
X8089696Y2879242D01*
X8096707Y2891993D01*
X8102092Y2905506D01*
X8105698Y2919628D01*
X8107527Y2934055D01*
X8107527Y2948584D01*
X8105698Y2963011D01*
X8102092Y2977134D01*
X8096707Y2990646D01*
X8089696Y3003397D01*
X8081162Y3015183D01*
X8071205Y3025800D01*
X8059978Y3035096D01*
X8047685Y3042869D01*
X8034528Y3049066D01*
X8020659Y3053588D01*
X8006384Y3056280D01*
X7991856Y3057194D01*
X7977327Y3056280D01*
X7963052Y3053588D01*
X7949184Y3049066D01*
X7936026Y3042869D01*
X7923733Y3035096D01*
X7912506Y3025800D01*
X7902549Y3015183D01*
X7901279Y3013405D01*
X7898485Y3010814D01*
X7894929Y3009392D01*
X7891170Y3009392D01*
X7887614Y3010814D01*
X7884820Y3013405D01*
X7883550Y3015183D01*
X7873593Y3025800D01*
X7862366Y3035096D01*
X7850073Y3042869D01*
X7836916Y3049066D01*
X7823047Y3053588D01*
X7808772Y3056280D01*
X7794244Y3057194D01*
X7779715Y3056280D01*
X7765440Y3053588D01*
X7751572Y3049066D01*
X7738414Y3042869D01*
X7726121Y3035096D01*
X7714894Y3025800D01*
X7704937Y3015183D01*
X7696403Y3003397D01*
X7689392Y2990646D01*
X7684008Y2977134D01*
X7680401Y2963011D01*
X7678572Y2948584D01*
X7678572Y2934055D01*
X7680401Y2919628D01*
X7684008Y2905506D01*
X7689392Y2891993D01*
X7696403Y2879242D01*
X7704937Y2867456D01*
X7714894Y2856839D01*
X7726121Y2847543D01*
X7738414Y2839770D01*
X7751572Y2833573D01*
X7765440Y2829052D01*
X7779715Y2826359D01*
G37*
G36*
X5838444Y2977845D02*
G01*
X5852972Y2978759D01*
X5867247Y2981452D01*
X5881116Y2985973D01*
X5894273Y2992170D01*
X5906566Y2999943D01*
X5917793Y3009239D01*
X5927750Y3019856D01*
X5936284Y3031642D01*
X5943295Y3044393D01*
X5948680Y3057906D01*
X5952286Y3072028D01*
X5954115Y3086455D01*
X5954115Y3100984D01*
X5952286Y3115411D01*
X5948680Y3129534D01*
X5943295Y3143046D01*
X5936284Y3155797D01*
X5927750Y3167583D01*
X5917793Y3178200D01*
X5906566Y3187496D01*
X5894273Y3195269D01*
X5881116Y3201466D01*
X5867247Y3205988D01*
X5852972Y3208680D01*
X5838444Y3209594D01*
X5823915Y3208680D01*
X5809640Y3205988D01*
X5795772Y3201466D01*
X5782614Y3195269D01*
X5770321Y3187496D01*
X5759094Y3178200D01*
X5749137Y3167583D01*
X5740603Y3155797D01*
X5733592Y3143046D01*
X5728208Y3129534D01*
X5724601Y3115411D01*
X5722772Y3100984D01*
X5722772Y3086455D01*
X5724601Y3072028D01*
X5728208Y3057906D01*
X5733592Y3044393D01*
X5740603Y3031642D01*
X5749137Y3019856D01*
X5759094Y3009239D01*
X5770321Y2999943D01*
X5782614Y2992170D01*
X5795772Y2985973D01*
X5809640Y2981452D01*
X5823915Y2978759D01*
G37*
G36*
X5152644Y2977845D02*
G01*
X5167172Y2978759D01*
X5181447Y2981452D01*
X5195316Y2985973D01*
X5208473Y2992170D01*
X5220766Y2999943D01*
X5231993Y3009239D01*
X5241950Y3019856D01*
X5250484Y3031642D01*
X5257495Y3044393D01*
X5261051Y3053334D01*
X5263235Y3056737D01*
X5266537Y3058972D01*
X5270500Y3059785D01*
X5274462Y3058972D01*
X5277764Y3056737D01*
X5279948Y3053334D01*
X5283504Y3044393D01*
X5290515Y3031642D01*
X5299049Y3019856D01*
X5309006Y3009239D01*
X5320233Y2999943D01*
X5332526Y2992170D01*
X5345684Y2985973D01*
X5359552Y2981452D01*
X5373827Y2978759D01*
X5388356Y2977845D01*
X5402884Y2978759D01*
X5417159Y2981452D01*
X5431028Y2985973D01*
X5444185Y2992170D01*
X5456478Y2999943D01*
X5467705Y3009239D01*
X5477662Y3019856D01*
X5486196Y3031642D01*
X5493207Y3044393D01*
X5498592Y3057906D01*
X5502198Y3072028D01*
X5504027Y3086455D01*
X5504027Y3100984D01*
X5502198Y3115411D01*
X5498592Y3129534D01*
X5493207Y3143046D01*
X5486196Y3155797D01*
X5477662Y3167583D01*
X5467705Y3178200D01*
X5456478Y3187496D01*
X5444185Y3195269D01*
X5431028Y3201466D01*
X5417159Y3205988D01*
X5402884Y3208680D01*
X5388356Y3209594D01*
X5373827Y3208680D01*
X5359552Y3205988D01*
X5345684Y3201466D01*
X5332526Y3195269D01*
X5320233Y3187496D01*
X5309006Y3178200D01*
X5299049Y3167583D01*
X5290515Y3155797D01*
X5283504Y3143046D01*
X5279948Y3134106D01*
X5277764Y3130702D01*
X5274462Y3128467D01*
X5270500Y3127654D01*
X5266537Y3128467D01*
X5263235Y3130702D01*
X5261051Y3134106D01*
X5257495Y3143046D01*
X5250484Y3155797D01*
X5241950Y3167583D01*
X5231993Y3178200D01*
X5220766Y3187496D01*
X5208473Y3195269D01*
X5195316Y3201466D01*
X5181447Y3205988D01*
X5167172Y3208680D01*
X5152644Y3209594D01*
X5138115Y3208680D01*
X5123840Y3205988D01*
X5109972Y3201466D01*
X5096814Y3195269D01*
X5084521Y3187496D01*
X5073294Y3178200D01*
X5063337Y3167583D01*
X5054803Y3155797D01*
X5047792Y3143046D01*
X5042408Y3129534D01*
X5038801Y3115411D01*
X5036972Y3100984D01*
X5036972Y3086455D01*
X5038801Y3072028D01*
X5042408Y3057906D01*
X5047792Y3044393D01*
X5054803Y3031642D01*
X5063337Y3019856D01*
X5073294Y3009239D01*
X5084521Y2999943D01*
X5096814Y2992170D01*
X5109972Y2985973D01*
X5123840Y2981452D01*
X5138115Y2978759D01*
G37*
G36*
X10305186Y3060446D02*
G01*
X10319613Y3060446D01*
X10333888Y3062224D01*
X10347858Y3065830D01*
X10361269Y3071114D01*
X10373918Y3078073D01*
X10385552Y3086557D01*
X10396067Y3096412D01*
X10405262Y3107537D01*
X10412984Y3119678D01*
X10419130Y3132734D01*
X10423601Y3146450D01*
X10426293Y3160623D01*
X10427208Y3175000D01*
X10426293Y3189376D01*
X10423601Y3203549D01*
X10419130Y3217265D01*
X10412984Y3230321D01*
X10405262Y3242462D01*
X10396067Y3253587D01*
X10385552Y3263442D01*
X10373918Y3271926D01*
X10361269Y3278886D01*
X10347858Y3284169D01*
X10333888Y3287776D01*
X10319613Y3289554D01*
X10305186Y3289554D01*
X10290911Y3287776D01*
X10276941Y3284169D01*
X10263530Y3278886D01*
X10250881Y3271926D01*
X10239248Y3263442D01*
X10228732Y3253587D01*
X10219537Y3242462D01*
X10211816Y3230321D01*
X10205669Y3217265D01*
X10201198Y3203549D01*
X10198506Y3189376D01*
X10197592Y3175000D01*
X10198506Y3160623D01*
X10201198Y3146450D01*
X10205669Y3132734D01*
X10211816Y3119678D01*
X10219537Y3107537D01*
X10228732Y3096412D01*
X10239248Y3086557D01*
X10250881Y3078073D01*
X10263530Y3071114D01*
X10276941Y3065830D01*
X10290911Y3062224D01*
G37*
G36*
X10051186Y3060446D02*
G01*
X10065613Y3060446D01*
X10079888Y3062224D01*
X10093858Y3065830D01*
X10107269Y3071114D01*
X10119918Y3078073D01*
X10131552Y3086557D01*
X10142067Y3096412D01*
X10151262Y3107537D01*
X10158984Y3119678D01*
X10165130Y3132734D01*
X10169601Y3146450D01*
X10172293Y3160623D01*
X10173208Y3175000D01*
X10172293Y3189376D01*
X10169601Y3203549D01*
X10165130Y3217265D01*
X10158984Y3230321D01*
X10151262Y3242462D01*
X10142067Y3253587D01*
X10131552Y3263442D01*
X10119918Y3271926D01*
X10107269Y3278886D01*
X10093858Y3284169D01*
X10079888Y3287776D01*
X10065613Y3289554D01*
X10051186Y3289554D01*
X10036911Y3287776D01*
X10022941Y3284169D01*
X10009530Y3278886D01*
X9996881Y3271926D01*
X9985248Y3263442D01*
X9974732Y3253587D01*
X9965537Y3242462D01*
X9957816Y3230321D01*
X9951669Y3217265D01*
X9947198Y3203549D01*
X9944506Y3189376D01*
X9943592Y3175000D01*
X9944506Y3160623D01*
X9947198Y3146450D01*
X9951669Y3132734D01*
X9957816Y3119678D01*
X9965537Y3107537D01*
X9974732Y3096412D01*
X9985248Y3086557D01*
X9996881Y3078073D01*
X10009530Y3071114D01*
X10022941Y3065830D01*
X10036911Y3062224D01*
G37*
G36*
X10305186Y3314446D02*
G01*
X10319613Y3314446D01*
X10333888Y3316224D01*
X10347858Y3319830D01*
X10361269Y3325114D01*
X10373918Y3332073D01*
X10385552Y3340557D01*
X10396067Y3350412D01*
X10405262Y3361537D01*
X10412984Y3373678D01*
X10419130Y3386734D01*
X10423601Y3400450D01*
X10426293Y3414623D01*
X10427208Y3429000D01*
X10426293Y3443376D01*
X10423601Y3457549D01*
X10419130Y3471265D01*
X10412984Y3484321D01*
X10405262Y3496462D01*
X10396067Y3507587D01*
X10385552Y3517442D01*
X10373918Y3525926D01*
X10361269Y3532886D01*
X10347858Y3538169D01*
X10333888Y3541776D01*
X10319613Y3543554D01*
X10305186Y3543554D01*
X10290911Y3541776D01*
X10276941Y3538169D01*
X10263530Y3532886D01*
X10250881Y3525926D01*
X10239248Y3517442D01*
X10228732Y3507587D01*
X10219537Y3496462D01*
X10211816Y3484321D01*
X10205669Y3471265D01*
X10201198Y3457549D01*
X10198506Y3443376D01*
X10197592Y3429000D01*
X10198506Y3414623D01*
X10201198Y3400450D01*
X10205669Y3386734D01*
X10211816Y3373678D01*
X10219537Y3361537D01*
X10228732Y3350412D01*
X10239248Y3340557D01*
X10250881Y3332073D01*
X10263530Y3325114D01*
X10276941Y3319830D01*
X10290911Y3316224D01*
G37*
G36*
X10051186Y3314446D02*
G01*
X10065613Y3314446D01*
X10079888Y3316224D01*
X10093858Y3319830D01*
X10107269Y3325114D01*
X10119918Y3332073D01*
X10131552Y3340557D01*
X10142067Y3350412D01*
X10151262Y3361537D01*
X10158984Y3373678D01*
X10165130Y3386734D01*
X10169601Y3400450D01*
X10172293Y3414623D01*
X10173208Y3429000D01*
X10172293Y3443376D01*
X10169601Y3457549D01*
X10165130Y3471265D01*
X10158984Y3484321D01*
X10151262Y3496462D01*
X10142067Y3507587D01*
X10131552Y3517442D01*
X10119918Y3525926D01*
X10107269Y3532886D01*
X10093858Y3538169D01*
X10079888Y3541776D01*
X10065613Y3543554D01*
X10051186Y3543554D01*
X10036911Y3541776D01*
X10022941Y3538169D01*
X10009530Y3532886D01*
X9996881Y3525926D01*
X9985248Y3517442D01*
X9974732Y3507587D01*
X9965537Y3496462D01*
X9957816Y3484321D01*
X9951669Y3471265D01*
X9947198Y3457549D01*
X9944506Y3443376D01*
X9943592Y3429000D01*
X9944506Y3414623D01*
X9947198Y3400450D01*
X9951669Y3386734D01*
X9957816Y3373678D01*
X9965537Y3361537D01*
X9974732Y3350412D01*
X9985248Y3340557D01*
X9996881Y3332073D01*
X10009530Y3325114D01*
X10022941Y3319830D01*
X10036911Y3316224D01*
G37*
G36*
X1993900Y3404108D02*
G01*
X1997913Y3406089D01*
X2012899Y3415436D01*
X2026767Y3426307D01*
X2039366Y3438601D01*
X2050643Y3452164D01*
X2060346Y3466846D01*
X2064461Y3474720D01*
X1993900Y3474720D01*
G37*
G36*
X1841500Y3404108D02*
G01*
X1841500Y3474720D01*
X1770684Y3474720D01*
X1779727Y3459378D01*
X1790242Y3445256D01*
X1802180Y3432301D01*
X1815439Y3420668D01*
X1829866Y3410559D01*
G37*
G36*
X10305186Y3568446D02*
G01*
X10319613Y3568446D01*
X10333888Y3570224D01*
X10347858Y3573830D01*
X10361269Y3579114D01*
X10373918Y3586073D01*
X10385552Y3594557D01*
X10396067Y3604412D01*
X10405262Y3615537D01*
X10412984Y3627678D01*
X10419130Y3640734D01*
X10423601Y3654450D01*
X10426293Y3668623D01*
X10427208Y3683000D01*
X10426293Y3697376D01*
X10423601Y3711549D01*
X10419130Y3725265D01*
X10412984Y3738321D01*
X10405262Y3750462D01*
X10396067Y3761587D01*
X10385552Y3771442D01*
X10373918Y3779926D01*
X10361269Y3786886D01*
X10347858Y3792169D01*
X10333888Y3795776D01*
X10319613Y3797554D01*
X10305186Y3797554D01*
X10290911Y3795776D01*
X10276941Y3792169D01*
X10263530Y3786886D01*
X10250881Y3779926D01*
X10239248Y3771442D01*
X10228732Y3761587D01*
X10219537Y3750462D01*
X10211816Y3738321D01*
X10205669Y3725265D01*
X10201198Y3711549D01*
X10198506Y3697376D01*
X10197592Y3683000D01*
X10198506Y3668623D01*
X10201198Y3654450D01*
X10205669Y3640734D01*
X10211816Y3627678D01*
X10219537Y3615537D01*
X10228732Y3604412D01*
X10239248Y3594557D01*
X10250881Y3586073D01*
X10263530Y3579114D01*
X10276941Y3573830D01*
X10290911Y3570224D01*
G37*
G36*
X10051186Y3568446D02*
G01*
X10065613Y3568446D01*
X10079888Y3570224D01*
X10093858Y3573830D01*
X10107269Y3579114D01*
X10119918Y3586073D01*
X10131552Y3594557D01*
X10142067Y3604412D01*
X10151262Y3615537D01*
X10158984Y3627678D01*
X10165130Y3640734D01*
X10169601Y3654450D01*
X10172293Y3668623D01*
X10173208Y3683000D01*
X10172293Y3697376D01*
X10169601Y3711549D01*
X10165130Y3725265D01*
X10158984Y3738321D01*
X10151262Y3750462D01*
X10142067Y3761587D01*
X10131552Y3771442D01*
X10119918Y3779926D01*
X10107269Y3786886D01*
X10093858Y3792169D01*
X10079888Y3795776D01*
X10065613Y3797554D01*
X10051186Y3797554D01*
X10036911Y3795776D01*
X10022941Y3792169D01*
X10009530Y3786886D01*
X9996881Y3779926D01*
X9985248Y3771442D01*
X9974732Y3761587D01*
X9965537Y3750462D01*
X9957816Y3738321D01*
X9951669Y3725265D01*
X9947198Y3711549D01*
X9944506Y3697376D01*
X9943592Y3683000D01*
X9944506Y3668623D01*
X9947198Y3654450D01*
X9951669Y3640734D01*
X9957816Y3627678D01*
X9965537Y3615537D01*
X9974732Y3604412D01*
X9985248Y3594557D01*
X9996881Y3586073D01*
X10009530Y3579114D01*
X10022941Y3573830D01*
X10036911Y3570224D01*
G37*
G36*
X1993900Y3627120D02*
G01*
X2064461Y3627120D01*
X2060346Y3634994D01*
X2050643Y3649675D01*
X2039366Y3663238D01*
X2026767Y3675532D01*
X2012899Y3686403D01*
X1997913Y3695750D01*
X1993900Y3697732D01*
G37*
G36*
X1770684Y3627120D02*
G01*
X1841500Y3627120D01*
X1841500Y3697732D01*
X1829866Y3691280D01*
X1815439Y3681171D01*
X1802180Y3669537D01*
X1790242Y3656584D01*
X1779727Y3642461D01*
G37*
G36*
X8527186Y4076446D02*
G01*
X8541613Y4076446D01*
X8555888Y4078224D01*
X8569858Y4081830D01*
X8583269Y4087114D01*
X8595918Y4094073D01*
X8607552Y4102557D01*
X8618067Y4112412D01*
X8627262Y4123537D01*
X8634984Y4135678D01*
X8641130Y4148734D01*
X8645601Y4162450D01*
X8648293Y4176623D01*
X8649208Y4191000D01*
X8648293Y4205376D01*
X8645601Y4219549D01*
X8641130Y4233265D01*
X8634984Y4246321D01*
X8627262Y4258462D01*
X8618067Y4269587D01*
X8607552Y4279442D01*
X8595918Y4287926D01*
X8583269Y4294886D01*
X8569858Y4300169D01*
X8555888Y4303776D01*
X8541613Y4305554D01*
X8527186Y4305554D01*
X8512911Y4303776D01*
X8498941Y4300169D01*
X8485530Y4294886D01*
X8472881Y4287926D01*
X8461248Y4279442D01*
X8450732Y4269587D01*
X8441537Y4258462D01*
X8433816Y4246321D01*
X8427669Y4233265D01*
X8423198Y4219549D01*
X8420506Y4205376D01*
X8419592Y4191000D01*
X8420506Y4176623D01*
X8423198Y4162450D01*
X8427669Y4148734D01*
X8433816Y4135678D01*
X8441537Y4123537D01*
X8450732Y4112412D01*
X8461248Y4102557D01*
X8472881Y4094073D01*
X8485530Y4087114D01*
X8498941Y4081830D01*
X8512911Y4078224D01*
G37*
G36*
X5987186Y4076446D02*
G01*
X6001613Y4076446D01*
X6015888Y4078224D01*
X6029858Y4081830D01*
X6043269Y4087114D01*
X6055918Y4094073D01*
X6067552Y4102557D01*
X6078067Y4112412D01*
X6087262Y4123537D01*
X6094984Y4135678D01*
X6101130Y4148734D01*
X6105601Y4162450D01*
X6108293Y4176623D01*
X6109208Y4191000D01*
X6108293Y4205376D01*
X6105601Y4219549D01*
X6101130Y4233265D01*
X6094984Y4246321D01*
X6087262Y4258462D01*
X6078067Y4269587D01*
X6067552Y4279442D01*
X6055918Y4287926D01*
X6043269Y4294886D01*
X6029858Y4300169D01*
X6015888Y4303776D01*
X6001613Y4305554D01*
X5987186Y4305554D01*
X5972911Y4303776D01*
X5958941Y4300169D01*
X5945530Y4294886D01*
X5932881Y4287926D01*
X5921248Y4279442D01*
X5910732Y4269587D01*
X5901537Y4258462D01*
X5893816Y4246321D01*
X5887669Y4233265D01*
X5883198Y4219549D01*
X5880506Y4205376D01*
X5879592Y4191000D01*
X5880506Y4176623D01*
X5883198Y4162450D01*
X5887669Y4148734D01*
X5893816Y4135678D01*
X5901537Y4123537D01*
X5910732Y4112412D01*
X5921248Y4102557D01*
X5932881Y4094073D01*
X5945530Y4087114D01*
X5958941Y4081830D01*
X5972911Y4078224D01*
G37*
G36*
X6241186Y4076446D02*
G01*
X6255613Y4076446D01*
X6269888Y4078224D01*
X6283858Y4081830D01*
X6297269Y4087114D01*
X6309918Y4094073D01*
X6321552Y4102557D01*
X6332067Y4112412D01*
X6341262Y4123537D01*
X6348984Y4135678D01*
X6355130Y4148734D01*
X6359601Y4162450D01*
X6362293Y4176623D01*
X6363208Y4191000D01*
X6362293Y4205376D01*
X6359601Y4219549D01*
X6355130Y4233265D01*
X6348984Y4246321D01*
X6341262Y4258462D01*
X6332067Y4269587D01*
X6321552Y4279442D01*
X6309918Y4287926D01*
X6297269Y4294886D01*
X6283858Y4300169D01*
X6269888Y4303776D01*
X6255613Y4305554D01*
X6241186Y4305554D01*
X6226911Y4303776D01*
X6212941Y4300169D01*
X6199530Y4294886D01*
X6186881Y4287926D01*
X6175248Y4279442D01*
X6164732Y4269587D01*
X6155537Y4258462D01*
X6147816Y4246321D01*
X6141669Y4233265D01*
X6137198Y4219549D01*
X6134506Y4205376D01*
X6133592Y4191000D01*
X6134506Y4176623D01*
X6137198Y4162450D01*
X6141669Y4148734D01*
X6147816Y4135678D01*
X6155537Y4123537D01*
X6164732Y4112412D01*
X6175248Y4102557D01*
X6186881Y4094073D01*
X6199530Y4087114D01*
X6212941Y4081830D01*
X6226911Y4078224D01*
G37*
G36*
X8273186Y4076446D02*
G01*
X8287613Y4076446D01*
X8301888Y4078224D01*
X8315858Y4081830D01*
X8329269Y4087114D01*
X8341918Y4094073D01*
X8353552Y4102557D01*
X8364067Y4112412D01*
X8373262Y4123537D01*
X8380984Y4135678D01*
X8387130Y4148734D01*
X8391601Y4162450D01*
X8394293Y4176623D01*
X8395208Y4191000D01*
X8394293Y4205376D01*
X8391601Y4219549D01*
X8387130Y4233265D01*
X8380984Y4246321D01*
X8373262Y4258462D01*
X8364067Y4269587D01*
X8353552Y4279442D01*
X8341918Y4287926D01*
X8329269Y4294886D01*
X8315858Y4300169D01*
X8301888Y4303776D01*
X8287613Y4305554D01*
X8273186Y4305554D01*
X8258911Y4303776D01*
X8244941Y4300169D01*
X8231530Y4294886D01*
X8218881Y4287926D01*
X8207248Y4279442D01*
X8196732Y4269587D01*
X8187537Y4258462D01*
X8179816Y4246321D01*
X8173669Y4233265D01*
X8169198Y4219549D01*
X8166506Y4205376D01*
X8165592Y4191000D01*
X8166506Y4176623D01*
X8169198Y4162450D01*
X8173669Y4148734D01*
X8179816Y4135678D01*
X8187537Y4123537D01*
X8196732Y4112412D01*
X8207248Y4102557D01*
X8218881Y4094073D01*
X8231530Y4087114D01*
X8244941Y4081830D01*
X8258911Y4078224D01*
G37*
G36*
X8781186Y4076446D02*
G01*
X8795613Y4076446D01*
X8809888Y4078224D01*
X8823858Y4081830D01*
X8837269Y4087114D01*
X8849918Y4094073D01*
X8861552Y4102557D01*
X8872067Y4112412D01*
X8881262Y4123537D01*
X8888984Y4135678D01*
X8895130Y4148734D01*
X8899601Y4162450D01*
X8902293Y4176623D01*
X8903208Y4191000D01*
X8902293Y4205376D01*
X8899601Y4219549D01*
X8895130Y4233265D01*
X8888984Y4246321D01*
X8881262Y4258462D01*
X8872067Y4269587D01*
X8861552Y4279442D01*
X8849918Y4287926D01*
X8837269Y4294886D01*
X8823858Y4300169D01*
X8809888Y4303776D01*
X8795613Y4305554D01*
X8781186Y4305554D01*
X8766911Y4303776D01*
X8752941Y4300169D01*
X8739530Y4294886D01*
X8726881Y4287926D01*
X8715248Y4279442D01*
X8704732Y4269587D01*
X8695537Y4258462D01*
X8687816Y4246321D01*
X8681669Y4233265D01*
X8677198Y4219549D01*
X8674506Y4205376D01*
X8673592Y4191000D01*
X8674506Y4176623D01*
X8677198Y4162450D01*
X8681669Y4148734D01*
X8687816Y4135678D01*
X8695537Y4123537D01*
X8704732Y4112412D01*
X8715248Y4102557D01*
X8726881Y4094073D01*
X8739530Y4087114D01*
X8752941Y4081830D01*
X8766911Y4078224D01*
G37*
G36*
X5733186Y4076446D02*
G01*
X5747613Y4076446D01*
X5761888Y4078224D01*
X5775858Y4081830D01*
X5789269Y4087114D01*
X5801918Y4094073D01*
X5813552Y4102557D01*
X5824067Y4112412D01*
X5833262Y4123537D01*
X5840984Y4135678D01*
X5847130Y4148734D01*
X5851601Y4162450D01*
X5854293Y4176623D01*
X5855208Y4191000D01*
X5854293Y4205376D01*
X5851601Y4219549D01*
X5847130Y4233265D01*
X5840984Y4246321D01*
X5833262Y4258462D01*
X5824067Y4269587D01*
X5813552Y4279442D01*
X5801918Y4287926D01*
X5789269Y4294886D01*
X5775858Y4300169D01*
X5761888Y4303776D01*
X5747613Y4305554D01*
X5733186Y4305554D01*
X5718911Y4303776D01*
X5704941Y4300169D01*
X5691530Y4294886D01*
X5678881Y4287926D01*
X5667248Y4279442D01*
X5656732Y4269587D01*
X5647537Y4258462D01*
X5639816Y4246321D01*
X5633669Y4233265D01*
X5629198Y4219549D01*
X5626506Y4205376D01*
X5625592Y4191000D01*
X5626506Y4176623D01*
X5629198Y4162450D01*
X5633669Y4148734D01*
X5639816Y4135678D01*
X5647537Y4123537D01*
X5656732Y4112412D01*
X5667248Y4102557D01*
X5678881Y4094073D01*
X5691530Y4087114D01*
X5704941Y4081830D01*
X5718911Y4078224D01*
G37*
G36*
X9797186Y4076446D02*
G01*
X9811613Y4076446D01*
X9825888Y4078224D01*
X9839858Y4081830D01*
X9853269Y4087114D01*
X9865918Y4094073D01*
X9877552Y4102557D01*
X9888067Y4112412D01*
X9897262Y4123537D01*
X9904984Y4135678D01*
X9911130Y4148734D01*
X9915601Y4162450D01*
X9918293Y4176623D01*
X9919208Y4191000D01*
X9918293Y4205376D01*
X9915601Y4219549D01*
X9911130Y4233265D01*
X9904984Y4246321D01*
X9897262Y4258462D01*
X9888067Y4269587D01*
X9877552Y4279442D01*
X9865918Y4287926D01*
X9853269Y4294886D01*
X9839858Y4300169D01*
X9825888Y4303776D01*
X9811613Y4305554D01*
X9797186Y4305554D01*
X9782911Y4303776D01*
X9768941Y4300169D01*
X9755530Y4294886D01*
X9742881Y4287926D01*
X9731248Y4279442D01*
X9720732Y4269587D01*
X9711537Y4258462D01*
X9703816Y4246321D01*
X9697669Y4233265D01*
X9693198Y4219549D01*
X9690506Y4205376D01*
X9689592Y4191000D01*
X9690506Y4176623D01*
X9693198Y4162450D01*
X9697669Y4148734D01*
X9703816Y4135678D01*
X9711537Y4123537D01*
X9720732Y4112412D01*
X9731248Y4102557D01*
X9742881Y4094073D01*
X9755530Y4087114D01*
X9768941Y4081830D01*
X9782911Y4078224D01*
G37*
G36*
X6495186Y4076446D02*
G01*
X6509613Y4076446D01*
X6523888Y4078224D01*
X6537858Y4081830D01*
X6551269Y4087114D01*
X6563918Y4094073D01*
X6575552Y4102557D01*
X6586067Y4112412D01*
X6595262Y4123537D01*
X6602984Y4135678D01*
X6609130Y4148734D01*
X6613601Y4162450D01*
X6616293Y4176623D01*
X6617208Y4191000D01*
X6616293Y4205376D01*
X6613601Y4219549D01*
X6609130Y4233265D01*
X6602984Y4246321D01*
X6595262Y4258462D01*
X6586067Y4269587D01*
X6575552Y4279442D01*
X6563918Y4287926D01*
X6551269Y4294886D01*
X6537858Y4300169D01*
X6523888Y4303776D01*
X6509613Y4305554D01*
X6495186Y4305554D01*
X6480911Y4303776D01*
X6466941Y4300169D01*
X6453530Y4294886D01*
X6440881Y4287926D01*
X6429248Y4279442D01*
X6418732Y4269587D01*
X6409537Y4258462D01*
X6401816Y4246321D01*
X6395669Y4233265D01*
X6391198Y4219549D01*
X6388506Y4205376D01*
X6387592Y4191000D01*
X6388506Y4176623D01*
X6391198Y4162450D01*
X6395669Y4148734D01*
X6401816Y4135678D01*
X6409537Y4123537D01*
X6418732Y4112412D01*
X6429248Y4102557D01*
X6440881Y4094073D01*
X6453530Y4087114D01*
X6466941Y4081830D01*
X6480911Y4078224D01*
G37*
G36*
X6749186Y4076446D02*
G01*
X6763613Y4076446D01*
X6777888Y4078224D01*
X6791858Y4081830D01*
X6805269Y4087114D01*
X6817918Y4094073D01*
X6829552Y4102557D01*
X6840067Y4112412D01*
X6849262Y4123537D01*
X6856984Y4135678D01*
X6863130Y4148734D01*
X6867601Y4162450D01*
X6870293Y4176623D01*
X6871208Y4191000D01*
X6870293Y4205376D01*
X6867601Y4219549D01*
X6863130Y4233265D01*
X6856984Y4246321D01*
X6849262Y4258462D01*
X6840067Y4269587D01*
X6829552Y4279442D01*
X6817918Y4287926D01*
X6805269Y4294886D01*
X6791858Y4300169D01*
X6777888Y4303776D01*
X6763613Y4305554D01*
X6749186Y4305554D01*
X6734911Y4303776D01*
X6720941Y4300169D01*
X6707530Y4294886D01*
X6694881Y4287926D01*
X6683248Y4279442D01*
X6672732Y4269587D01*
X6663537Y4258462D01*
X6655816Y4246321D01*
X6649669Y4233265D01*
X6645198Y4219549D01*
X6642506Y4205376D01*
X6641592Y4191000D01*
X6642506Y4176623D01*
X6645198Y4162450D01*
X6649669Y4148734D01*
X6655816Y4135678D01*
X6663537Y4123537D01*
X6672732Y4112412D01*
X6683248Y4102557D01*
X6694881Y4094073D01*
X6707530Y4087114D01*
X6720941Y4081830D01*
X6734911Y4078224D01*
G37*
G36*
X3447186Y4076446D02*
G01*
X3461613Y4076446D01*
X3475888Y4078224D01*
X3489858Y4081830D01*
X3503269Y4087114D01*
X3515918Y4094073D01*
X3527551Y4102557D01*
X3538067Y4112412D01*
X3547262Y4123537D01*
X3554984Y4135678D01*
X3561130Y4148734D01*
X3565601Y4162450D01*
X3568293Y4176623D01*
X3569208Y4191000D01*
X3568293Y4205376D01*
X3565601Y4219549D01*
X3561130Y4233265D01*
X3554984Y4246321D01*
X3547262Y4258462D01*
X3538067Y4269587D01*
X3527551Y4279442D01*
X3515918Y4287926D01*
X3503269Y4294886D01*
X3489858Y4300169D01*
X3475888Y4303776D01*
X3461613Y4305554D01*
X3447186Y4305554D01*
X3432911Y4303776D01*
X3418941Y4300169D01*
X3405530Y4294886D01*
X3392881Y4287926D01*
X3381248Y4279442D01*
X3370732Y4269587D01*
X3361537Y4258462D01*
X3353815Y4246321D01*
X3347669Y4233265D01*
X3343198Y4219549D01*
X3340506Y4205376D01*
X3339592Y4191000D01*
X3340506Y4176623D01*
X3343198Y4162450D01*
X3347669Y4148734D01*
X3353815Y4135678D01*
X3361537Y4123537D01*
X3370732Y4112412D01*
X3381248Y4102557D01*
X3392881Y4094073D01*
X3405530Y4087114D01*
X3418941Y4081830D01*
X3432911Y4078224D01*
G37*
G36*
X7511186Y4076446D02*
G01*
X7525613Y4076446D01*
X7539888Y4078224D01*
X7553858Y4081830D01*
X7567269Y4087114D01*
X7579918Y4094073D01*
X7591552Y4102557D01*
X7602067Y4112412D01*
X7611262Y4123537D01*
X7618984Y4135678D01*
X7625130Y4148734D01*
X7629601Y4162450D01*
X7632293Y4176623D01*
X7633208Y4191000D01*
X7632293Y4205376D01*
X7629601Y4219549D01*
X7625130Y4233265D01*
X7618984Y4246321D01*
X7611262Y4258462D01*
X7602067Y4269587D01*
X7591552Y4279442D01*
X7579918Y4287926D01*
X7567269Y4294886D01*
X7553858Y4300169D01*
X7539888Y4303776D01*
X7525613Y4305554D01*
X7511186Y4305554D01*
X7496911Y4303776D01*
X7482941Y4300169D01*
X7469530Y4294886D01*
X7456881Y4287926D01*
X7445248Y4279442D01*
X7434732Y4269587D01*
X7425537Y4258462D01*
X7417816Y4246321D01*
X7411669Y4233265D01*
X7407198Y4219549D01*
X7404506Y4205376D01*
X7403592Y4191000D01*
X7404506Y4176623D01*
X7407198Y4162450D01*
X7411669Y4148734D01*
X7417816Y4135678D01*
X7425537Y4123537D01*
X7434732Y4112412D01*
X7445248Y4102557D01*
X7456881Y4094073D01*
X7469530Y4087114D01*
X7482941Y4081830D01*
X7496911Y4078224D01*
G37*
G36*
X9289186Y4076446D02*
G01*
X9303613Y4076446D01*
X9317888Y4078224D01*
X9331858Y4081830D01*
X9345269Y4087114D01*
X9357918Y4094073D01*
X9369552Y4102557D01*
X9380067Y4112412D01*
X9389262Y4123537D01*
X9396984Y4135678D01*
X9403130Y4148734D01*
X9407601Y4162450D01*
X9410293Y4176623D01*
X9411208Y4191000D01*
X9410293Y4205376D01*
X9407601Y4219549D01*
X9403130Y4233265D01*
X9396984Y4246321D01*
X9389262Y4258462D01*
X9380067Y4269587D01*
X9369552Y4279442D01*
X9357918Y4287926D01*
X9345269Y4294886D01*
X9331858Y4300169D01*
X9317888Y4303776D01*
X9303613Y4305554D01*
X9289186Y4305554D01*
X9274911Y4303776D01*
X9260941Y4300169D01*
X9247530Y4294886D01*
X9234881Y4287926D01*
X9223248Y4279442D01*
X9212732Y4269587D01*
X9203537Y4258462D01*
X9195816Y4246321D01*
X9189669Y4233265D01*
X9185198Y4219549D01*
X9182506Y4205376D01*
X9181592Y4191000D01*
X9182506Y4176623D01*
X9185198Y4162450D01*
X9189669Y4148734D01*
X9195816Y4135678D01*
X9203537Y4123537D01*
X9212732Y4112412D01*
X9223248Y4102557D01*
X9234881Y4094073D01*
X9247530Y4087114D01*
X9260941Y4081830D01*
X9274911Y4078224D01*
G37*
G36*
X9035186Y4076446D02*
G01*
X9049613Y4076446D01*
X9063888Y4078224D01*
X9077858Y4081830D01*
X9091269Y4087114D01*
X9103918Y4094073D01*
X9115552Y4102557D01*
X9126067Y4112412D01*
X9135262Y4123537D01*
X9142984Y4135678D01*
X9149130Y4148734D01*
X9153601Y4162450D01*
X9156293Y4176623D01*
X9157208Y4191000D01*
X9156293Y4205376D01*
X9153601Y4219549D01*
X9149130Y4233265D01*
X9142984Y4246321D01*
X9135262Y4258462D01*
X9126067Y4269587D01*
X9115552Y4279442D01*
X9103918Y4287926D01*
X9091269Y4294886D01*
X9077858Y4300169D01*
X9063888Y4303776D01*
X9049613Y4305554D01*
X9035186Y4305554D01*
X9020911Y4303776D01*
X9006941Y4300169D01*
X8993530Y4294886D01*
X8980881Y4287926D01*
X8969248Y4279442D01*
X8958732Y4269587D01*
X8949537Y4258462D01*
X8941816Y4246321D01*
X8935669Y4233265D01*
X8931198Y4219549D01*
X8928506Y4205376D01*
X8927592Y4191000D01*
X8928506Y4176623D01*
X8931198Y4162450D01*
X8935669Y4148734D01*
X8941816Y4135678D01*
X8949537Y4123537D01*
X8958732Y4112412D01*
X8969248Y4102557D01*
X8980881Y4094073D01*
X8993530Y4087114D01*
X9006941Y4081830D01*
X9020911Y4078224D01*
G37*
G36*
X5225186Y4076446D02*
G01*
X5239613Y4076446D01*
X5253888Y4078224D01*
X5267858Y4081830D01*
X5281269Y4087114D01*
X5293918Y4094073D01*
X5305552Y4102557D01*
X5316067Y4112412D01*
X5325262Y4123537D01*
X5332984Y4135678D01*
X5339130Y4148734D01*
X5343601Y4162450D01*
X5346293Y4176623D01*
X5347208Y4191000D01*
X5346293Y4205376D01*
X5343601Y4219549D01*
X5339130Y4233265D01*
X5332984Y4246321D01*
X5325262Y4258462D01*
X5316067Y4269587D01*
X5305552Y4279442D01*
X5293918Y4287926D01*
X5281269Y4294886D01*
X5267858Y4300169D01*
X5253888Y4303776D01*
X5239613Y4305554D01*
X5225186Y4305554D01*
X5210911Y4303776D01*
X5196941Y4300169D01*
X5183530Y4294886D01*
X5170881Y4287926D01*
X5159248Y4279442D01*
X5148732Y4269587D01*
X5139537Y4258462D01*
X5131816Y4246321D01*
X5125669Y4233265D01*
X5121198Y4219549D01*
X5118506Y4205376D01*
X5117592Y4191000D01*
X5118506Y4176623D01*
X5121198Y4162450D01*
X5125669Y4148734D01*
X5131816Y4135678D01*
X5139537Y4123537D01*
X5148732Y4112412D01*
X5159248Y4102557D01*
X5170881Y4094073D01*
X5183530Y4087114D01*
X5196941Y4081830D01*
X5210911Y4078224D01*
G37*
G36*
X3955186Y4076446D02*
G01*
X3969613Y4076446D01*
X3983888Y4078224D01*
X3997858Y4081830D01*
X4011269Y4087114D01*
X4023918Y4094073D01*
X4035551Y4102557D01*
X4046067Y4112412D01*
X4055262Y4123537D01*
X4062984Y4135678D01*
X4069130Y4148734D01*
X4073601Y4162450D01*
X4076293Y4176623D01*
X4077208Y4191000D01*
X4076293Y4205376D01*
X4073601Y4219549D01*
X4069130Y4233265D01*
X4062984Y4246321D01*
X4055262Y4258462D01*
X4046067Y4269587D01*
X4035551Y4279442D01*
X4023918Y4287926D01*
X4011269Y4294886D01*
X3997858Y4300169D01*
X3983888Y4303776D01*
X3969613Y4305554D01*
X3955186Y4305554D01*
X3940911Y4303776D01*
X3926941Y4300169D01*
X3913530Y4294886D01*
X3900881Y4287926D01*
X3889248Y4279442D01*
X3878732Y4269587D01*
X3869537Y4258462D01*
X3861815Y4246321D01*
X3855669Y4233265D01*
X3851198Y4219549D01*
X3848506Y4205376D01*
X3847592Y4191000D01*
X3848506Y4176623D01*
X3851198Y4162450D01*
X3855669Y4148734D01*
X3861815Y4135678D01*
X3869537Y4123537D01*
X3878732Y4112412D01*
X3889248Y4102557D01*
X3900881Y4094073D01*
X3913530Y4087114D01*
X3926941Y4081830D01*
X3940911Y4078224D01*
G37*
G36*
X7003186Y4076446D02*
G01*
X7017613Y4076446D01*
X7031888Y4078224D01*
X7045858Y4081830D01*
X7059269Y4087114D01*
X7071918Y4094073D01*
X7083552Y4102557D01*
X7094067Y4112412D01*
X7103262Y4123537D01*
X7110984Y4135678D01*
X7117130Y4148734D01*
X7121601Y4162450D01*
X7124293Y4176623D01*
X7125208Y4191000D01*
X7124293Y4205376D01*
X7121601Y4219549D01*
X7117130Y4233265D01*
X7110984Y4246321D01*
X7103262Y4258462D01*
X7094067Y4269587D01*
X7083552Y4279442D01*
X7071918Y4287926D01*
X7059269Y4294886D01*
X7045858Y4300169D01*
X7031888Y4303776D01*
X7017613Y4305554D01*
X7003186Y4305554D01*
X6988911Y4303776D01*
X6974941Y4300169D01*
X6961530Y4294886D01*
X6948881Y4287926D01*
X6937248Y4279442D01*
X6926732Y4269587D01*
X6917537Y4258462D01*
X6909816Y4246321D01*
X6903669Y4233265D01*
X6899198Y4219549D01*
X6896506Y4205376D01*
X6895592Y4191000D01*
X6896506Y4176623D01*
X6899198Y4162450D01*
X6903669Y4148734D01*
X6909816Y4135678D01*
X6917537Y4123537D01*
X6926732Y4112412D01*
X6937248Y4102557D01*
X6948881Y4094073D01*
X6961530Y4087114D01*
X6974941Y4081830D01*
X6988911Y4078224D01*
G37*
G36*
X3701186Y4076446D02*
G01*
X3715613Y4076446D01*
X3729888Y4078224D01*
X3743858Y4081830D01*
X3757269Y4087114D01*
X3769918Y4094073D01*
X3781551Y4102557D01*
X3792067Y4112412D01*
X3801262Y4123537D01*
X3808984Y4135678D01*
X3815130Y4148734D01*
X3819601Y4162450D01*
X3822293Y4176623D01*
X3823208Y4191000D01*
X3822293Y4205376D01*
X3819601Y4219549D01*
X3815130Y4233265D01*
X3808984Y4246321D01*
X3801262Y4258462D01*
X3792067Y4269587D01*
X3781551Y4279442D01*
X3769918Y4287926D01*
X3757269Y4294886D01*
X3743858Y4300169D01*
X3729888Y4303776D01*
X3715613Y4305554D01*
X3701186Y4305554D01*
X3686911Y4303776D01*
X3672941Y4300169D01*
X3659530Y4294886D01*
X3646881Y4287926D01*
X3635248Y4279442D01*
X3624732Y4269587D01*
X3615537Y4258462D01*
X3607815Y4246321D01*
X3601669Y4233265D01*
X3597198Y4219549D01*
X3594506Y4205376D01*
X3593592Y4191000D01*
X3594506Y4176623D01*
X3597198Y4162450D01*
X3601669Y4148734D01*
X3607815Y4135678D01*
X3615537Y4123537D01*
X3624732Y4112412D01*
X3635248Y4102557D01*
X3646881Y4094073D01*
X3659530Y4087114D01*
X3672941Y4081830D01*
X3686911Y4078224D01*
G37*
G36*
X8019186Y4076446D02*
G01*
X8033613Y4076446D01*
X8047888Y4078224D01*
X8061858Y4081830D01*
X8075269Y4087114D01*
X8087918Y4094073D01*
X8099552Y4102557D01*
X8110067Y4112412D01*
X8119262Y4123537D01*
X8126984Y4135678D01*
X8133130Y4148734D01*
X8137601Y4162450D01*
X8140293Y4176623D01*
X8141208Y4191000D01*
X8140293Y4205376D01*
X8137601Y4219549D01*
X8133130Y4233265D01*
X8126984Y4246321D01*
X8119262Y4258462D01*
X8110067Y4269587D01*
X8099552Y4279442D01*
X8087918Y4287926D01*
X8075269Y4294886D01*
X8061858Y4300169D01*
X8047888Y4303776D01*
X8033613Y4305554D01*
X8019186Y4305554D01*
X8004911Y4303776D01*
X7990941Y4300169D01*
X7977530Y4294886D01*
X7964881Y4287926D01*
X7953248Y4279442D01*
X7942732Y4269587D01*
X7933537Y4258462D01*
X7925816Y4246321D01*
X7919669Y4233265D01*
X7915198Y4219549D01*
X7912506Y4205376D01*
X7911592Y4191000D01*
X7912506Y4176623D01*
X7915198Y4162450D01*
X7919669Y4148734D01*
X7925816Y4135678D01*
X7933537Y4123537D01*
X7942732Y4112412D01*
X7953248Y4102557D01*
X7964881Y4094073D01*
X7977530Y4087114D01*
X7990941Y4081830D01*
X8004911Y4078224D01*
G37*
G36*
X9543186Y4076446D02*
G01*
X9557613Y4076446D01*
X9571888Y4078224D01*
X9585858Y4081830D01*
X9599269Y4087114D01*
X9611918Y4094073D01*
X9623552Y4102557D01*
X9634067Y4112412D01*
X9643262Y4123537D01*
X9650984Y4135678D01*
X9657130Y4148734D01*
X9661601Y4162450D01*
X9664293Y4176623D01*
X9665208Y4191000D01*
X9664293Y4205376D01*
X9661601Y4219549D01*
X9657130Y4233265D01*
X9650984Y4246321D01*
X9643262Y4258462D01*
X9634067Y4269587D01*
X9623552Y4279442D01*
X9611918Y4287926D01*
X9599269Y4294886D01*
X9585858Y4300169D01*
X9571888Y4303776D01*
X9557613Y4305554D01*
X9543186Y4305554D01*
X9528911Y4303776D01*
X9514941Y4300169D01*
X9501530Y4294886D01*
X9488881Y4287926D01*
X9477248Y4279442D01*
X9466732Y4269587D01*
X9457537Y4258462D01*
X9449816Y4246321D01*
X9443669Y4233265D01*
X9439198Y4219549D01*
X9436506Y4205376D01*
X9435592Y4191000D01*
X9436506Y4176623D01*
X9439198Y4162450D01*
X9443669Y4148734D01*
X9449816Y4135678D01*
X9457537Y4123537D01*
X9466732Y4112412D01*
X9477248Y4102557D01*
X9488881Y4094073D01*
X9501530Y4087114D01*
X9514941Y4081830D01*
X9528911Y4078224D01*
G37*
G36*
X4971186Y4076446D02*
G01*
X4985613Y4076446D01*
X4999888Y4078224D01*
X5013858Y4081830D01*
X5027269Y4087114D01*
X5039918Y4094073D01*
X5051552Y4102557D01*
X5062067Y4112412D01*
X5071262Y4123537D01*
X5078984Y4135678D01*
X5085130Y4148734D01*
X5089601Y4162450D01*
X5092293Y4176623D01*
X5093208Y4191000D01*
X5092293Y4205376D01*
X5089601Y4219549D01*
X5085130Y4233265D01*
X5078984Y4246321D01*
X5071262Y4258462D01*
X5062067Y4269587D01*
X5051552Y4279442D01*
X5039918Y4287926D01*
X5027269Y4294886D01*
X5013858Y4300169D01*
X4999888Y4303776D01*
X4985613Y4305554D01*
X4971186Y4305554D01*
X4956911Y4303776D01*
X4942941Y4300169D01*
X4929530Y4294886D01*
X4916881Y4287926D01*
X4905248Y4279442D01*
X4894732Y4269587D01*
X4885537Y4258462D01*
X4877816Y4246321D01*
X4871669Y4233265D01*
X4867198Y4219549D01*
X4864506Y4205376D01*
X4863592Y4191000D01*
X4864506Y4176623D01*
X4867198Y4162450D01*
X4871669Y4148734D01*
X4877816Y4135678D01*
X4885537Y4123537D01*
X4894732Y4112412D01*
X4905248Y4102557D01*
X4916881Y4094073D01*
X4929530Y4087114D01*
X4942941Y4081830D01*
X4956911Y4078224D01*
G37*
G36*
X7257186Y4076446D02*
G01*
X7271613Y4076446D01*
X7285888Y4078224D01*
X7299858Y4081830D01*
X7313269Y4087114D01*
X7325918Y4094073D01*
X7337552Y4102557D01*
X7348067Y4112412D01*
X7357262Y4123537D01*
X7364984Y4135678D01*
X7371130Y4148734D01*
X7375601Y4162450D01*
X7378293Y4176623D01*
X7379208Y4191000D01*
X7378293Y4205376D01*
X7375601Y4219549D01*
X7371130Y4233265D01*
X7364984Y4246321D01*
X7357262Y4258462D01*
X7348067Y4269587D01*
X7337552Y4279442D01*
X7325918Y4287926D01*
X7313269Y4294886D01*
X7299858Y4300169D01*
X7285888Y4303776D01*
X7271613Y4305554D01*
X7257186Y4305554D01*
X7242911Y4303776D01*
X7228941Y4300169D01*
X7215530Y4294886D01*
X7202881Y4287926D01*
X7191248Y4279442D01*
X7180732Y4269587D01*
X7171537Y4258462D01*
X7163816Y4246321D01*
X7157669Y4233265D01*
X7153198Y4219549D01*
X7150506Y4205376D01*
X7149592Y4191000D01*
X7150506Y4176623D01*
X7153198Y4162450D01*
X7157669Y4148734D01*
X7163816Y4135678D01*
X7171537Y4123537D01*
X7180732Y4112412D01*
X7191248Y4102557D01*
X7202881Y4094073D01*
X7215530Y4087114D01*
X7228941Y4081830D01*
X7242911Y4078224D01*
G37*
G36*
X4717186Y4076446D02*
G01*
X4731613Y4076446D01*
X4745888Y4078224D01*
X4759858Y4081830D01*
X4773269Y4087114D01*
X4785918Y4094073D01*
X4797552Y4102557D01*
X4808067Y4112412D01*
X4817262Y4123537D01*
X4824984Y4135678D01*
X4831130Y4148734D01*
X4835601Y4162450D01*
X4838293Y4176623D01*
X4839208Y4191000D01*
X4838293Y4205376D01*
X4835601Y4219549D01*
X4831130Y4233265D01*
X4824984Y4246321D01*
X4817262Y4258462D01*
X4808067Y4269587D01*
X4797552Y4279442D01*
X4785918Y4287926D01*
X4773269Y4294886D01*
X4759858Y4300169D01*
X4745888Y4303776D01*
X4731613Y4305554D01*
X4717186Y4305554D01*
X4702911Y4303776D01*
X4688941Y4300169D01*
X4675530Y4294886D01*
X4662881Y4287926D01*
X4651248Y4279442D01*
X4640732Y4269587D01*
X4631537Y4258462D01*
X4623816Y4246321D01*
X4617669Y4233265D01*
X4613198Y4219549D01*
X4610506Y4205376D01*
X4609592Y4191000D01*
X4610506Y4176623D01*
X4613198Y4162450D01*
X4617669Y4148734D01*
X4623816Y4135678D01*
X4631537Y4123537D01*
X4640732Y4112412D01*
X4651248Y4102557D01*
X4662881Y4094073D01*
X4675530Y4087114D01*
X4688941Y4081830D01*
X4702911Y4078224D01*
G37*
G36*
X4209186Y4076446D02*
G01*
X4223613Y4076446D01*
X4237888Y4078224D01*
X4251858Y4081830D01*
X4265269Y4087114D01*
X4277918Y4094073D01*
X4289552Y4102557D01*
X4300067Y4112412D01*
X4309262Y4123537D01*
X4316984Y4135678D01*
X4323130Y4148734D01*
X4327601Y4162450D01*
X4330293Y4176623D01*
X4331208Y4191000D01*
X4330293Y4205376D01*
X4327601Y4219549D01*
X4323130Y4233265D01*
X4316984Y4246321D01*
X4309262Y4258462D01*
X4300067Y4269587D01*
X4289552Y4279442D01*
X4277918Y4287926D01*
X4265269Y4294886D01*
X4251858Y4300169D01*
X4237888Y4303776D01*
X4223613Y4305554D01*
X4209186Y4305554D01*
X4194911Y4303776D01*
X4180941Y4300169D01*
X4167530Y4294886D01*
X4154881Y4287926D01*
X4143248Y4279442D01*
X4132732Y4269587D01*
X4123537Y4258462D01*
X4115815Y4246321D01*
X4109669Y4233265D01*
X4105198Y4219549D01*
X4102506Y4205376D01*
X4101592Y4191000D01*
X4102506Y4176623D01*
X4105198Y4162450D01*
X4109669Y4148734D01*
X4115815Y4135678D01*
X4123537Y4123537D01*
X4132732Y4112412D01*
X4143248Y4102557D01*
X4154881Y4094073D01*
X4167530Y4087114D01*
X4180941Y4081830D01*
X4194911Y4078224D01*
G37*
G36*
X1913280Y4386122D02*
G01*
X1930907Y4386630D01*
X1948383Y4388967D01*
X1965502Y4393133D01*
X1982063Y4399127D01*
X1997913Y4406849D01*
X2012899Y4416196D01*
X2026767Y4427067D01*
X2039366Y4439361D01*
X2050643Y4452924D01*
X2060346Y4467606D01*
X2068474Y4483252D01*
X2074925Y4499660D01*
X2079548Y4516678D01*
X2082342Y4534103D01*
X2083307Y4551680D01*
X2082342Y4569256D01*
X2079548Y4586681D01*
X2074925Y4603699D01*
X2068474Y4620107D01*
X2060346Y4635754D01*
X2050643Y4650435D01*
X2039366Y4663998D01*
X2026767Y4676292D01*
X2012899Y4687163D01*
X1997913Y4696510D01*
X1982063Y4704232D01*
X1965502Y4710226D01*
X1948383Y4714392D01*
X1930907Y4716729D01*
X1913280Y4717237D01*
X1895703Y4715814D01*
X1878380Y4712563D01*
X1861515Y4707432D01*
X1845310Y4700574D01*
X1829866Y4692040D01*
X1815439Y4681931D01*
X1802180Y4670298D01*
X1790242Y4657344D01*
X1779727Y4643221D01*
X1770735Y4628032D01*
X1763471Y4611979D01*
X1757934Y4595266D01*
X1754225Y4577994D01*
X1752346Y4560468D01*
X1752346Y4542891D01*
X1754225Y4525314D01*
X1757934Y4508093D01*
X1763471Y4491380D01*
X1770735Y4475327D01*
X1779727Y4460138D01*
X1790242Y4446016D01*
X1802180Y4433062D01*
X1815439Y4421428D01*
X1829866Y4411319D01*
X1845310Y4402734D01*
X1861515Y4395927D01*
X1878380Y4390796D01*
X1895703Y4387545D01*
G37*

%LPD*%
D10*
X3581400Y292100D02*
G01*
X2081301Y292100D01*
X1836445Y536955D01*
X6819900Y1930400D02*
G01*
X6781800Y1930400D01*
X6400800Y1549400D01*
X5930900Y1549400D01*
X5232400Y850900D01*
X4927600Y1358900D02*
G01*
X5016500Y1447800D01*
X5016500Y1714500D01*
X5092700Y1790700D01*
X5092700Y2159000D01*
X5388358Y2443479D01*
X7344156Y2291079D02*
G01*
X6424675Y1371600D01*
X6235700Y1371600D01*
X5765800Y850900D01*
X7991856Y2291054D02*
G01*
X6856501Y1155700D01*
X6273800Y1155700D01*
X6477000Y1765300D02*
G01*
X6477000Y2071593D01*
X6696458Y2291054D01*
X4953000Y863600D02*
G01*
X4953000Y1130300D01*
X5219700Y1397000D01*
X5232400Y1562100D02*
G01*
X5689600Y1562100D01*
X5892800Y1765300D01*
X5892800Y2135098D01*
X6048756Y2291054D01*
X9089643Y2291054D02*
G01*
X8627986Y2752712D01*
X7980286Y2752712D01*
X8441943Y2291054D02*
G01*
X7980286Y2752712D01*
X7332586Y2752712D01*
X7794243Y2291054D02*
G01*
X7332586Y2752712D01*
X6684886Y2752712D01*
X7146543Y2291054D02*
G01*
X6684886Y2752712D01*
X6037186Y2752712D01*
X6498843Y2291054D02*
G01*
X6037186Y2752712D01*
X5529186Y2752712D01*
X5838443Y2443454D02*
G01*
X5529186Y2752712D01*
X4843386Y2752712D01*
X6299200Y850900D02*
G01*
X6299200Y431800D01*
X6858000Y-127000D01*
X9652000Y-127000D01*
X9753600Y762000D02*
G01*
X9842500Y673100D01*
X9842500Y-190500D01*
X10058400Y-381000D01*
X9753600Y762000D02*
G01*
X9804400Y711200D01*
X5152643Y2443454D02*
G01*
X4470400Y3125698D01*
X4470400Y4191000D01*
X5842000Y1054100D02*
G01*
X5600700Y1054100D01*
X5562600Y1092200D01*
D11*
G01*
X8216900Y762000D03*
G01*
X8470900Y762000D03*
G01*
X7962900Y177800D03*
G01*
X8216900Y177800D03*
D12*
G01*
X1917700Y4551679D03*
G01*
X1917700Y3550920D03*
D13*
G01*
X5765800Y1866900D03*
G01*
X5765800Y850900D03*
G01*
X5499100Y1866900D03*
G01*
X5499100Y850900D03*
G01*
X5232400Y1866900D03*
G01*
X5232400Y850900D03*
G01*
X4965700Y1866900D03*
G01*
X4965700Y850900D03*
G01*
X4699000Y1866900D03*
G01*
X4699000Y850900D03*
G01*
X3581400Y1308100D03*
G01*
X3581400Y292100D03*
G01*
X6032500Y1866900D03*
G01*
X6032500Y850900D03*
G01*
X8737600Y762000D03*
G01*
X9753600Y762000D03*
G01*
X8636000Y177800D03*
G01*
X9652000Y177800D03*
G01*
X7264400Y469900D03*
G01*
X7264400Y-546100D03*
G01*
X6299200Y1866900D03*
G01*
X6299200Y850900D03*
D14*
G01*
X2565400Y-635000D03*
G01*
X2819400Y-635000D03*
G01*
X3073400Y-635000D03*
G01*
X3327400Y-635000D03*
G01*
X3581400Y-635000D03*
G01*
X3835400Y-635000D03*
G01*
X4089400Y-635000D03*
G01*
X4343400Y-635000D03*
G01*
X4597400Y-635000D03*
G01*
X4851400Y-635000D03*
G01*
X5232400Y-635000D03*
G01*
X5486400Y-635000D03*
G01*
X5740400Y-635000D03*
G01*
X5994400Y-635000D03*
G01*
X6248400Y-635000D03*
G01*
X6502400Y-635000D03*
G01*
X6756400Y-635000D03*
G01*
X7010400Y-635000D03*
G01*
X7518400Y-635000D03*
G01*
X7772400Y-635000D03*
G01*
X8026400Y-635000D03*
G01*
X8280400Y-635000D03*
G01*
X8534400Y-635000D03*
G01*
X8788400Y-635000D03*
G01*
X9042400Y-635000D03*
G01*
X9296400Y-635000D03*
G01*
X10312400Y-635000D03*
G01*
X10058400Y-635000D03*
G01*
X10312400Y-381000D03*
G01*
X10312400Y-127000D03*
G01*
X10058400Y-381000D03*
G01*
X10058400Y-127000D03*
G01*
X10312400Y381000D03*
G01*
X10058400Y381000D03*
G01*
X10058400Y635000D03*
G01*
X10312400Y635000D03*
G01*
X10058400Y1143000D03*
G01*
X10312400Y1143000D03*
G01*
X10058400Y1397000D03*
G01*
X10312400Y1397000D03*
G01*
X10058400Y1651000D03*
G01*
X10312400Y1651000D03*
G01*
X10058400Y1905000D03*
G01*
X10312400Y1905000D03*
G01*
X10312400Y2159000D03*
G01*
X10058400Y2159000D03*
G01*
X10058400Y2413000D03*
G01*
X10312400Y2413000D03*
G01*
X10312400Y2667000D03*
G01*
X10058400Y2667000D03*
G01*
X10058400Y2921000D03*
G01*
X10312400Y2921000D03*
G01*
X10312400Y3175000D03*
G01*
X10058400Y3175000D03*
G01*
X10058400Y3429000D03*
G01*
X10312400Y3429000D03*
G01*
X10312400Y3683000D03*
G01*
X10058400Y3683000D03*
G01*
X9804400Y4191000D03*
G01*
X9550400Y4191000D03*
G01*
X9296400Y4191000D03*
G01*
X9042400Y4191000D03*
G01*
X8788400Y4191000D03*
G01*
X8534400Y4191000D03*
G01*
X8280400Y4191000D03*
G01*
X8026400Y4191000D03*
G01*
X7518400Y4191000D03*
G01*
X7264400Y4191000D03*
G01*
X7010400Y4191000D03*
G01*
X6756400Y4191000D03*
G01*
X6502400Y4191000D03*
G01*
X6248400Y4191000D03*
G01*
X5994400Y4191000D03*
G01*
X5740400Y4191000D03*
G01*
X5232400Y4191000D03*
G01*
X4978400Y4191000D03*
G01*
X4724400Y4191000D03*
G01*
X4470400Y4191000D03*
G01*
X4216400Y4191000D03*
G01*
X3962400Y4191000D03*
G01*
X3708400Y4191000D03*
G01*
X3454400Y4191000D03*
D15*
G01*
X9296400Y-635000D03*
D16*
G01*
X7794243Y2941294D03*
G01*
X7344156Y2941294D03*
G01*
X7794243Y2291054D03*
G01*
X7344156Y2291054D03*
G01*
X8441943Y2941294D03*
G01*
X7991856Y2941294D03*
G01*
X8441943Y2291054D03*
G01*
X7991856Y2291054D03*
G01*
X9089643Y2941294D03*
G01*
X8639556Y2941294D03*
G01*
X9089643Y2291054D03*
G01*
X8639556Y2291054D03*
G01*
X7146543Y2941294D03*
G01*
X6696456Y2941294D03*
G01*
X7146543Y2291054D03*
G01*
X6696456Y2291054D03*
G01*
X6498843Y2941294D03*
G01*
X6048756Y2941294D03*
G01*
X6498843Y2291054D03*
G01*
X6048756Y2291054D03*
G01*
X1186205Y987044D03*
G01*
X1186205Y536955D03*
G01*
X1836445Y987044D03*
G01*
X1836445Y536955D03*
G01*
X5838443Y3093694D03*
G01*
X5388356Y3093694D03*
G01*
X5838443Y2443454D03*
G01*
X5388356Y2443454D03*
G01*
X5152643Y3093694D03*
G01*
X4702556Y3093694D03*
G01*
X5152643Y2443454D03*
G01*
X4702556Y2443454D03*
D15*
G01*
X2743200Y-1663700D03*
G01*
X2997200Y-1663700D03*
G01*
X3251200Y-1663700D03*
G01*
X3505200Y-1663700D03*
G01*
X3759200Y-1663700D03*
G01*
X4013200Y-1663700D03*
G01*
X4267200Y-1663700D03*
G01*
X4521200Y-1663700D03*
G01*
X4775200Y-1663700D03*
G01*
X5029200Y-1663700D03*
G01*
X5283200Y-1663700D03*
G01*
X5537200Y-1663700D03*
G01*
X5791200Y-1663700D03*
G01*
X6045200Y-1663700D03*
G01*
X6299200Y-1663700D03*
G01*
X6553200Y-1663700D03*
D18*
G01*
X2209800Y-1663700D03*
G01*
X9702800Y-1663700D03*
G01*
X9677400Y-4775200D03*
G01*
X2171700Y-4762500D03*
D19*
G01*
X9652000Y-127000D03*
G01*
X5232400Y1562100D03*
G01*
X5232400Y1384300D03*
G01*
X6477000Y1765300D03*
G01*
X6273800Y1155700D03*
G01*
X6819900Y1930400D03*
G01*
X5842000Y1054100D03*
G01*
X5562600Y1092200D03*
G01*
X4927600Y1358900D03*
M02*
